<?xml version="1.0" encoding="utf-8"?>
<!-- Generator: Adobe Illustrator 16.0.0, SVG Export Plug-In . SVG Version: 6.00 Build 0)  -->
<!DOCTYPE svg PUBLIC "-//W3C//DTD SVG 1.1//EN" "http://www.w3.org/Graphics/SVG/1.1/DTD/svg11.dtd">
<svg version="1.1" id="Layer_1" xmlns="http://www.w3.org/2000/svg" xmlns:xlink="http://www.w3.org/1999/xlink" x="0px" y="0px"
	 width="27.5px" height="54.833px" viewBox="6.595 4.5 27.5 54.833" enable-background="new 6.595 4.5 27.5 54.833"
	 xml:space="preserve">
<path fill="none" stroke="#070808" stroke-width="2" stroke-linecap="round" stroke-linejoin="round" stroke-miterlimit="10" d="
	M16.152,57.876c0,0-6.883-4.035-7.749-17.951c0,0-0.477-9.453,3.875-8.386c0,0,3.212,2.845,4.486,6.591c0,0,1.854,3.149,0.729,4.265
	c0,0-2.79,0.718-2.999-3.042c0,0-1.81-2.083-2.968-3.922c0,0,0.85,0.749-0.404,3.287"/>
<path fill="none" stroke="#070808" stroke-width="2" stroke-linecap="round" stroke-linejoin="round" stroke-miterlimit="10" d="
	M13.122,31.615c0,0,2.196-8.579,4.735-5.265c0,0,1.688,2.408,3.267,6.326"/>
<path fill="none" stroke="#070808" stroke-width="2" stroke-linecap="round" stroke-linejoin="round" stroke-miterlimit="10" d="
	M23.644,58.188c2.353,0.655,4.281-1.554,4.281-1.554c3.697-3.834,4.555-12.817,4.555-12.817c0.984-9.129-2.496-11.142-2.496-11.142
	c-3.386,0.792-9.608,0.15-9.608,0.15c-0.209,4.87,7.744,3.559,7.744,3.559"/>
<path fill="none" stroke="#070808" stroke-width="2" stroke-linecap="round" stroke-linejoin="round" stroke-miterlimit="10" d="
	M21.875,35.675c0,0,0.455,5.207-2.587,2.25c0,0-0.712-1.381-0.855-2.504c0,0-2.009-3.583-2.348-4.54c0,0,1.381,2.135,0,5.088"/>
<path fill="none" stroke="#070808" stroke-width="2" stroke-linecap="round" stroke-linejoin="round" stroke-miterlimit="10" d="
	M32.51,43.509c0,0,1.15-10.001-2.74-17.987c0,0-4.15-9.327-5.394-10.674c0,0-2.312-3.978-7.254-6.096c0,0-2.31,1.891,2.656,6.168
	c0,0,1.553,1.357,3.397,5.715c0,0,3.069,8.125,3.443,10.031"/>
<line fill="none" stroke="#070808" stroke-width="2" stroke-linecap="round" stroke-linejoin="round" stroke-miterlimit="10" x1="23.066" y1="20.93" x2="20.167" y2="30.078"/>
<line fill="none" stroke="#070808" stroke-width="2" stroke-linecap="round" stroke-linejoin="round" stroke-miterlimit="10" x1="26.081" y1="28.903" x2="25.785" y2="30.47"/>
<path fill="none" stroke="#070808" stroke-width="2" stroke-linecap="round" stroke-linejoin="round" stroke-miterlimit="10" d="
	M25.955,42.841c0,0-3.659,5.129-2.151,9.896"/>
<path fill="none" stroke="#070808" stroke-width="2" stroke-linecap="round" stroke-linejoin="round" stroke-miterlimit="10" d="
	M27.825,21.293l3.076-12.159c0,0-0.062-5.461-3.517-1.856l-2.637,8.072"/>
<line fill="none" stroke="#070808" stroke-width="2" stroke-linecap="round" stroke-linejoin="round" stroke-miterlimit="10" x1="28.148" y1="40.175" x2="27.384" y2="36.527"/>
</svg>
