<?xml version="1.0" encoding="utf-8"?>
<!-- Generator: Adobe Illustrator 16.0.0, SVG Export Plug-In . SVG Version: 6.00 Build 0)  -->
<!DOCTYPE svg PUBLIC "-//W3C//DTD SVG 1.1//EN" "http://www.w3.org/Graphics/SVG/1.1/DTD/svg11.dtd">
<svg version="1.1" xmlns="http://www.w3.org/2000/svg" xmlns:xlink="http://www.w3.org/1999/xlink" x="0px" y="0px" width="69px"
	 height="51.875px" viewBox="22.583 46.042 69 51.875" enable-background="new 22.583 46.042 69 51.875" xml:space="preserve">
<g id="Open">
	<g id="open_1_">
		<path fill="#FFFFFF" d="M52.723,87.88c4.201,1.419,6.148,0.244,6.148,0.244c1.933,0.511,3.515-1.214,3.515-1.214
			c3.035-2.994,6.013-13.319,6.013-13.319c1.43-3.115,4.809-6.359,4.809-6.359c0.84-1.932-1.679-1.654-1.679-1.654
			c-1.298-0.075-5.19,4.503-5.19,4.503s-3.183,1.289-2.947-1.935l0.021-0.25l1.929-16.532c-1.438-3.321-3.023-0.057-3.023-0.057
			L58.9,67.809v0.315l-1.947-18.256c0,0-1.566-3.479-2.947-0.368l0.711,20.003l-5.388-16.448c0,0-1.717-3.054-2.509,0.564
			l2.722,17.333l-5.909-12.121c0,0-2.174-1.907-2.153,0.922l4.883,14.109C46.859,82.879,52.723,87.88,52.723,87.88z"/>
	</g>
	<g id="base_4_">
		<path fill="none" stroke="#505050" stroke-width="1.4173" stroke-linecap="round" stroke-linejoin="round" d="M52.723,87.643
			c0,0-5.649-3.153-6.36-14.019"/>
	</g>
	<g id="fingers_down" display="none">
		
			<path display="inline" fill="none" stroke="#000000" stroke-width="3" stroke-linecap="round" stroke-linejoin="round" stroke-miterlimit="10" d="
			M4.119,58.86c0,0-0.854-16.121,6.945-14.302c0,0,5.759,4.854,8.042,11.241c0,0,3.327,5.371,1.31,7.271
			c0,0-4.999,1.224-5.375-5.187c0,0-3.244-3.551-5.318-6.69c0,0,1.522,1.279-0.725,5.608"/>
		
			<path display="inline" fill="none" stroke="#000000" stroke-width="3" stroke-linecap="round" stroke-linejoin="round" stroke-miterlimit="10" d="
			M12.578,44.689c0,0,3.937-14.629,8.485-8.979c0,0,3.026,4.106,5.858,10.791"/>
		
			<path display="inline" fill="none" stroke="#000000" stroke-width="3" stroke-linecap="round" stroke-linejoin="round" stroke-miterlimit="10" d="
			M47.54,58.286c-0.521-9.473-4.735-11.789-4.735-11.789"/>
		
			<path display="inline" fill="none" stroke="#000000" stroke-width="3" stroke-linecap="round" stroke-linejoin="round" stroke-miterlimit="10" d="
			M28.269,51.613c0,0,0.814,8.88-4.638,3.839c0,0-1.276-2.354-1.536-4.271c0,0-3.598-6.11-4.206-7.74c0,0,2.476,3.642,0,8.677"/>
		
			<line display="inline" fill="none" stroke="#000000" stroke-width="3" stroke-linecap="round" stroke-linejoin="round" stroke-miterlimit="10" x1="39.514" y1="59.284" x2="38.145" y2="53.066"/>
		
			<path display="inline" fill="none" stroke="#000000" stroke-width="3" stroke-linecap="round" stroke-linejoin="round" stroke-miterlimit="10" d="
			M47.54,58.286c-0.521-9.473-4.735-11.789-4.735-11.789c-6.071,1.35-17.226,0.256-17.226,0.256
			c-0.374,8.306,13.882,6.068,13.882,6.068"/>
		
			<path display="inline" fill="none" stroke="#000000" stroke-width="3" stroke-linecap="round" stroke-linejoin="round" stroke-miterlimit="10" d="
			M31.436,90.002c4.22,1.117,7.675-2.648,7.675-2.648c6.63-6.539,8.162-21.859,8.162-21.859c0.314-2.771,0.377-5.158,0.265-7.209"/>
		
			<path display="inline" fill="none" stroke="#000000" stroke-width="3" stroke-linecap="round" stroke-linejoin="round" stroke-miterlimit="10" d="
			M35.581,63.833c0,0-6.559,8.746-3.859,16.875"/>
	</g>
	<g id="crossed" display="none">
		
			<line display="inline" fill="none" stroke="#000000" stroke-width="3" stroke-linecap="round" stroke-linejoin="round" stroke-miterlimit="10" x1="33.327" y1="40.586" x2="32.345" y2="44.006"/>
		
			<path display="inline" fill="none" stroke="#000000" stroke-width="3" stroke-linecap="round" stroke-linejoin="round" stroke-miterlimit="10" d="
			M24.9,42.297l5.169-15.463"/>
		
			<path display="inline" fill="none" stroke="#000000" stroke-width="3" stroke-linecap="round" stroke-linejoin="round" stroke-miterlimit="10" d="
			M34.655,43.57l-8.498-31.019c0,0,0.117-9.423,6.718-3.203L45.73,50.35"/>
		
			<path display="inline" fill="none" stroke="#000000" stroke-width="3" stroke-linecap="round" stroke-linejoin="round" stroke-miterlimit="10" d="
			M38.827,28.336L45.023,9.11c0,0-0.11-9.312-6.301-3.165l-3.744,10.126"/>
	</g>
	<g id="open_3_">
		<path fill="none" stroke="#505050" stroke-width="1.4173" stroke-linecap="round" stroke-miterlimit="10" d="M58.9,67.571
			l3.416-16.503c0,0,1.586-3.264,3.023,0.057l-1.929,16.534"/>
		<path fill="none" stroke="#505050" stroke-width="1.4173" stroke-linecap="round" stroke-miterlimit="10" d="M54.896,67.886
			l-0.881-18.393c1.371-3.344,2.938,0.135,2.938,0.135L58.9,67.886"/>
		<path fill="none" stroke="#505050" stroke-width="1.4173" stroke-linecap="round" stroke-miterlimit="10" d="M50.078,69.339
			L46.82,53.38c0.791-3.615,2.509-0.563,2.509-0.563l4.866,16.314"/>
		<path fill="none" stroke="#505050" stroke-width="1.4173" stroke-linecap="round" stroke-miterlimit="10" d="M46.073,73.47
			l-4.594-13.955c-0.021-2.83,2.153-0.923,2.153-0.923l5.909,12.123"/>
		<path fill="none" stroke="#505050" stroke-width="1.4173" stroke-linecap="round" stroke-miterlimit="10" d="M58.871,87.884
			c1.933,0.512,3.515-1.211,3.515-1.211c3.035-2.996,6.013-13.321,6.013-13.321c1.43-3.114,4.809-6.358,4.809-6.358
			c0.84-1.932-1.679-1.654-1.679-1.654c-1.298-0.076-5.19,4.503-5.19,4.503s-3.183,1.287-2.947-1.938"/>
		<path fill="none" stroke="#505050" stroke-width="1.4173" stroke-linecap="round" stroke-miterlimit="10" d="M61.791,74.661
			c0,0-3.791,3.269-3.382,7.169"/>
	</g>
	<g id="Layer_4" display="none">
		
			<line display="inline" fill="none" stroke="#000000" stroke-width="3" stroke-linecap="round" stroke-linejoin="round" stroke-miterlimit="10" x1="33.328" y1="40.564" x2="32.346" y2="43.984"/>
		
			<path display="inline" fill="none" stroke="#000000" stroke-width="3" stroke-linecap="round" stroke-linejoin="round" stroke-miterlimit="10" d="
			M38.83,28.316l6.902,22.013"/>
		
			<path display="inline" fill="none" stroke="#000000" stroke-width="3" stroke-linecap="round" stroke-linejoin="round" stroke-miterlimit="10" d="
			M38.83,28.316"/>
		
			<path display="inline" fill="none" stroke="#000000" stroke-width="3" stroke-linecap="round" stroke-linejoin="round" stroke-miterlimit="10" d="
			M30.125,26.708l-3.967-14.179c0,0,0.117-9.423,6.718-3.203l1.974,6.294"/>
		
			<path display="inline" fill="none" stroke="#000000" stroke-width="3" stroke-linecap="round" stroke-linejoin="round" stroke-miterlimit="10" d="
			M34.656,43.548l-0.835-3.049"/>
		
			<path display="inline" fill="none" stroke="#000000" stroke-width="3" stroke-linecap="round" stroke-linejoin="round" stroke-miterlimit="10" d="
			M33.328,40.564L45.025,9.089c0,0-0.111-9.312-6.301-3.165L24.9,42.275"/>
	</g>
	<g id="Layer_2">
	</g>
</g>
<g id="crossed_2_" display="none">
	<path display="inline" fill="#FFFFFF" d="M52.922,88.106c0,0-11.137-10.778-4.651-20.863l1.846,0.019c0,0,2.326-5.524,3.231-4.635
		l2.411,3.075l2.366-5.721l-1.791-7.437c0,0,0.21-4.166,3.284-1.341l0.756,2.441l1.715-4.125c0,0,2.572-2.828,2.885,1.448
		l-2.836,8.118l2.308,8.051l1.594,5.384c0,0,0.449,15.515-7.288,15.49C58.751,88.01,56.051,88.529,52.922,88.106z"/>
	<g id="base_1_" display="inline">
		<path fill="none" stroke="#505050" stroke-width="1.4173" stroke-linecap="round" stroke-linejoin="round" d="M52.682,87.769
			c0,0-5.65-3.149-6.361-14.018"/>
	</g>
	<g id="fingers_down_1_" display="inline">
		<path fill="none" stroke="#505050" stroke-width="1.4173" stroke-linecap="round" stroke-linejoin="round" d="M46.32,73.751
			c0,0-0.393-7.381,3.18-6.549c0,0,2.637,2.224,3.683,5.148c0,0,1.523,2.459,0.601,3.328c0,0-2.29,0.562-2.462-2.374
			c0,0-1.485-1.627-2.436-3.064c0,0,0.696,0.586-0.333,2.567"/>
		<path fill="none" stroke="#505050" stroke-width="1.4173" stroke-linecap="round" stroke-linejoin="round" d="M50.193,67.263
			c0,0,1.803-6.699,3.885-4.112c0,0,1.386,1.88,2.684,4.941"/>
		<path fill="none" stroke="#505050" stroke-width="1.4173" stroke-linecap="round" stroke-linejoin="round" d="M66.203,73.488
			c-0.24-4.337-2.17-5.397-2.17-5.397"/>
		<path fill="none" stroke="#505050" stroke-width="1.4173" stroke-linecap="round" stroke-linejoin="round" d="M57.378,70.433
			c0,0,0.372,4.067-2.123,1.759c0,0-0.585-1.079-0.703-1.955c0,0-1.649-2.798-1.927-3.545c0,0,1.135,1.667,0,3.974"/>
		
			<line fill="none" stroke="#505050" stroke-width="1.4173" stroke-linecap="round" stroke-linejoin="round" x1="62.527" y1="73.947" x2="61.9" y2="71.098"/>
		<path fill="none" stroke="#505050" stroke-width="1.4173" stroke-linecap="round" stroke-linejoin="round" d="M66.203,73.488
			c-0.24-4.337-2.17-5.397-2.17-5.397c-2.779,0.619-7.887,0.117-7.887,0.117c-0.171,3.805,6.357,2.778,6.357,2.778"/>
		<path fill="none" stroke="#505050" stroke-width="1.4173" stroke-linecap="round" stroke-linejoin="round" d="M58.828,88.012
			c1.934,0.511,3.516-1.213,3.516-1.213c3.035-2.994,3.736-10.01,3.736-10.01c0.145-1.269,0.173-2.36,0.122-3.302"/>
		<path fill="none" stroke="#505050" stroke-width="1.4173" stroke-linecap="round" stroke-linejoin="round" d="M60.727,76.03
			c0,0-3.004,4.003-1.766,7.728"/>
	</g>
	<g id="crossed_1_" display="inline">
		
			<line fill="none" stroke="#505050" stroke-width="1.4173" stroke-linecap="round" stroke-linejoin="round" x1="59.695" y1="65.384" x2="59.245" y2="66.95"/>
		<path fill="none" stroke="#505050" stroke-width="1.4173" stroke-linecap="round" stroke-linejoin="round" d="M55.836,66.167
			l2.366-7.08"/>
		<path fill="none" stroke="#505050" stroke-width="1.4173" stroke-linecap="round" stroke-linejoin="round" d="M60.303,66.75
			l-3.892-14.202c0,0,0.054-4.317,3.076-1.468l5.887,18.775"/>
		<path fill="none" stroke="#505050" stroke-width="1.4173" stroke-linecap="round" stroke-linejoin="round" d="M62.213,59.776
			l2.837-8.805c0,0-0.05-4.264-2.886-1.451l-1.713,4.639"/>
	</g>
</g>
<g id="name">
	<g>
		<path fill="#505050" stroke="#505050" stroke-width="0.2835" stroke-miterlimit="10" d="M36.68,84.278
			c0.053,0.062,0.072,0.139,0.057,0.224c-0.017,0.085-0.057,0.154-0.118,0.207c-0.023,0.019-0.065,0.04-0.126,0.063
			c-0.827,0.188-1.803,0.207-2.932,0.051c-1.131-0.156-2.392-0.396-3.785-0.719c-0.25,0.18-0.516,0.344-0.799,0.49
			s-0.574,0.264-0.874,0.353c-0.456,0.137-0.894,0.187-1.311,0.146c-0.418-0.04-0.744-0.203-0.978-0.488
			c-0.143-0.171-0.204-0.354-0.182-0.544c0.022-0.19,0.109-0.362,0.262-0.515c0.254-0.21,0.533-0.345,0.841-0.404
			c0.307-0.062,0.625-0.078,0.953-0.051c0.328,0.029,0.66,0.08,0.993,0.156c0.335,0.075,0.659,0.142,0.973,0.203
			c0.912-0.633,1.804-1.31,2.681-2.033c0.165-0.137,0.328-0.271,0.485-0.4c0.158-0.131,0.32-0.27,0.487-0.421
			c0.063-0.052,0.134-0.071,0.212-0.058c0.078,0.016,0.148,0.059,0.207,0.131c0.053,0.062,0.072,0.135,0.06,0.217
			c-0.012,0.083-0.048,0.15-0.111,0.203c-0.167,0.136-0.324,0.269-0.471,0.396c-0.145,0.129-0.287,0.247-0.421,0.359
			c-0.489,0.401-0.912,0.737-1.269,1.005c-0.355,0.267-0.707,0.529-1.051,0.788c0.541,0.125,1.082,0.237,1.625,0.341
			c0.542,0.103,1.068,0.184,1.579,0.238c0.51,0.057,0.994,0.085,1.453,0.085c0.458,0.002,0.875-0.042,1.255-0.13
			C36.5,84.148,36.603,84.184,36.68,84.278z M26.286,84.216c0.118,0.142,0.288,0.227,0.51,0.256c0.223,0.029,0.463,0.022,0.721-0.02
			c0.259-0.038,0.513-0.109,0.762-0.208c0.249-0.101,0.459-0.208,0.63-0.321c-0.15-0.022-0.342-0.057-0.573-0.105
			c-0.231-0.046-0.47-0.078-0.716-0.095c-0.245-0.017-0.484-0.009-0.716,0.023c-0.231,0.033-0.418,0.108-0.56,0.225
			c-0.032,0.025-0.061,0.059-0.086,0.101C26.231,84.113,26.242,84.162,26.286,84.216z M35.323,78.774
			c0.039-0.033,0.072-0.054,0.101-0.062c0.024-0.007,0.046-0.019,0.062-0.033c0.023-0.018,0.039-0.044,0.044-0.076
			c0.008-0.032,0.038-0.07,0.094-0.115c0.056-0.046,0.126-0.069,0.214-0.067c0.088,0.001,0.16,0.037,0.219,0.106
			c0.083,0.103,0.098,0.214,0.044,0.333c-0.056,0.117-0.131,0.217-0.225,0.294c-0.078,0.065-0.176,0.117-0.287,0.158
			c-0.113,0.039-0.215,0.005-0.306-0.104c-0.073-0.088-0.1-0.17-0.081-0.243C35.222,78.889,35.261,78.825,35.323,78.774z"/>
		<path fill="#505050" stroke="#505050" stroke-width="0.2835" stroke-miterlimit="10" d="M39.098,90.609
			c0.24,0.135,0.556,0.161,0.946,0.082c0.392-0.08,0.807-0.223,1.25-0.428c0.442-0.204,0.886-0.441,1.33-0.713
			c0.447-0.274,0.853-0.538,1.216-0.792c0.109-0.068,0.216-0.072,0.323-0.012c0.071,0.04,0.115,0.103,0.133,0.188
			c0.016,0.085,0.004,0.164-0.035,0.235c-0.011,0.018-0.03,0.045-0.063,0.08c-0.03,0.034-0.109,0.094-0.237,0.175
			c-0.312,0.199-0.691,0.439-1.139,0.718c-0.448,0.275-0.909,0.523-1.387,0.735c-0.478,0.215-0.947,0.362-1.415,0.439
			c-0.466,0.08-0.87,0.026-1.209-0.164c-0.341-0.19-0.561-0.468-0.66-0.834s-0.104-0.747-0.012-1.14
			c-0.119,0.108-0.258,0.215-0.417,0.32c-0.157,0.104-0.323,0.186-0.495,0.241s-0.348,0.083-0.53,0.083
			c-0.18-0.002-0.355-0.05-0.525-0.146c-0.249-0.14-0.433-0.32-0.548-0.543c-0.116-0.224-0.178-0.465-0.183-0.727
			c-0.008-0.261,0.035-0.535,0.127-0.825c0.091-0.29,0.213-0.573,0.367-0.85c0.186-0.329,0.405-0.634,0.66-0.914
			c0.256-0.28,0.527-0.508,0.815-0.687c0.287-0.18,0.581-0.292,0.881-0.335c0.299-0.044,0.588,0.013,0.865,0.167
			c0.168,0.095,0.307,0.223,0.408,0.387c0.103,0.162,0.17,0.338,0.205,0.528c0.034,0.189,0.036,0.379,0.005,0.572
			c-0.03,0.194-0.095,0.377-0.19,0.546c-0.034,0.062-0.086,0.112-0.154,0.15c-0.067,0.037-0.15,0.029-0.25-0.024
			c-0.151-0.086-0.199-0.208-0.146-0.365c0.087-0.302,0.113-0.568,0.085-0.798c-0.031-0.227-0.136-0.391-0.314-0.491
			c-0.161-0.09-0.348-0.103-0.558-0.039c-0.213,0.064-0.433,0.179-0.659,0.345c-0.228,0.167-0.444,0.371-0.65,0.614
			c-0.206,0.241-0.383,0.496-0.532,0.764c-0.224,0.402-0.35,0.791-0.369,1.165c-0.022,0.374,0.123,0.649,0.437,0.825
			c0.188,0.104,0.39,0.107,0.606,0.014c0.218-0.096,0.428-0.232,0.633-0.411s0.396-0.375,0.568-0.589
			c0.171-0.214,0.309-0.393,0.41-0.534c0.108-0.15,0.243-0.183,0.403-0.093c0.082,0.045,0.131,0.103,0.151,0.172
			c0.019,0.07,0.013,0.144-0.017,0.22c-0.072,0.148-0.157,0.349-0.259,0.603c-0.102,0.255-0.178,0.518-0.229,0.788
			c-0.052,0.269-0.055,0.525-0.016,0.765C38.769,90.319,38.892,90.497,39.098,90.609z"/>
		<path fill="#505050" stroke="#505050" stroke-width="0.2835" stroke-miterlimit="10" d="M44.845,89.2
			c0.021-0.08,0.067-0.14,0.14-0.18c0.073-0.038,0.155-0.047,0.243-0.024c0.08,0.021,0.134,0.066,0.165,0.136
			c0.028,0.073,0.043,0.156,0.039,0.25c-0.012,0.207-0.029,0.436-0.057,0.683c-0.025,0.246-0.055,0.477-0.09,0.689
			c0.086-0.168,0.196-0.383,0.331-0.645c0.135-0.261,0.284-0.509,0.446-0.75c0.161-0.237,0.33-0.434,0.508-0.589
			c0.176-0.155,0.349-0.213,0.517-0.169c0.121,0.03,0.201,0.104,0.246,0.222c0.044,0.117,0.066,0.264,0.067,0.444
			c0.003,0.181-0.012,0.385-0.038,0.617c-0.026,0.229-0.049,0.475-0.062,0.734c-0.03,0.363-0.05,0.728-0.06,1.096
			c-0.01,0.366,0.003,0.708,0.031,1.021c0.03,0.314,0.089,0.576,0.17,0.787c0.083,0.213,0.21,0.34,0.378,0.383
			c0.269,0.068,0.577,0.013,0.93-0.165c0.354-0.181,0.716-0.425,1.09-0.734c0.378-0.312,0.744-0.654,1.105-1.033
			c0.361-0.378,0.685-0.734,0.972-1.074c0.087-0.094,0.192-0.127,0.309-0.095c0.08,0.021,0.14,0.069,0.179,0.149
			c0.036,0.076,0.046,0.156,0.026,0.236c-0.007,0.019-0.021,0.051-0.041,0.092c-0.021,0.043-0.084,0.118-0.187,0.229
			c-0.25,0.273-0.555,0.604-0.917,0.984c-0.362,0.384-0.746,0.739-1.151,1.067c-0.406,0.33-0.826,0.592-1.257,0.787
			c-0.428,0.197-0.833,0.247-1.21,0.15c-0.237-0.061-0.429-0.192-0.572-0.393c-0.146-0.199-0.251-0.442-0.322-0.725
			c-0.069-0.281-0.113-0.593-0.133-0.937c-0.018-0.343-0.02-0.689-0.01-1.038c0.01-0.354,0.032-0.695,0.065-1.03
			c0.032-0.335,0.058-0.638,0.075-0.908c-0.22,0.282-0.433,0.605-0.638,0.969c-0.205,0.366-0.392,0.732-0.567,1.099
			c-0.172,0.368-0.324,0.724-0.455,1.063c-0.129,0.343-0.229,0.632-0.299,0.868c-0.064,0.161-0.187,0.23-0.37,0.204
			c-0.18-0.046-0.254-0.165-0.225-0.357c0.104-0.522,0.188-0.984,0.259-1.384c0.071-0.4,0.141-0.84,0.212-1.324
			C44.761,90.125,44.812,89.655,44.845,89.2z"/>
		<path fill="#505050" stroke="#505050" stroke-width="0.2835" stroke-miterlimit="10" d="M54.23,95.609
			c-0.354-0.029-0.641-0.16-0.854-0.393c-0.216-0.232-0.38-0.529-0.494-0.894c-0.113-0.362-0.18-0.765-0.202-1.208
			c-0.02-0.443-0.011-0.894,0.025-1.352c0.021-0.256,0.056-0.496,0.103-0.718c0.048-0.221,0.113-0.414,0.191-0.577
			c0.078-0.162,0.179-0.289,0.296-0.377c0.12-0.088,0.255-0.125,0.407-0.113c0.172,0.014,0.333,0.13,0.481,0.346
			c0.151,0.219,0.213,0.557,0.189,1.017c-0.029,0.325-0.121,0.71-0.276,1.147c-0.157,0.439-0.39,0.929-0.696,1.469
			c0.078,0.293,0.185,0.536,0.322,0.726c0.137,0.191,0.323,0.296,0.557,0.314c0.274,0.023,0.571-0.085,0.889-0.322
			c0.314-0.237,0.633-0.54,0.949-0.909c0.318-0.37,0.622-0.771,0.912-1.205c0.291-0.434,0.549-0.842,0.774-1.225
			c0.07-0.107,0.168-0.155,0.29-0.145c0.081,0.006,0.146,0.045,0.196,0.114c0.051,0.072,0.074,0.147,0.067,0.229
			c-0.002,0.02-0.01,0.053-0.021,0.098c-0.016,0.046-0.063,0.133-0.145,0.259c-0.2,0.312-0.445,0.688-0.738,1.126
			c-0.29,0.438-0.608,0.855-0.951,1.248c-0.346,0.395-0.715,0.725-1.104,0.989C55.008,95.522,54.619,95.638,54.23,95.609z
			 M53.294,92.101c-0.009,0.122-0.019,0.247-0.03,0.374c-0.011,0.129-0.011,0.259,0,0.394c0.3-0.655,0.463-1.186,0.496-1.594
			c0.006-0.204-0.009-0.362-0.042-0.472c-0.035-0.11-0.062-0.178-0.082-0.2c-0.121,0.146-0.2,0.353-0.241,0.62
			C53.353,91.493,53.319,91.785,53.294,92.101z"/>
		<path fill="#505050" stroke="#505050" stroke-width="0.2835" stroke-miterlimit="10" d="M63.408,93.011
			c0.004-0.156,0.006-0.393,0.013-0.704c0.009-0.315,0.031-0.635,0.072-0.961c0.042-0.325,0.108-0.617,0.199-0.875
			c0.092-0.257,0.227-0.403,0.407-0.438c0.211-0.041,0.403,0.039,0.578,0.24c0.175,0.199,0.331,0.446,0.47,0.736
			c0.141,0.293,0.257,0.589,0.353,0.894c0.097,0.305,0.173,0.536,0.235,0.69c0.017-0.191,0.031-0.45,0.046-0.776
			c0.016-0.325,0.047-0.648,0.093-0.971c0.048-0.321,0.117-0.605,0.211-0.854c0.093-0.247,0.225-0.388,0.396-0.419
			c0.12-0.024,0.227,0.007,0.315,0.095c0.09,0.087,0.175,0.211,0.252,0.372s0.154,0.354,0.228,0.574
			c0.075,0.22,0.16,0.451,0.261,0.692c0.126,0.339,0.265,0.678,0.413,1.014c0.147,0.338,0.304,0.641,0.466,0.911
			c0.161,0.271,0.325,0.483,0.491,0.64c0.166,0.155,0.331,0.216,0.505,0.184c0.271-0.054,0.526-0.235,0.769-0.548
			c0.24-0.312,0.466-0.689,0.672-1.129c0.207-0.442,0.393-0.911,0.558-1.406c0.165-0.494,0.305-0.957,0.42-1.387
			c0.038-0.121,0.118-0.195,0.239-0.218c0.08-0.014,0.153,0.004,0.223,0.059c0.067,0.055,0.11,0.123,0.125,0.201
			c0.004,0.022,0.005,0.057,0.004,0.104s-0.025,0.142-0.069,0.287c-0.109,0.353-0.246,0.782-0.41,1.281
			c-0.164,0.501-0.358,0.987-0.585,1.457c-0.228,0.472-0.493,0.888-0.798,1.248c-0.305,0.362-0.649,0.58-1.032,0.652
			c-0.239,0.047-0.469,0.013-0.685-0.109c-0.217-0.118-0.417-0.291-0.601-0.517c-0.184-0.225-0.357-0.489-0.52-0.791
			c-0.164-0.302-0.312-0.613-0.454-0.935c-0.142-0.322-0.268-0.642-0.381-0.959c-0.112-0.317-0.22-0.602-0.321-0.852
			c-0.08,0.348-0.132,0.73-0.16,1.148c-0.027,0.416-0.043,0.828-0.043,1.235c0,0.406,0.016,0.791,0.044,1.156
			c0.027,0.364,0.061,0.667,0.099,0.909c0.017,0.195-0.065,0.31-0.248,0.346c-0.05,0.01-0.112,0.006-0.189-0.01
			c-0.075-0.017-0.143-0.094-0.2-0.229c-0.052-0.27-0.137-0.602-0.254-0.996c-0.118-0.396-0.254-0.798-0.406-1.212
			c-0.153-0.413-0.313-0.812-0.481-1.197c-0.169-0.385-0.328-0.695-0.479-0.938c-0.078,0.245-0.132,0.579-0.164,1.001
			c-0.034,0.424-0.056,0.865-0.065,1.325c-0.01,0.461-0.01,0.905,0,1.336c0.01,0.432,0.025,0.78,0.047,1.047
			c0.012,0.175-0.069,0.29-0.248,0.346c-0.18,0.033-0.298-0.042-0.356-0.229c-0.129-0.517-0.248-0.969-0.356-1.361
			c-0.106-0.391-0.229-0.818-0.372-1.288c-0.144-0.466-0.297-0.914-0.463-1.339c-0.017-0.081,0.001-0.154,0.051-0.222
			c0.05-0.065,0.119-0.108,0.209-0.126c0.08-0.017,0.15,0.002,0.206,0.052c0.057,0.054,0.105,0.122,0.142,0.209
			c0.04,0.096,0.083,0.214,0.129,0.349c0.048,0.138,0.097,0.277,0.146,0.418c0.047,0.143,0.095,0.284,0.144,0.426
			C63.341,92.794,63.38,92.914,63.408,93.011z"/>
		<path fill="#505050" stroke="#505050" stroke-width="0.2835" stroke-miterlimit="10" d="M74.64,92.662
			c-0.004-0.065-0.008-0.106-0.016-0.125c-0.005-0.01-0.016-0.025-0.034-0.045s-0.035-0.038-0.054-0.052
			c-0.058-0.065-0.085-0.142-0.08-0.227c0.006-0.085,0.041-0.154,0.107-0.213c0.063-0.059,0.139-0.085,0.223-0.08
			c0.085,0.006,0.157,0.042,0.215,0.106c0.096,0.105,0.155,0.185,0.177,0.243c0.022,0.057,0.049,0.152,0.079,0.283
			c0.01,0.083-0.005,0.154-0.041,0.213c-0.038,0.059-0.09,0.1-0.154,0.128l-0.058,0.022c-0.085,0.01-0.162-0.009-0.237-0.058
			C74.693,92.812,74.651,92.747,74.64,92.662z"/>
		<path fill="#505050" stroke="#505050" stroke-width="0.2835" stroke-miterlimit="10" d="M84.303,86.582
			c0.205-0.188,0.324-0.479,0.364-0.876c0.038-0.396,0.028-0.837-0.027-1.321c-0.055-0.483-0.142-0.98-0.262-1.487
			c-0.12-0.509-0.243-0.975-0.369-1.401c-0.033-0.123-0.003-0.226,0.088-0.31c0.061-0.058,0.134-0.079,0.22-0.066
			c0.086,0.009,0.157,0.045,0.214,0.105c0.012,0.016,0.032,0.045,0.055,0.084c0.023,0.041,0.055,0.135,0.092,0.281
			c0.062,0.232,0.135,0.509,0.215,0.822c0.081,0.315,0.153,0.645,0.219,0.987c0.066,0.344,0.118,0.692,0.157,1.043
			c0.039,0.354,0.051,0.695,0.033,1.023s-0.071,0.629-0.163,0.9c-0.091,0.271-0.23,0.494-0.418,0.667
			c-0.25,0.228-0.522,0.405-0.816,0.53c-0.295,0.124-0.583,0.231-0.859,0.321c0.015,0.473-0.128,0.846-0.429,1.124
			c-0.234,0.213-0.469,0.323-0.708,0.327c-0.239,0.005-0.436-0.076-0.588-0.241c-0.158-0.173-0.222-0.381-0.187-0.623
			c0.037-0.239,0.141-0.439,0.315-0.599c0.104-0.098,0.237-0.178,0.395-0.24c0.158-0.061,0.337-0.12,0.534-0.177
			c-0.069-0.271-0.148-0.54-0.24-0.805c-0.09-0.266-0.185-0.531-0.285-0.797c-0.097-0.268-0.188-0.536-0.271-0.809
			c-0.084-0.273-0.146-0.558-0.186-0.858c-0.007,0.022-0.029,0.051-0.067,0.084c-0.22,0.201-0.439,0.345-0.661,0.427
			c-0.223,0.081-0.438,0.147-0.64,0.199c-0.16,0.039-0.3,0.083-0.423,0.133c-0.119,0.05-0.224,0.114-0.315,0.198
			c-0.256,0.236-0.317,0.51-0.183,0.823c0.085,0.138,0.068,0.263-0.054,0.373c-0.06,0.055-0.132,0.082-0.218,0.078
			c-0.087-0.002-0.156-0.031-0.209-0.092c-0.103-0.109-0.167-0.237-0.194-0.382c-0.029-0.144-0.028-0.29,0.002-0.44
			c0.028-0.148,0.079-0.294,0.152-0.433c0.07-0.143,0.163-0.265,0.275-0.368c0.138-0.125,0.292-0.22,0.469-0.287
			c0.174-0.065,0.355-0.127,0.541-0.182s0.367-0.117,0.546-0.188c0.181-0.068,0.344-0.173,0.495-0.31
			c0.151-0.142,0.263-0.299,0.336-0.477c0.072-0.178,0.173-0.326,0.3-0.443c0.061-0.056,0.133-0.083,0.216-0.083
			c0.084,0,0.152,0.03,0.208,0.091c0.097,0.104,0.117,0.217,0.062,0.339c-0.058,0.345-0.06,0.688-0.006,1.025
			c0.057,0.339,0.139,0.676,0.252,1.011c0.112,0.335,0.231,0.665,0.361,0.991c0.127,0.328,0.233,0.661,0.321,0.996
			c0.24-0.068,0.478-0.158,0.711-0.269C83.905,86.897,84.115,86.754,84.303,86.582z M82.212,88.545
			c0.12-0.109,0.192-0.267,0.214-0.468c-0.116,0.038-0.225,0.079-0.324,0.122s-0.18,0.091-0.24,0.146
			c-0.13,0.162-0.164,0.277-0.102,0.345c0.036,0.022,0.092,0.03,0.173,0.018C82.013,88.698,82.105,88.642,82.212,88.545z"/>
		<path fill="#505050" stroke="#505050" stroke-width="0.2835" stroke-miterlimit="10" d="M88.591,80.761
			c-0.05-0.04-0.084-0.063-0.104-0.072c-0.011-0.002-0.029-0.005-0.056-0.004c-0.027,0.002-0.053,0.004-0.076,0.006
			c-0.086,0-0.161-0.028-0.221-0.089c-0.061-0.06-0.091-0.133-0.091-0.22c-0.003-0.088,0.028-0.161,0.088-0.222
			s0.135-0.09,0.221-0.09c0.143-0.004,0.244,0.005,0.302,0.026c0.057,0.02,0.145,0.063,0.262,0.128
			c0.069,0.048,0.114,0.104,0.135,0.172c0.019,0.066,0.016,0.134-0.007,0.201l-0.022,0.058c-0.046,0.069-0.112,0.116-0.197,0.142
			C88.739,80.819,88.661,80.808,88.591,80.761z"/>
	</g>
</g>
</svg>
