<?xml version="1.0" encoding="utf-8"?>
<!-- Generator: Adobe Illustrator 16.0.0, SVG Export Plug-In . SVG Version: 6.00 Build 0)  -->
<!DOCTYPE svg PUBLIC "-//W3C//DTD SVG 1.1//EN" "http://www.w3.org/Graphics/SVG/1.1/DTD/svg11.dtd">
<svg version="1.1" id="Layer_1" xmlns="http://www.w3.org/2000/svg" xmlns:xlink="http://www.w3.org/1999/xlink" x="0px" y="0px"
	 width="155.917px" height="117.375px" viewBox="0 0 155.917 117.375" enable-background="new 0 0 155.917 117.375"
	 xml:space="preserve">
<g id="Open">
	<g id="open_1_">
		<path fill="#FFFFFF" d="M71.899,88.721c9.177,3.103,13.429,0.531,13.429,0.531c4.219,1.116,7.676-2.648,7.676-2.648
			c6.629-6.539,13.131-29.085,13.131-29.085c3.123-6.805,10.5-13.887,10.5-13.887c1.834-4.219-3.666-3.613-3.666-3.613
			c-2.832-0.168-11.334,9.832-11.334,9.832s-6.951,2.814-6.438-4.227l0.047-0.543l4.211-36.106C96.31,1.724,92.85,8.85,92.85,8.85
			l-7.461,36.037v0.69l-4.25-39.869c0,0-3.419-7.597-6.439-0.802l1.556,43.684L64.489,12.67c0,0-3.75-6.666-5.479,1.231
			l5.945,37.855L52.05,25.284c0,0-4.748-4.166-4.704,2.016l10.663,30.811C59.098,77.797,71.899,88.721,71.899,88.721z"/>
	</g>
	<g id="base">
		<path fill="none" stroke="#505050" stroke-width="3" stroke-linecap="round" stroke-linejoin="round" stroke-miterlimit="10" d="
			M71.965,88.199c0,0-12.337-6.883-13.891-30.612"/>
	</g>
	<g id="fingers_down" display="none">
		
			<path display="inline" fill="none" stroke="#000000" stroke-width="3" stroke-linecap="round" stroke-linejoin="round" stroke-miterlimit="10" d="
			M48.549,58.86c0,0-0.854-16.121,6.945-14.302c0,0,5.759,4.854,8.042,11.241c0,0,3.327,5.371,1.31,7.271
			c0,0-4.999,1.224-5.375-5.188c0,0-3.244-3.551-5.318-6.69c0,0,1.522,1.279-0.725,5.608"/>
		
			<path display="inline" fill="none" stroke="#000000" stroke-width="3" stroke-linecap="round" stroke-linejoin="round" stroke-miterlimit="10" d="
			M57.008,44.689c0,0,3.937-14.629,8.485-8.979c0,0,3.026,4.106,5.858,10.791"/>
		
			<path display="inline" fill="none" stroke="#000000" stroke-width="3" stroke-linecap="round" stroke-linejoin="round" stroke-miterlimit="10" d="
			M91.97,58.286c-0.521-9.473-4.734-11.789-4.734-11.789"/>
		
			<path display="inline" fill="none" stroke="#000000" stroke-width="3" stroke-linecap="round" stroke-linejoin="round" stroke-miterlimit="10" d="
			M72.699,51.613c0,0,0.814,8.88-4.638,3.839c0,0-1.276-2.354-1.536-4.271c0,0-3.598-6.11-4.206-7.74c0,0,2.476,3.642,0,8.677"/>
		
			<line display="inline" fill="none" stroke="#000000" stroke-width="3" stroke-linecap="round" stroke-linejoin="round" stroke-miterlimit="10" x1="83.945" y1="59.284" x2="82.576" y2="53.066"/>
		
			<path display="inline" fill="none" stroke="#000000" stroke-width="3" stroke-linecap="round" stroke-linejoin="round" stroke-miterlimit="10" d="
			M91.97,58.286c-0.521-9.473-4.734-11.789-4.734-11.789c-6.072,1.35-17.227,0.256-17.227,0.256
			c-0.374,8.306,13.882,6.068,13.882,6.068"/>
		
			<path display="inline" fill="none" stroke="#000000" stroke-width="3" stroke-linecap="round" stroke-linejoin="round" stroke-miterlimit="10" d="
			M75.866,90.002c4.22,1.117,7.674-2.648,7.674-2.648c6.631-6.539,8.162-21.858,8.162-21.858c0.314-2.771,0.377-5.158,0.266-7.209"
			/>
		
			<path display="inline" fill="none" stroke="#000000" stroke-width="3" stroke-linecap="round" stroke-linejoin="round" stroke-miterlimit="10" d="
			M80.011,63.833c0,0-6.559,8.746-3.859,16.875"/>
	</g>
	<g id="crossed" display="none">
		
			<line display="inline" fill="none" stroke="#000000" stroke-width="3" stroke-linecap="round" stroke-linejoin="round" stroke-miterlimit="10" x1="77.757" y1="40.586" x2="76.775" y2="44.006"/>
		
			<path display="inline" fill="none" stroke="#000000" stroke-width="3" stroke-linecap="round" stroke-linejoin="round" stroke-miterlimit="10" d="
			M69.33,42.297l5.169-15.463"/>
		
			<path display="inline" fill="none" stroke="#000000" stroke-width="3" stroke-linecap="round" stroke-linejoin="round" stroke-miterlimit="10" d="
			M79.085,43.57l-8.498-31.019c0,0,0.117-9.423,6.718-3.203L90.16,50.35"/>
		
			<path display="inline" fill="none" stroke="#000000" stroke-width="3" stroke-linecap="round" stroke-linejoin="round" stroke-miterlimit="10" d="
			M83.257,28.336L89.453,9.11c0,0-0.109-9.312-6.301-3.165l-3.744,10.126"/>
	</g>
	<g id="open">
		<path fill="none" stroke="#505050" stroke-width="3" stroke-linecap="round" stroke-linejoin="round" stroke-miterlimit="10" d="
			M85.455,44.365l7.461-36.037c0,0,3.463-7.126,6.604,0.124l-4.211,36.106"/>
		<path fill="none" stroke="#505050" stroke-width="3" stroke-linecap="round" stroke-linejoin="round" stroke-miterlimit="10" d="
			M76.712,45.055L74.788,4.892c2.997-7.302,6.417,0.295,6.417,0.295l4.25,39.869"/>
		<path fill="none" stroke="#505050" stroke-width="3" stroke-linecap="round" stroke-linejoin="round" stroke-miterlimit="10" d="
			M66.19,48.229l-7.116-34.851c1.728-7.897,5.479-1.232,5.479-1.232l10.631,35.629"/>
		<path fill="none" stroke="#505050" stroke-width="3" stroke-linecap="round" stroke-linejoin="round" stroke-miterlimit="10" d="
			M57.446,57.25L47.411,26.775c-0.044-6.182,4.704-2.015,4.704-2.015l12.904,26.474"/>
		<path fill="none" stroke="#505050" stroke-width="3" stroke-linecap="round" stroke-linejoin="round" stroke-miterlimit="10" d="
			M85.393,88.729c4.22,1.117,7.677-2.647,7.677-2.647c6.629-6.539,13.131-29.086,13.131-29.086c3.121-6.805,10.5-13.886,10.5-13.886
			c1.832-4.219-3.666-3.614-3.666-3.614c-2.834-0.167-11.334,9.833-11.334,9.833s-6.951,2.813-6.439-4.228"/>
		<path fill="none" stroke="#505050" stroke-width="3" stroke-linecap="round" stroke-linejoin="round" stroke-miterlimit="10" d="
			M91.768,59.848c0,0-8.276,7.139-7.383,15.657"/>
	</g>
	<g id="Layer_4" display="none">
		
			<line display="inline" fill="none" stroke="#000000" stroke-width="3" stroke-linecap="round" stroke-linejoin="round" stroke-miterlimit="10" x1="77.758" y1="40.564" x2="76.777" y2="43.984"/>
		
			<path display="inline" fill="none" stroke="#000000" stroke-width="3" stroke-linecap="round" stroke-linejoin="round" stroke-miterlimit="10" d="
			M83.26,28.316l6.901,22.013"/>
		
			<path display="inline" fill="none" stroke="#000000" stroke-width="3" stroke-linecap="round" stroke-linejoin="round" stroke-miterlimit="10" d="
			M83.26,28.316"/>
		
			<path display="inline" fill="none" stroke="#000000" stroke-width="3" stroke-linecap="round" stroke-linejoin="round" stroke-miterlimit="10" d="
			M74.555,26.708l-3.967-14.179c0,0,0.117-9.423,6.718-3.203l1.975,6.294"/>
		
			<path display="inline" fill="none" stroke="#000000" stroke-width="3" stroke-linecap="round" stroke-linejoin="round" stroke-miterlimit="10" d="
			M79.086,43.548l-0.835-3.049"/>
		
			<path display="inline" fill="none" stroke="#000000" stroke-width="3" stroke-linecap="round" stroke-linejoin="round" stroke-miterlimit="10" d="
			M77.758,40.564L89.455,9.089c0,0-0.11-9.312-6.301-3.165L69.33,42.275"/>
	</g>
	<g id="Layer_2">
	</g>
</g>
<g id="crossed_2_" display="none">
	<path display="inline" fill="#FFFFFF" d="M28.558,89.493c0,0-24.318-23.538-10.159-45.565l4.032,0.045
		c0,0,5.083-12.066,7.06-10.123l5.264,6.717l5.168-12.495l-3.911-16.236c0,0,0.459-9.1,7.17-2.934l1.651,5.334l3.743-9.006
		c0,0,5.619-6.177,6.302,3.164l-6.193,17.725L53.724,43.7l3.479,11.76c0,0,0.983,33.881-15.913,33.828
		C41.288,89.286,35.391,90.419,28.558,89.493z"/>
	<g id="base_1_" display="inline">
		<path fill="none" stroke="#505050" stroke-width="3" stroke-linecap="round" stroke-linejoin="round" stroke-miterlimit="10" d="
			M27.443,88.479c0,0-12.337-6.883-13.891-30.612"/>
	</g>
	<g id="fingers_down_1_" display="inline">
		<path fill="none" stroke="#505050" stroke-width="3" stroke-linecap="round" stroke-linejoin="round" stroke-miterlimit="10" d="
			M13.553,57.866c0,0-0.854-16.121,6.945-14.302c0,0,5.759,4.854,8.041,11.241c0,0,3.328,5.371,1.311,7.271
			c0,0-4.999,1.224-5.375-5.187c0,0-3.244-3.551-5.318-6.69c0,0,1.522,1.279-0.725,5.608"/>
		<path fill="none" stroke="#505050" stroke-width="3" stroke-linecap="round" stroke-linejoin="round" stroke-miterlimit="10" d="
			M22.012,43.695c0,0,3.938-14.629,8.484-8.979c0,0,3.026,4.106,5.858,10.791"/>
		<path fill="none" stroke="#505050" stroke-width="3" stroke-linecap="round" stroke-linejoin="round" stroke-miterlimit="10" d="
			M56.974,57.292c-0.521-9.473-4.735-11.789-4.735-11.789"/>
		<path fill="none" stroke="#505050" stroke-width="3" stroke-linecap="round" stroke-linejoin="round" stroke-miterlimit="10" d="
			M37.703,50.619c0,0,0.813,8.88-4.639,3.839c0,0-1.275-2.354-1.535-4.271c0,0-3.599-6.11-4.207-7.74c0,0,2.477,3.642,0,8.677"/>
		
			<line fill="none" stroke="#505050" stroke-width="3" stroke-linecap="round" stroke-linejoin="round" stroke-miterlimit="10" x1="48.947" y1="58.29" x2="47.578" y2="52.072"/>
		<path fill="none" stroke="#505050" stroke-width="3" stroke-linecap="round" stroke-linejoin="round" stroke-miterlimit="10" d="
			M56.974,57.292c-0.521-9.473-4.735-11.789-4.735-11.789c-6.07,1.35-17.226,0.256-17.226,0.256
			c-0.374,8.306,13.882,6.068,13.882,6.068"/>
		<path fill="none" stroke="#505050" stroke-width="3" stroke-linecap="round" stroke-linejoin="round" stroke-miterlimit="10" d="
			M40.869,89.008c4.221,1.117,7.676-2.648,7.676-2.648c6.63-6.539,8.162-21.858,8.162-21.858c0.314-2.771,0.377-5.158,0.265-7.209"
			/>
		<path fill="none" stroke="#505050" stroke-width="3" stroke-linecap="round" stroke-linejoin="round" stroke-miterlimit="10" d="
			M45.015,62.838c0,0-6.56,8.746-3.858,16.875"/>
	</g>
	<g id="crossed_1_" display="inline">
		
			<line fill="none" stroke="#505050" stroke-width="3" stroke-linecap="round" stroke-linejoin="round" stroke-miterlimit="10" x1="42.761" y1="39.592" x2="41.779" y2="43.012"/>
		<path fill="none" stroke="#505050" stroke-width="3" stroke-linecap="round" stroke-linejoin="round" stroke-miterlimit="10" d="
			M34.334,41.303l5.168-15.463"/>
		<path fill="none" stroke="#505050" stroke-width="3" stroke-linecap="round" stroke-linejoin="round" stroke-miterlimit="10" d="
			M44.088,42.576l-8.497-31.019c0,0,0.116-9.423,6.718-3.203l12.855,41.002"/>
		<path fill="none" stroke="#505050" stroke-width="3" stroke-linecap="round" stroke-linejoin="round" stroke-miterlimit="10" d="
			M48.261,27.342l6.196-19.226c0,0-0.11-9.312-6.301-3.165l-3.744,10.126"/>
	</g>
</g>
<path fill="none" d="M12.945,53.385c0,34.604,31.779,62.657,70.987,62.657c39.206,0,70.985-28.053,70.985-62.657"/>
<text transform="matrix(0.3359 0.6363 -0.8843 0.4668 17.0454 75.0654)" fill="#505050" font-family="'ILoveGlitter'" font-size="48.8184">j</text>
<g enable-background="new    ">
	<path fill="none" stroke="#505050" stroke-miterlimit="10" d="M35.613,78.135c0.087,0.164,0.067,0.354-0.06,0.566
		c-0.127,0.213-0.306,0.38-0.536,0.502c-0.086,0.045-0.227,0.093-0.421,0.143c-2.535,0.358-5.336,0.262-8.405-0.289
		c-3.071-0.552-6.436-1.33-10.095-2.338c-0.885,0.414-1.802,0.785-2.751,1.113c-0.949,0.329-1.892,0.583-2.829,0.76
		c-1.435,0.279-2.727,0.34-3.879,0.18c-1.151-0.159-1.924-0.611-2.318-1.357c-0.24-0.455-0.237-0.921,0.009-1.396
		c0.247-0.474,0.661-0.892,1.243-1.251c0.922-0.486,1.85-0.784,2.785-0.895c0.936-0.11,1.858-0.106,2.766,0.01
		c0.909,0.116,1.803,0.293,2.682,0.531c0.879,0.236,1.738,0.452,2.576,0.646c3.207-1.454,6.408-3.025,9.603-4.712
		c0.604-0.318,1.194-0.631,1.771-0.935c0.575-0.304,1.174-0.632,1.796-0.988c0.23-0.121,0.45-0.157,0.66-0.11
		c0.209,0.05,0.364,0.167,0.462,0.353c0.087,0.166,0.075,0.351-0.037,0.557c-0.113,0.206-0.285,0.368-0.515,0.49
		c-0.604,0.319-1.178,0.627-1.719,0.927c-0.542,0.299-1.057,0.578-1.546,0.836c-1.785,0.942-3.313,1.723-4.587,2.342
		c-1.274,0.62-2.527,1.228-3.757,1.824c1.42,0.39,2.854,0.751,4.3,1.088c1.446,0.334,2.87,0.609,4.271,0.822
		c1.401,0.215,2.754,0.354,4.058,0.42c1.305,0.066,2.54,0.017,3.704-0.147C35.225,77.782,35.482,77.887,35.613,78.135z
		 M6.045,76.502c0.197,0.373,0.599,0.612,1.205,0.715c0.607,0.104,1.299,0.123,2.073,0.058c0.775-0.065,1.567-0.204,2.374-0.419
		c0.807-0.214,1.509-0.452,2.106-0.715c-0.408-0.076-0.919-0.19-1.533-0.344c-0.614-0.151-1.263-0.266-1.948-0.342
		c-0.684-0.074-1.372-0.09-2.065-0.041c-0.692,0.047-1.297,0.208-1.815,0.481c-0.115,0.061-0.23,0.14-0.343,0.239
		C5.987,76.234,5.969,76.357,6.045,76.502z M37.059,64.143c0.144-0.075,0.258-0.121,0.34-0.139s0.152-0.042,0.21-0.072
		c0.086-0.046,0.155-0.107,0.205-0.188c0.049-0.08,0.176-0.172,0.377-0.279c0.201-0.105,0.426-0.15,0.673-0.137
		c0.247,0.016,0.419,0.117,0.518,0.304c0.142,0.269,0.078,0.548-0.193,0.836c-0.271,0.289-0.579,0.524-0.924,0.706
		c-0.288,0.152-0.612,0.27-0.973,0.355c-0.36,0.084-0.617-0.02-0.77-0.31c-0.12-0.228-0.119-0.435,0.005-0.618
		C36.652,64.417,36.829,64.265,37.059,64.143z"/>
</g>
<text transform="matrix(0.5378 0.4779 -0.6642 0.7475 27.2578 91.9326)" fill="#505050" font-family="'ILoveGlitter'" font-size="48.8191">a</text>
<g enable-background="new    ">
	<path fill="none" stroke="#505050" stroke-miterlimit="10" d="M35.67,96.796c0.473,0.421,1.242,0.55,2.31,0.388
		c1.067-0.162,2.262-0.492,3.585-0.993c1.322-0.501,2.683-1.099,4.083-1.793c1.399-0.694,2.687-1.367,3.862-2.021
		c0.343-0.174,0.621-0.168,0.831,0.019c0.14,0.124,0.188,0.308,0.143,0.552c-0.044,0.244-0.153,0.463-0.326,0.658
		c-0.043,0.049-0.122,0.119-0.236,0.213c-0.115,0.094-0.375,0.245-0.778,0.452c-0.99,0.515-2.189,1.124-3.6,1.831
		c-1.41,0.705-2.825,1.32-4.246,1.843c-1.421,0.523-2.759,0.857-4.016,1.003c-1.257,0.146-2.218-0.077-2.883-0.668
		s-0.939-1.41-0.821-2.461c0.117-1.049,0.49-2.121,1.12-3.217c-0.412,0.287-0.871,0.564-1.376,0.835
		c-0.505,0.269-1.004,0.469-1.495,0.599c-0.491,0.13-0.965,0.177-1.419,0.143c-0.456-0.035-0.848-0.199-1.181-0.494
		c-0.49-0.437-0.769-0.979-0.835-1.625c-0.068-0.647,0.024-1.34,0.271-2.077c0.249-0.737,0.633-1.505,1.156-2.305
		c0.521-0.798,1.117-1.575,1.788-2.329c0.799-0.9,1.664-1.723,2.591-2.466c0.927-0.743,1.844-1.343,2.751-1.801
		c0.906-0.457,1.76-0.722,2.562-0.794c0.8-0.072,1.471,0.133,2.014,0.615c0.332,0.295,0.545,0.681,0.64,1.156
		c0.095,0.476,0.089,0.984-0.013,1.523c-0.104,0.539-0.294,1.078-0.569,1.617c-0.276,0.539-0.618,1.04-1.029,1.502
		c-0.151,0.17-0.333,0.304-0.543,0.399c-0.211,0.097-0.412,0.058-0.604-0.112c-0.298-0.266-0.3-0.615-0.007-1.051
		c0.526-0.84,0.866-1.582,1.019-2.23s0.054-1.127-0.296-1.438c-0.315-0.281-0.771-0.349-1.369-0.205
		c-0.598,0.144-1.268,0.43-2.008,0.859c-0.743,0.43-1.496,0.969-2.26,1.617c-0.764,0.649-1.471,1.338-2.119,2.068
		c-0.973,1.095-1.676,2.168-2.109,3.22s-0.343,1.85,0.269,2.395c0.367,0.326,0.873,0.374,1.519,0.141
		c0.645-0.231,1.316-0.582,2.015-1.05c0.697-0.469,1.372-0.99,2.023-1.565c0.652-0.574,1.179-1.053,1.582-1.436
		c0.424-0.407,0.794-0.47,1.109-0.19c0.157,0.14,0.226,0.311,0.205,0.51c-0.021,0.199-0.108,0.404-0.263,0.614
		c-0.33,0.403-0.75,0.956-1.26,1.655c-0.513,0.699-0.969,1.426-1.372,2.178c-0.402,0.753-0.672,1.471-0.81,2.154
		C35.134,95.918,35.267,96.438,35.67,96.796z"/>
</g>
<text transform="matrix(0.6706 0.2607 -0.3624 0.932 47.6143 107.751)" fill="#505050" font-family="'ILoveGlitter'" font-size="48.8211">n</text>
<g enable-background="new    ">
	<path fill="none" stroke="#505050" stroke-miterlimit="10" d="M52.695,94.588c0.095-0.242,0.24-0.422,0.436-0.537
		c0.195-0.115,0.392-0.137,0.587-0.061c0.175,0.068,0.276,0.213,0.304,0.433s0.009,0.476-0.053,0.766
		c-0.149,0.641-0.328,1.34-0.532,2.097c-0.208,0.758-0.414,1.465-0.618,2.118c0.3-0.512,0.686-1.165,1.159-1.959
		c0.472-0.794,0.967-1.554,1.488-2.276c0.519-0.723,1.034-1.317,1.542-1.784c0.507-0.466,0.947-0.627,1.318-0.482
		c0.263,0.102,0.409,0.334,0.445,0.696c0.034,0.363,0.001,0.822-0.101,1.376c-0.103,0.554-0.253,1.185-0.454,1.892
		c-0.2,0.709-0.394,1.463-0.578,2.264c-0.283,1.112-0.542,2.234-0.782,3.363c-0.238,1.13-0.413,2.179-0.526,3.148
		c-0.114,0.969-0.134,1.78-0.062,2.437c0.071,0.656,0.292,1.057,0.663,1.201c0.59,0.229,1.351,0.08,2.285-0.448
		c0.933-0.527,1.933-1.256,2.999-2.186c1.065-0.93,2.132-1.965,3.204-3.103c1.07-1.137,2.043-2.218,2.918-3.239
		c0.26-0.283,0.522-0.374,0.784-0.271c0.175,0.067,0.283,0.225,0.327,0.468c0.042,0.244,0.018,0.487-0.077,0.729
		c-0.024,0.061-0.073,0.155-0.148,0.283c-0.074,0.128-0.266,0.359-0.57,0.694c-0.75,0.827-1.662,1.815-2.738,2.97
		c-1.077,1.152-2.189,2.222-3.338,3.206c-1.15,0.985-2.288,1.765-3.415,2.339c-1.13,0.574-2.107,0.7-2.937,0.377
		c-0.523-0.203-0.896-0.618-1.118-1.246c-0.221-0.626-0.33-1.377-0.33-2.25c0.001-0.872,0.079-1.836,0.239-2.893
		c0.159-1.056,0.354-2.122,0.585-3.203c0.232-1.079,0.485-2.134,0.759-3.162c0.274-1.027,0.511-1.957,0.708-2.789
		c-0.684,0.853-1.372,1.833-2.067,2.941c-0.696,1.109-1.356,2.224-1.979,3.343c-0.624,1.12-1.19,2.201-1.694,3.244
		c-0.507,1.043-0.912,1.924-1.217,2.644c-0.245,0.499-0.574,0.702-0.99,0.609c-0.394-0.152-0.5-0.525-0.319-1.119
		c0.548-1.602,1.022-3.016,1.421-4.239c0.401-1.224,0.827-2.577,1.279-4.061C51.952,97.434,52.351,95.991,52.695,94.588z"/>
</g>
<text transform="matrix(0.7158 0.0727 -0.1011 0.9949 70.0278 115.0488)" fill="#505050" font-family="'ILoveGlitter'" font-size="48.8211">e</text>
<g enable-background="new    ">
	<path fill="none" stroke="#505050" stroke-miterlimit="10" d="M74.046,115.457c-0.81-0.083-1.445-0.491-1.908-1.225
		c-0.461-0.734-0.796-1.676-1.006-2.826c-0.211-1.15-0.308-2.428-0.293-3.834c0.016-1.404,0.096-2.836,0.243-4.293
		c0.083-0.809,0.195-1.566,0.337-2.272c0.141-0.704,0.314-1.317,0.519-1.836c0.204-0.52,0.449-0.919,0.734-1.202
		c0.284-0.281,0.601-0.404,0.947-0.369c0.392,0.039,0.745,0.402,1.061,1.089c0.314,0.687,0.41,1.759,0.285,3.219
		c-0.104,1.036-0.37,2.253-0.791,3.649c-0.422,1.396-1.023,2.955-1.804,4.674c0.139,0.932,0.353,1.697,0.641,2.299
		s0.699,0.93,1.232,0.984c0.63,0.064,1.324-0.283,2.084-1.04c0.759-0.757,1.528-1.726,2.308-2.906
		c0.778-1.18,1.533-2.462,2.262-3.844s1.379-2.681,1.95-3.899c0.176-0.342,0.404-0.499,0.683-0.471
		c0.187,0.02,0.334,0.141,0.44,0.363c0.105,0.225,0.147,0.465,0.121,0.725c-0.007,0.064-0.03,0.169-0.067,0.312
		c-0.038,0.143-0.16,0.418-0.366,0.821c-0.501,0.997-1.118,2.192-1.849,3.591c-0.729,1.398-1.518,2.725-2.363,3.98
		s-1.735,2.311-2.669,3.164C75.842,115.165,74.932,115.547,74.046,115.457z M72.387,104.345c-0.039,0.388-0.079,0.785-0.12,1.189
		c-0.042,0.405-0.062,0.82-0.057,1.245c0.776-2.08,1.23-3.768,1.361-5.062c0.042-0.65,0.031-1.15-0.031-1.5
		c-0.063-0.35-0.116-0.56-0.158-0.629c-0.298,0.459-0.513,1.117-0.645,1.971C72.607,102.412,72.49,103.341,72.387,104.345z"/>
</g>
<text transform="matrix(0.7179 -0.0487 0.0677 0.9977 86.2788 116.0703)" fill="#505050" font-family="'ILoveGlitter'" font-size="48.8211"> </text>
<text transform="matrix(0.7179 -0.0487 0.0677 0.9977 86.2788 116.0703)" fill="none" stroke="#505050" stroke-miterlimit="10" font-family="'ILoveGlitter'" font-size="48.8211"> </text>
<text transform="matrix(0.6783 -0.24 0.3336 0.9427 99.7993 115.293)" fill="#505050" font-family="'ILoveGlitter'" font-size="48.8211">m</text>
<g enable-background="new    ">
	<path fill="none" stroke="#505050" stroke-miterlimit="10" d="M98.64,106.33c-0.097-0.484-0.236-1.212-0.419-2.183
		c-0.182-0.971-0.329-1.964-0.438-2.978c-0.111-1.014-0.142-1.926-0.094-2.738c0.049-0.811,0.272-1.286,0.669-1.427
		c0.464-0.164,0.961,0.048,1.492,0.636c0.531,0.589,1.051,1.321,1.56,2.194c0.507,0.873,0.968,1.772,1.382,2.695
		c0.413,0.924,0.741,1.62,0.98,2.087c-0.085-0.592-0.213-1.392-0.384-2.401s-0.304-2.016-0.397-3.019
		c-0.095-1.003-0.111-1.894-0.053-2.675c0.06-0.779,0.276-1.236,0.652-1.369c0.265-0.094,0.528-0.015,0.792,0.237
		c0.263,0.252,0.537,0.621,0.82,1.107c0.284,0.486,0.581,1.063,0.892,1.73s0.656,1.365,1.039,2.093
		c0.513,1.027,1.047,2.046,1.604,3.057c0.557,1.013,1.108,1.921,1.655,2.729c0.546,0.809,1.062,1.438,1.543,1.887
		c0.482,0.451,0.911,0.611,1.287,0.478c0.596-0.211,1.075-0.821,1.438-1.829c0.364-1.01,0.646-2.215,0.846-3.613
		c0.2-1.4,0.334-2.88,0.403-4.441c0.068-1.56,0.101-3.014,0.097-4.358c0.014-0.384,0.152-0.624,0.417-0.718
		c0.177-0.062,0.361-0.015,0.553,0.142c0.192,0.156,0.332,0.358,0.419,0.603c0.021,0.062,0.045,0.165,0.072,0.312
		c0.027,0.146,0.033,0.445,0.021,0.899c-0.028,1.114-0.074,2.46-0.137,4.035c-0.063,1.576-0.209,3.113-0.438,4.609
		s-0.582,2.828-1.062,4c-0.479,1.172-1.139,1.904-1.978,2.201c-0.53,0.188-1.083,0.117-1.66-0.216
		c-0.577-0.329-1.149-0.826-1.72-1.489c-0.568-0.66-1.138-1.441-1.706-2.347c-0.567-0.903-1.117-1.841-1.646-2.811
		c-0.528-0.969-1.025-1.933-1.488-2.891c-0.464-0.958-0.892-1.816-1.284-2.575c0.038,1.092,0.156,2.284,0.354,3.578
		c0.197,1.295,0.424,2.568,0.682,3.823c0.259,1.256,0.535,2.444,0.833,3.564c0.297,1.12,0.564,2.052,0.803,2.796
		c0.163,0.6,0.045,0.969-0.353,1.109c-0.11,0.039-0.259,0.04-0.446,0.003c-0.188-0.038-0.389-0.259-0.607-0.666
		c-0.293-0.828-0.701-1.84-1.224-3.036c-0.522-1.195-1.092-2.419-1.708-3.668s-1.241-2.453-1.873-3.609
		c-0.634-1.157-1.201-2.096-1.705-2.815c-0.025,0.77,0.057,1.811,0.248,3.123c0.191,1.313,0.422,2.683,0.689,4.106
		c0.268,1.425,0.55,2.801,0.846,4.129c0.297,1.328,0.553,2.402,0.769,3.223c0.141,0.538,0.023,0.908-0.353,1.109
		c-0.397,0.141-0.722-0.072-0.973-0.641c-0.629-1.57-1.192-2.951-1.688-4.141c-0.495-1.188-1.057-2.492-1.683-3.91
		s-1.267-2.771-1.92-4.059c-0.087-0.246-0.095-0.477-0.021-0.691c0.072-0.216,0.208-0.359,0.407-0.43
		c0.176-0.062,0.347-0.019,0.512,0.129c0.164,0.15,0.316,0.354,0.459,0.615c0.152,0.292,0.327,0.645,0.523,1.058
		c0.196,0.415,0.395,0.836,0.597,1.266c0.201,0.429,0.403,0.858,0.604,1.287C98.343,105.666,98.509,106.032,98.64,106.33z"/>
</g>
<text transform="matrix(0.5863 -0.417 0.5796 0.8149 126.6948 103.4404)" fill="#505050" font-family="'ILoveGlitter'" font-size="48.8211">.</text>
<g enable-background="new    ">
	<path fill="none" stroke="#505050" stroke-miterlimit="10" d="M127.046,101.633c-0.075-0.187-0.131-0.306-0.169-0.359
		c-0.019-0.026-0.062-0.064-0.128-0.119c-0.065-0.052-0.128-0.098-0.185-0.138c-0.207-0.171-0.35-0.381-0.424-0.626
		c-0.075-0.247-0.064-0.465,0.031-0.652c0.097-0.188,0.249-0.287,0.458-0.297c0.21-0.008,0.418,0.073,0.626,0.244
		c0.342,0.277,0.568,0.495,0.682,0.654s0.272,0.426,0.479,0.797c0.113,0.24,0.154,0.45,0.125,0.631
		c-0.028,0.181-0.111,0.318-0.244,0.413l-0.115,0.081c-0.189,0.057-0.398,0.025-0.626-0.094
		C127.33,102.051,127.16,101.873,127.046,101.633z"/>
</g>
<text transform="matrix(0.5234 -0.4937 0.6862 0.7274 133.4438 98.3867)" fill="#505050" font-family="'ILoveGlitter'" font-size="48.8211"> </text>
<text transform="matrix(0.5234 -0.4937 0.6862 0.7274 133.4438 98.3867)" fill="none" stroke="#505050" stroke-miterlimit="10" font-family="'ILoveGlitter'" font-size="48.8211"> </text>
<text transform="matrix(0.3517 -0.6277 0.8724 0.4888 143.522 88.4043)" fill="#505050" font-family="'ILoveGlitter'" font-size="48.8211">z</text>
<g enable-background="new    ">
	<path fill="none" stroke="#505050" stroke-miterlimit="10" d="M146.412,79.354c0.309-0.552,0.261-1.33-0.146-2.337
		c-0.406-1.006-0.996-2.102-1.769-3.286c-0.771-1.184-1.647-2.386-2.625-3.604c-0.977-1.219-1.911-2.332-2.801-3.341
		c-0.243-0.298-0.297-0.569-0.16-0.814c0.092-0.163,0.262-0.249,0.51-0.259c0.247-0.008,0.485,0.051,0.712,0.178
		c0.058,0.032,0.143,0.095,0.26,0.186c0.116,0.093,0.318,0.313,0.607,0.663c0.471,0.559,1.019,1.215,1.642,1.967
		c0.623,0.751,1.243,1.542,1.86,2.371c0.618,0.829,1.206,1.676,1.767,2.54s1.028,1.71,1.403,2.537
		c0.376,0.829,0.615,1.601,0.719,2.315c0.103,0.716,0.011,1.328-0.274,1.839c-0.378,0.675-0.886,1.229-1.521,1.665
		s-1.272,0.823-1.911,1.164c0.65,1.17,0.747,2.163,0.289,2.98c-0.354,0.633-0.853,1.006-1.493,1.115
		c-0.641,0.112-1.272-0.008-1.897-0.358c-0.652-0.365-1.087-0.855-1.301-1.473c-0.214-0.616-0.189-1.159,0.074-1.63
		c0.16-0.286,0.413-0.54,0.762-0.761c0.348-0.222,0.752-0.444,1.214-0.669c-0.532-0.647-1.094-1.284-1.682-1.908
		c-0.588-0.625-1.187-1.249-1.794-1.871c-0.607-0.623-1.2-1.257-1.776-1.901s-1.11-1.333-1.601-2.065
		c0.005,0.059-0.021,0.137-0.078,0.239c-0.332,0.593-0.745,1.038-1.241,1.337c-0.496,0.3-0.986,0.556-1.471,0.768
		c-0.382,0.162-0.704,0.33-0.966,0.506c-0.262,0.174-0.463,0.385-0.601,0.629c-0.389,0.695-0.201,1.404,0.562,2.128
		c0.411,0.31,0.523,0.629,0.341,0.955c-0.092,0.164-0.255,0.261-0.489,0.29c-0.235,0.029-0.464-0.018-0.687-0.143
		c-0.417-0.234-0.755-0.524-1.017-0.872s-0.447-0.714-0.56-1.099s-0.162-0.769-0.149-1.15c0.014-0.382,0.106-0.726,0.278-1.032
		c0.206-0.368,0.504-0.671,0.893-0.909c0.388-0.238,0.798-0.465,1.229-0.681c0.432-0.215,0.843-0.447,1.237-0.696
		c0.395-0.248,0.707-0.576,0.937-0.985c0.229-0.408,0.327-0.849,0.294-1.324c-0.032-0.475,0.049-0.886,0.243-1.233
		c0.092-0.163,0.251-0.262,0.475-0.298c0.226-0.034,0.451,0.012,0.678,0.139c0.398,0.223,0.599,0.497,0.604,0.821
		c0.287,0.886,0.723,1.74,1.307,2.563c0.583,0.823,1.241,1.629,1.975,2.416c0.734,0.787,1.485,1.563,2.25,2.327
		c0.767,0.765,1.483,1.549,2.151,2.353c0.565-0.273,1.09-0.597,1.578-0.968C145.738,80.305,146.125,79.864,146.412,79.354z
		 M143.286,85.132c0.183-0.327,0.177-0.747-0.021-1.261c-0.268,0.146-0.508,0.293-0.723,0.441c-0.214,0.148-0.367,0.305-0.459,0.468
		c-0.144,0.456-0.088,0.756,0.168,0.899c0.126,0.043,0.289,0.034,0.491-0.027S143.125,85.418,143.286,85.132z"/>
</g>
<text transform="matrix(0.134 -0.7069 0.9825 0.1862 153.5464 65.8887)" fill="#505050" font-family="'ILoveGlitter'" font-size="48.8211">.</text>
<g enable-background="new    ">
	<path fill="none" stroke="#505050" stroke-miterlimit="10" d="M152.548,64.342c-0.184-0.083-0.307-0.131-0.371-0.143
		c-0.031-0.006-0.09-0.004-0.174,0.003c-0.085,0.009-0.162,0.018-0.229,0.028c-0.269,0.021-0.516-0.032-0.741-0.158
		c-0.225-0.126-0.366-0.29-0.428-0.492c-0.061-0.202-0.019-0.379,0.125-0.531c0.146-0.15,0.352-0.236,0.621-0.258
		c0.438-0.035,0.752-0.036,0.943,0c0.192,0.037,0.492,0.118,0.899,0.242c0.247,0.095,0.422,0.218,0.526,0.368
		c0.104,0.151,0.141,0.308,0.11,0.468l-0.026,0.139c-0.099,0.172-0.271,0.294-0.518,0.366
		C153.041,64.447,152.795,64.436,152.548,64.342z"/>
</g>
</svg>
