<?xml version="1.0" encoding="utf-8"?>
<!-- Generator: Adobe Illustrator 16.0.0, SVG Export Plug-In . SVG Version: 6.00 Build 0)  -->
<!DOCTYPE svg PUBLIC "-//W3C//DTD SVG 1.1//EN" "http://www.w3.org/Graphics/SVG/1.1/DTD/svg11.dtd">
<svg version="1.1" xmlns="http://www.w3.org/2000/svg" xmlns:xlink="http://www.w3.org/1999/xlink" x="0px" y="0px" width="112px"
	 height="43px" viewBox="-36.25 46.708 112 43" enable-background="new -36.25 46.708 112 43" xml:space="preserve">
<g id="Open" display="none">
	<g id="open_1_" display="inline">
		<path fill="#FFFFFF" d="M52.723,87.88c4.201,1.419,6.148,0.244,6.148,0.244c1.933,0.511,3.515-1.214,3.515-1.214
			c3.035-2.994,6.013-13.319,6.013-13.319c1.43-3.115,4.809-6.359,4.809-6.359c0.84-1.932-1.679-1.654-1.679-1.654
			c-1.298-0.075-5.19,4.503-5.19,4.503s-3.183,1.289-2.947-1.935l0.021-0.25l1.929-16.532c-1.438-3.321-3.023-0.057-3.023-0.057
			L58.9,67.809v0.315l-1.947-18.256c0,0-1.566-3.479-2.947-0.368l0.711,20.003l-5.388-16.448c0,0-1.717-3.054-2.509,0.564
			l2.722,17.333l-5.909-12.121c0,0-2.174-1.907-2.153,0.922l4.883,14.109C46.859,82.879,52.723,87.88,52.723,87.88z"/>
	</g>
	<g id="base_4_" display="inline">
		<path fill="none" stroke="#505050" stroke-width="2" stroke-linecap="round" stroke-linejoin="round" d="M52.723,87.643
			c0,0-5.649-3.153-6.36-14.019"/>
	</g>
	<g id="fingers_down">
		
			<path display="inline" fill="none" stroke="#000000" stroke-width="3" stroke-linecap="round" stroke-linejoin="round" stroke-miterlimit="10" d="
			M4.119,58.86c0,0-0.854-16.121,6.945-14.302c0,0,5.759,4.854,8.042,11.241c0,0,3.327,5.371,1.31,7.271
			c0,0-4.999,1.224-5.375-5.187c0,0-3.244-3.551-5.318-6.69c0,0,1.522,1.279-0.725,5.608"/>
		
			<path display="inline" fill="none" stroke="#000000" stroke-width="3" stroke-linecap="round" stroke-linejoin="round" stroke-miterlimit="10" d="
			M12.578,44.689c0,0,3.937-14.629,8.485-8.979c0,0,3.026,4.106,5.858,10.791"/>
		
			<path display="inline" fill="none" stroke="#000000" stroke-width="3" stroke-linecap="round" stroke-linejoin="round" stroke-miterlimit="10" d="
			M47.54,58.286c-0.521-9.473-4.735-11.789-4.735-11.789"/>
		
			<path display="inline" fill="none" stroke="#000000" stroke-width="3" stroke-linecap="round" stroke-linejoin="round" stroke-miterlimit="10" d="
			M28.269,51.613c0,0,0.814,8.88-4.638,3.839c0,0-1.276-2.354-1.536-4.271c0,0-3.598-6.11-4.206-7.74c0,0,2.476,3.642,0,8.677"/>
		
			<line display="inline" fill="none" stroke="#000000" stroke-width="3" stroke-linecap="round" stroke-linejoin="round" stroke-miterlimit="10" x1="39.514" y1="59.284" x2="38.145" y2="53.066"/>
		
			<path display="inline" fill="none" stroke="#000000" stroke-width="3" stroke-linecap="round" stroke-linejoin="round" stroke-miterlimit="10" d="
			M47.54,58.286c-0.521-9.473-4.735-11.789-4.735-11.789c-6.071,1.35-17.226,0.256-17.226,0.256
			c-0.374,8.306,13.882,6.068,13.882,6.068"/>
		
			<path display="inline" fill="none" stroke="#000000" stroke-width="3" stroke-linecap="round" stroke-linejoin="round" stroke-miterlimit="10" d="
			M31.436,90.002c4.22,1.117,7.675-2.648,7.675-2.648c6.63-6.539,8.162-21.859,8.162-21.859c0.314-2.771,0.377-5.158,0.265-7.209"/>
		
			<path display="inline" fill="none" stroke="#000000" stroke-width="3" stroke-linecap="round" stroke-linejoin="round" stroke-miterlimit="10" d="
			M35.581,63.833c0,0-6.559,8.746-3.859,16.875"/>
	</g>
	<g id="crossed">
		
			<line display="inline" fill="none" stroke="#000000" stroke-width="3" stroke-linecap="round" stroke-linejoin="round" stroke-miterlimit="10" x1="33.327" y1="40.586" x2="32.345" y2="44.006"/>
		
			<path display="inline" fill="none" stroke="#000000" stroke-width="3" stroke-linecap="round" stroke-linejoin="round" stroke-miterlimit="10" d="
			M24.9,42.297l5.169-15.463"/>
		
			<path display="inline" fill="none" stroke="#000000" stroke-width="3" stroke-linecap="round" stroke-linejoin="round" stroke-miterlimit="10" d="
			M34.655,43.57l-8.498-31.019c0,0,0.117-9.423,6.718-3.203L45.73,50.35"/>
		
			<path display="inline" fill="none" stroke="#000000" stroke-width="3" stroke-linecap="round" stroke-linejoin="round" stroke-miterlimit="10" d="
			M38.827,28.336L45.023,9.11c0,0-0.11-9.312-6.301-3.165l-3.744,10.126"/>
	</g>
	<g id="open_3_" display="inline">
		<path fill="none" stroke="#505050" stroke-width="2" stroke-linecap="round" stroke-linejoin="round" d="M58.9,67.571
			l3.416-16.503c0,0,1.586-3.264,3.023,0.057l-1.929,16.534"/>
		<path fill="none" stroke="#505050" stroke-width="2" stroke-linecap="round" stroke-linejoin="round" d="M54.896,67.886
			l-0.881-18.393c1.371-3.344,2.938,0.135,2.938,0.135L58.9,67.886"/>
		<path fill="none" stroke="#505050" stroke-width="2" stroke-linecap="round" stroke-linejoin="round" d="M50.078,69.339
			L46.82,53.38c0.791-3.615,2.509-0.563,2.509-0.563l4.866,16.314"/>
		<path fill="none" stroke="#505050" stroke-width="2" stroke-linecap="round" stroke-linejoin="round" d="M46.073,73.47
			l-4.594-13.955c-0.021-2.83,2.153-0.923,2.153-0.923l5.909,12.123"/>
		<path fill="none" stroke="#505050" stroke-width="2" stroke-linecap="round" stroke-linejoin="round" d="M58.871,87.884
			c1.933,0.512,3.515-1.211,3.515-1.211c3.035-2.996,6.013-13.321,6.013-13.321c1.43-3.114,4.809-6.358,4.809-6.358
			c0.84-1.932-1.679-1.654-1.679-1.654c-1.298-0.076-5.19,4.503-5.19,4.503s-3.183,1.287-2.947-1.938"/>
		<path fill="none" stroke="#505050" stroke-width="2" stroke-linecap="round" stroke-linejoin="round" d="M61.791,74.661
			c0,0-3.791,3.269-3.382,7.169"/>
	</g>
	<g id="Layer_4">
		
			<line display="inline" fill="none" stroke="#000000" stroke-width="3" stroke-linecap="round" stroke-linejoin="round" stroke-miterlimit="10" x1="33.328" y1="40.564" x2="32.346" y2="43.984"/>
		
			<path display="inline" fill="none" stroke="#000000" stroke-width="3" stroke-linecap="round" stroke-linejoin="round" stroke-miterlimit="10" d="
			M38.83,28.316l6.902,22.013"/>
		
			<path display="inline" fill="none" stroke="#000000" stroke-width="3" stroke-linecap="round" stroke-linejoin="round" stroke-miterlimit="10" d="
			M38.83,28.316"/>
		
			<path display="inline" fill="none" stroke="#000000" stroke-width="3" stroke-linecap="round" stroke-linejoin="round" stroke-miterlimit="10" d="
			M30.125,26.708l-3.967-14.179c0,0,0.117-9.423,6.718-3.203l1.974,6.294"/>
		
			<path display="inline" fill="none" stroke="#000000" stroke-width="3" stroke-linecap="round" stroke-linejoin="round" stroke-miterlimit="10" d="
			M34.656,43.548l-0.835-3.049"/>
		
			<path display="inline" fill="none" stroke="#000000" stroke-width="3" stroke-linecap="round" stroke-linejoin="round" stroke-miterlimit="10" d="
			M33.328,40.564L45.025,9.089c0,0-0.111-9.312-6.301-3.165L24.9,42.275"/>
	</g>
	<g id="Layer_2" display="inline">
	</g>
</g>
<g id="crossed_2_">
	<path fill="#FFFFFF" d="M52.922,88.106c0,0-11.137-10.778-4.651-20.863l1.846,0.019c0,0,2.326-5.524,3.231-4.635l2.411,3.075
		l2.366-5.721l-1.791-7.437c0,0,0.21-4.166,3.284-1.341l0.756,2.441l1.715-4.125c0,0,2.572-2.828,2.885,1.448l-2.836,8.118
		l2.308,8.051l1.594,5.384c0,0,0.449,15.515-7.288,15.49C58.751,88.01,56.051,88.529,52.922,88.106z"/>
	<g id="base_1_">
		<path fill="none" stroke="#505050" stroke-width="2" stroke-linecap="round" stroke-linejoin="round" d="M52.682,87.769
			c0,0-5.65-3.149-6.361-14.018"/>
	</g>
	<g id="fingers_down_1_">
		<path fill="none" stroke="#505050" stroke-width="2" stroke-linecap="round" stroke-linejoin="round" d="M46.32,73.751
			c0,0-0.393-7.381,3.18-6.549c0,0,2.637,2.224,3.683,5.148c0,0,1.523,2.459,0.601,3.328c0,0-2.29,0.562-2.462-2.374
			c0,0-1.485-1.627-2.436-3.064c0,0,0.696,0.586-0.333,2.567"/>
		<path fill="none" stroke="#505050" stroke-width="2" stroke-linecap="round" stroke-linejoin="round" d="M50.193,67.263
			c0,0,1.803-6.699,3.885-4.112c0,0,1.386,1.88,2.684,4.941"/>
		<path fill="none" stroke="#505050" stroke-width="2" stroke-linecap="round" stroke-linejoin="round" d="M66.203,73.488
			c-0.24-4.337-2.17-5.397-2.17-5.397"/>
		<path fill="none" stroke="#505050" stroke-width="2" stroke-linecap="round" stroke-linejoin="round" d="M57.378,70.433
			c0,0,0.372,4.067-2.123,1.759c0,0-0.585-1.079-0.703-1.955c0,0-1.649-2.798-1.927-3.545c0,0,1.135,1.667,0,3.974"/>
		
			<line fill="none" stroke="#505050" stroke-width="2" stroke-linecap="round" stroke-linejoin="round" x1="62.527" y1="73.947" x2="61.9" y2="71.098"/>
		<path fill="none" stroke="#505050" stroke-width="2" stroke-linecap="round" stroke-linejoin="round" d="M66.203,73.488
			c-0.24-4.337-2.17-5.397-2.17-5.397c-2.779,0.619-7.887,0.117-7.887,0.117c-0.171,3.805,6.357,2.778,6.357,2.778"/>
		<path fill="none" stroke="#505050" stroke-width="2" stroke-linecap="round" stroke-linejoin="round" d="M58.828,88.012
			c1.934,0.511,3.516-1.213,3.516-1.213c3.035-2.994,3.736-10.01,3.736-10.01c0.145-1.269,0.173-2.36,0.122-3.302"/>
		<path fill="none" stroke="#505050" stroke-width="2" stroke-linecap="round" stroke-linejoin="round" d="M60.727,76.03
			c0,0-3.004,4.003-1.766,7.728"/>
	</g>
	<g id="crossed_1_">
		
			<line fill="none" stroke="#505050" stroke-width="2" stroke-linecap="round" stroke-linejoin="round" x1="59.695" y1="65.384" x2="59.245" y2="66.95"/>
		<path fill="none" stroke="#505050" stroke-width="2" stroke-linecap="round" stroke-linejoin="round" d="M55.836,66.167
			l2.366-7.08"/>
		<path fill="none" stroke="#505050" stroke-width="2" stroke-linecap="round" stroke-linejoin="round" d="M60.303,66.75
			l-3.892-14.202c0,0,0.054-4.317,3.076-1.468l5.887,18.775"/>
		<path fill="none" stroke="#505050" stroke-width="2" stroke-linecap="round" stroke-linejoin="round" d="M62.213,59.776
			l2.837-8.805c0,0-0.05-4.264-2.886-1.451l-1.713,4.639"/>
	</g>
</g>
<g id="name">
	<path fill="none" stroke="#505050" stroke-miterlimit="10" d="M23.001,70.638c0,0.518-0.419,0.938-0.937,0.938
		c-0.521,0-0.94-0.421-0.94-0.938c0-0.519,0.42-0.941,0.94-0.941C22.583,69.701,23.001,70.12,23.001,70.638z"/>
	<path fill="none" stroke="#505050" stroke-width="1.5" stroke-linecap="round" stroke-linejoin="round" d="M-33.894,84.583
		c5.878,13.169,6.638-12.218,6.26-21.427"/>
	<path fill="none" stroke="#505050" stroke-miterlimit="10" d="M-27.077,57.374c0,0.519-0.42,0.941-0.939,0.941
		c-0.519,0-0.938-0.423-0.938-0.941c0-0.521,0.421-0.939,0.938-0.939C-27.496,56.434-27.077,56.853-27.077,57.374z"/>
	<path fill="none" stroke="#505050" stroke-width="1.5" stroke-linecap="round" stroke-linejoin="round" stroke-miterlimit="10" d="
		M18.801,71.502c0,0-3.049-11.843-4.101-11.946c-1.053-0.102-1.056,10.672-2.051,10.859c-0.996,0.183-2.847-8.249-4.733-8.225
		c-1.886,0.021,0,9.311,0,9.311"/>
	<path fill="none" stroke="#505050" stroke-width="1.5" stroke-linecap="round" stroke-linejoin="round" stroke-miterlimit="10" d="
		M23.021,59.724c0,0,11.291-5.017,5.801,5.018l-2.146,5.017c0,0-1.303,2.669,2.305,1.57l4.231-2.039"/>
	<path fill="none" stroke="#505050" stroke-width="1.5" stroke-linecap="round" stroke-linejoin="round" stroke-miterlimit="10" d="
		M23.963,65.032c0,0,6.428-0.494,7.525,0"/>
	<path fill="none" stroke="#505050" stroke-width="1.5" stroke-linecap="round" stroke-linejoin="round" stroke-miterlimit="10" d="
		M-27.585,75.728"/>
	<path fill="none" stroke="#505050" stroke-width="1.5" stroke-linecap="round" stroke-linejoin="round" d="M-9.555,71.092
		c0.901-0.484,8.947-5.662,8.062-8.184c-2.013-5.736-10.338,11.123-1.142,9.346"/>
	<path fill="none" stroke="#505050" stroke-width="1.5" stroke-linecap="round" stroke-linejoin="round" d="M-18.387,71.804
		c0.071-2.667,0.184-5.339-0.863-7.952"/>
	<path fill="none" stroke="#505050" stroke-width="1.5" stroke-linecap="round" stroke-linejoin="round" d="M-18.858,69.474
		C-35.437,77.022-16.975,52.05-18.858,69.474"/>
	<path fill="none" stroke="#505050" stroke-width="1.5" stroke-linecap="round" stroke-linejoin="round" stroke-miterlimit="10" d="
		M-9.059,60.267c-1.053-0.102-1.056,10.672-2.052,10.859c-0.996,0.183-2.847-8.247-4.733-8.225c-1.886,0.021,0,9.312,0,9.312"/>
	<path fill="none" stroke="#505050" stroke-miterlimit="10" d="M37.813,70.937c0,0.521-0.42,0.94-0.939,0.94
		c-0.519,0-0.938-0.421-0.938-0.94c0-0.519,0.421-0.938,0.938-0.938C37.394,69.998,37.813,70.418,37.813,70.937z"/>
</g>
</svg>
