<?xml version="1.0" encoding="utf-8"?>
<!-- Generator: Adobe Illustrator 16.0.0, SVG Export Plug-In . SVG Version: 6.00 Build 0)  -->
<!DOCTYPE svg PUBLIC "-//W3C//DTD SVG 1.1//EN" "http://www.w3.org/Graphics/SVG/1.1/DTD/svg11.dtd">
<svg version="1.1" xmlns="http://www.w3.org/2000/svg" xmlns:xlink="http://www.w3.org/1999/xlink" x="0px" y="0px"
	 width="99.667px" height="26.166px" viewBox="-33.917 52.042 99.667 26.166" enable-background="new -33.917 52.042 99.667 26.166"
	 xml:space="preserve">
<symbol  id="crossed_x5F_hand" viewBox="-11 -20.523 22 41.047">
	<path fill="#FFFFFF" d="M-3.345-19.772c0,0-11.137,10.778-4.651,20.863l1.846-0.019c0,0,2.326,5.524,3.231,4.635l2.411-3.075
		l2.366,5.721l-1.791,7.437c0,0,0.21,4.166,3.284,1.341l0.756-2.441l1.715,4.125c0,0,2.572,2.828,2.885-1.448L5.871,9.247
		l2.308-8.051l1.594-5.384c0,0,0.449-15.515-7.288-15.49C2.484-19.677-0.216-20.195-3.345-19.772z"/>
	<g id="base_2_">
		<path fill="none" stroke="#505050" stroke-width="1.5" stroke-linecap="round" stroke-linejoin="round" d="M-3.585-19.436
			c0,0-5.65,3.149-6.361,14.018"/>
	</g>
	<g id="fingers_down_1_">
		<path fill="none" stroke="#505050" stroke-width="1.5" stroke-linecap="round" stroke-linejoin="round" d="M-9.946-5.418
			c0,0-0.393,7.381,3.18,6.549c0,0,2.637-2.224,3.683-5.148c0,0,1.523-2.459,0.601-3.328c0,0-2.29-0.562-2.462,2.374
			c0,0-1.485,1.627-2.436,3.064c0,0,0.696-0.586-0.333-2.567"/>
		<path fill="none" stroke="#505050" stroke-width="1.5" stroke-linecap="round" stroke-linejoin="round" d="M-6.073,1.07
			c0,0,1.803,6.699,3.885,4.112c0,0,1.386-1.88,2.684-4.941"/>
		<path fill="none" stroke="#505050" stroke-width="1.5" stroke-linecap="round" stroke-linejoin="round" d="M9.937-5.154
			c-0.24,4.337-2.17,5.397-2.17,5.397"/>
		<path fill="none" stroke="#505050" stroke-width="1.5" stroke-linecap="round" stroke-linejoin="round" d="M1.111-2.1
			c0,0,0.372-4.067-2.123-1.759c0,0-0.585,1.079-0.703,1.955c0,0-1.649,2.798-1.927,3.545c0,0,1.135-1.667,0-3.974"/>
		
			<line fill="none" stroke="#505050" stroke-width="1.5" stroke-linecap="round" stroke-linejoin="round" x1="6.261" y1="-5.613" x2="5.634" y2="-2.765"/>
		<path fill="none" stroke="#505050" stroke-width="1.5" stroke-linecap="round" stroke-linejoin="round" d="M9.937-5.154
			c-0.24,4.337-2.17,5.397-2.17,5.397C4.987-0.376-0.12,0.126-0.12,0.126c-0.171-3.805,6.357-2.778,6.357-2.778"/>
		<path fill="none" stroke="#505050" stroke-width="1.5" stroke-linecap="round" stroke-linejoin="round" d="M2.562-19.679
			c1.934-0.511,3.516,1.213,3.516,1.213c3.035,2.994,3.736,10.01,3.736,10.01c0.145,1.269,0.173,2.36,0.122,3.302"/>
		<path fill="none" stroke="#505050" stroke-width="1.5" stroke-linecap="round" stroke-linejoin="round" d="M4.46-7.696
			c0,0-3.004-4.003-1.766-7.728"/>
	</g>
	<g id="crossed_1_">
		
			<line fill="none" stroke="#505050" stroke-width="1.5" stroke-linecap="round" stroke-linejoin="round" x1="3.429" y1="2.949" x2="2.979" y2="1.384"/>
		<path fill="none" stroke="#505050" stroke-width="1.5" stroke-linecap="round" stroke-linejoin="round" d="M-0.431,2.166
			l2.366,7.08"/>
		<path fill="none" stroke="#505050" stroke-width="1.5" stroke-linecap="round" stroke-linejoin="round" d="M4.036,1.584
			L0.145,15.786c0,0,0.054,4.317,3.076,1.468L9.107-1.521"/>
		<path fill="none" stroke="#505050" stroke-width="1.5" stroke-linecap="round" stroke-linejoin="round" d="M5.946,8.558
			l2.837,8.805c0,0-0.05,4.264-2.886,1.451l-1.713-4.639"/>
	</g>
	<polygon display="none" fill="none" points="-11,20 11,20 11,-20 -11,-20 	"/>
</symbol>
<symbol  id="open_x5F_hand" viewBox="-17 -20.719 34 41.438">
	<g id="open_2_">
		<path fill="#FFFFFF" d="M-4.707-19.87c4.201-1.419,6.148-0.244,6.148-0.244C3.374-20.625,4.956-18.9,4.956-18.9
			c3.035,2.994,6.013,13.319,6.013,13.319c1.43,3.115,4.809,6.359,4.809,6.359c0.84,1.932-1.679,1.654-1.679,1.654
			c-1.298,0.075-5.19-4.503-5.19-4.503S5.726-3.359,5.961-0.136l0.021,0.25L7.91,16.646c-1.438,3.321-3.259,0.057-3.259,0.057
			L1,0.201v-0.315l-1.712,18.256c0,0-1.448,3.479-2.829,0.368l0.77-20.003L-8.13,14.955c0,0-1.702,3.054-2.494-0.564l2.729-17.333
			l-5.906,12.121c0,0-2.172,1.907-2.151-0.922l4.884-14.109C-10.571-14.869-4.707-19.87-4.707-19.87z"/>
	</g>
	<g id="base_1_">
		<path fill="none" stroke="#505050" stroke-width="1.5" stroke-linecap="round" stroke-linejoin="round" d="M-4.707-19.633
			c0,0-5.649,3.153-6.36,14.019"/>
	</g>
	<g id="open_1_">
		<path fill="none" stroke="#505050" stroke-width="1.5" stroke-linecap="round" stroke-linejoin="round" d="M1.471,0.439
			l3.416,16.503c0,0,1.586,3.264,3.023-0.057L5.981,0.352"/>
		<path fill="none" stroke="#505050" stroke-width="1.5" stroke-linecap="round" stroke-linejoin="round" d="M-2.533,0.124
			l-0.881,18.393c1.371,3.344,2.938-0.135,2.938-0.135L1.471,0.124"/>
		<path fill="none" stroke="#505050" stroke-width="1.5" stroke-linecap="round" stroke-linejoin="round" d="M-7.352-1.329
			l-3.258,15.959c0.791,3.615,2.509,0.563,2.509,0.563l4.866-16.314"/>
		<path fill="none" stroke="#505050" stroke-width="1.5" stroke-linecap="round" stroke-linejoin="round" d="M-11.356-5.46
			L-15.95,8.495c-0.021,2.83,2.153,0.923,2.153,0.923l5.909-12.123"/>
		<path fill="none" stroke="#505050" stroke-width="1.5" stroke-linecap="round" stroke-linejoin="round" d="M1.441-19.874
			c1.933-0.512,3.515,1.211,3.515,1.211c3.035,2.996,6.013,13.321,6.013,13.321c1.43,3.114,4.809,6.358,4.809,6.358
			c0.84,1.932-1.679,1.654-1.679,1.654c-1.298,0.076-5.19-4.503-5.19-4.503S5.726-3.119,5.961,0.105"/>
		<path fill="none" stroke="#505050" stroke-width="1.5" stroke-linecap="round" stroke-linejoin="round" d="M4.361-6.65
			c0,0-3.791-3.269-3.382-7.169"/>
	</g>
	<polygon display="none" fill="none" points="-17,20 17,20 17,-20 -17,-20 	"/>
</symbol>
<g id="Open">
	<g id="fingers_down" display="none">
		
			<path display="inline" fill="none" stroke="#000000" stroke-width="3" stroke-linecap="round" stroke-linejoin="round" stroke-miterlimit="10" d="
			M4.119,58.86c0,0-0.854-16.121,6.945-14.302c0,0,5.759,4.854,8.042,11.241c0,0,3.327,5.371,1.31,7.271
			c0,0-4.999,1.224-5.375-5.187c0,0-3.244-3.551-5.318-6.69c0,0,1.522,1.279-0.725,5.608"/>
		
			<path display="inline" fill="none" stroke="#000000" stroke-width="3" stroke-linecap="round" stroke-linejoin="round" stroke-miterlimit="10" d="
			M12.578,44.689c0,0,3.937-14.629,8.485-8.979c0,0,3.026,4.106,5.858,10.791"/>
		
			<path display="inline" fill="none" stroke="#000000" stroke-width="3" stroke-linecap="round" stroke-linejoin="round" stroke-miterlimit="10" d="
			M47.54,58.286c-0.521-9.473-4.735-11.789-4.735-11.789"/>
		
			<path display="inline" fill="none" stroke="#000000" stroke-width="3" stroke-linecap="round" stroke-linejoin="round" stroke-miterlimit="10" d="
			M28.269,51.613c0,0,0.814,8.88-4.638,3.839c0,0-1.276-2.354-1.536-4.271c0,0-3.598-6.11-4.206-7.74c0,0,2.476,3.642,0,8.677"/>
		
			<line display="inline" fill="none" stroke="#000000" stroke-width="3" stroke-linecap="round" stroke-linejoin="round" stroke-miterlimit="10" x1="39.514" y1="59.284" x2="38.145" y2="53.066"/>
		
			<path display="inline" fill="none" stroke="#000000" stroke-width="3" stroke-linecap="round" stroke-linejoin="round" stroke-miterlimit="10" d="
			M47.54,58.286c-0.521-9.473-4.735-11.789-4.735-11.789c-6.071,1.35-17.226,0.256-17.226,0.256
			c-0.374,8.306,13.882,6.068,13.882,6.068"/>
		
			<path display="inline" fill="none" stroke="#000000" stroke-width="3" stroke-linecap="round" stroke-linejoin="round" stroke-miterlimit="10" d="
			M31.436,90.002c4.22,1.117,7.675-2.648,7.675-2.648c6.63-6.539,8.162-21.859,8.162-21.859c0.314-2.771,0.377-5.158,0.265-7.209"/>
		
			<path display="inline" fill="none" stroke="#000000" stroke-width="3" stroke-linecap="round" stroke-linejoin="round" stroke-miterlimit="10" d="
			M35.581,63.833c0,0-6.559,8.746-3.859,16.875"/>
	</g>
	<g id="crossed" display="none">
		
			<line display="inline" fill="none" stroke="#000000" stroke-width="3" stroke-linecap="round" stroke-linejoin="round" stroke-miterlimit="10" x1="33.327" y1="40.586" x2="32.345" y2="44.006"/>
		
			<path display="inline" fill="none" stroke="#000000" stroke-width="3" stroke-linecap="round" stroke-linejoin="round" stroke-miterlimit="10" d="
			M24.9,42.297l5.169-15.463"/>
		
			<path display="inline" fill="none" stroke="#000000" stroke-width="3" stroke-linecap="round" stroke-linejoin="round" stroke-miterlimit="10" d="
			M34.655,43.57l-8.498-31.019c0,0,0.117-9.423,6.718-3.203L45.73,50.35"/>
		
			<path display="inline" fill="none" stroke="#000000" stroke-width="3" stroke-linecap="round" stroke-linejoin="round" stroke-miterlimit="10" d="
			M38.827,28.336L45.023,9.11c0,0-0.11-9.312-6.301-3.165l-3.744,10.126"/>
	</g>
	
		<use xlink:href="#open_x5F_hand"  width="34" height="41.438" id="XMLID_1_" x="-17" y="-20.719" transform="matrix(1 0 0 -1 88.75 122.0415)" overflow="visible"/>
	<g id="Layer_4" display="none">
		
			<line display="inline" fill="none" stroke="#000000" stroke-width="3" stroke-linecap="round" stroke-linejoin="round" stroke-miterlimit="10" x1="33.328" y1="40.564" x2="32.346" y2="43.984"/>
		
			<path display="inline" fill="none" stroke="#000000" stroke-width="3" stroke-linecap="round" stroke-linejoin="round" stroke-miterlimit="10" d="
			M38.83,28.316l6.902,22.013"/>
		
			<path display="inline" fill="none" stroke="#000000" stroke-width="3" stroke-linecap="round" stroke-linejoin="round" stroke-miterlimit="10" d="
			M38.83,28.316"/>
		
			<path display="inline" fill="none" stroke="#000000" stroke-width="3" stroke-linecap="round" stroke-linejoin="round" stroke-miterlimit="10" d="
			M30.125,26.708l-3.967-14.179c0,0,0.117-9.423,6.718-3.203l1.974,6.294"/>
		
			<path display="inline" fill="none" stroke="#000000" stroke-width="3" stroke-linecap="round" stroke-linejoin="round" stroke-miterlimit="10" d="
			M34.656,43.548l-0.835-3.049"/>
		
			<path display="inline" fill="none" stroke="#000000" stroke-width="3" stroke-linecap="round" stroke-linejoin="round" stroke-miterlimit="10" d="
			M33.328,40.564L45.025,9.089c0,0-0.111-9.312-6.301-3.165L24.9,42.275"/>
	</g>
	<g id="Layer_2">
	</g>
	<g id="open_4_">
		<path fill="#FFFFFF" d="M52.556,76.689c2.472,0.835,3.617,0.144,3.617,0.144c1.137,0.301,2.067-0.715,2.067-0.715
			c1.786-1.761,3.538-7.837,3.538-7.837c0.842-1.832,2.83-3.741,2.83-3.741c0.494-1.137-0.988-0.974-0.988-0.974
			c-0.764-0.044-3.054,2.65-3.054,2.65s-1.873,0.758-1.734-1.139l0.013-0.147l1.134-9.727C59.133,53.25,58.2,55.17,58.2,55.17
			l-2.01,9.709v0.186l-1.146-10.741c0,0-0.921-2.048-1.733-0.217l0.418,11.769l-3.17-9.678c0,0-1.01-1.796-1.476,0.333l1.601,10.198
			l-3.477-7.132c0,0-1.279-1.122-1.267,0.542l2.872,8.303C49.105,73.746,52.556,76.689,52.556,76.689z"/>
	</g>
	<g id="base_4_">
		<path fill="none" stroke="#505050" stroke-linecap="round" stroke-linejoin="round" d="M52.556,76.549
			c0,0-3.324-1.855-3.743-8.248"/>
	</g>
	<g id="open_3_">
		<path fill="none" stroke="#505050" stroke-linecap="round" stroke-linejoin="round" d="M56.19,64.739l2.01-9.71
			c0,0,0.933-1.92,1.778,0.033l-1.134,9.729"/>
		<path fill="none" stroke="#505050" stroke-linecap="round" stroke-linejoin="round" d="M53.835,64.925l-0.519-10.822
			c0.807-1.967,1.728,0.079,1.728,0.079l1.146,10.743"/>
		<path fill="none" stroke="#505050" stroke-linecap="round" stroke-linejoin="round" d="M50.999,65.78l-1.916-9.39
			c0.465-2.128,1.476-0.331,1.476-0.331l2.863,9.599"/>
		<path fill="none" stroke="#505050" stroke-linecap="round" stroke-linejoin="round" d="M48.644,68.21L45.94,60
			c-0.013-1.665,1.267-0.543,1.267-0.543l3.477,7.133"/>
		<path fill="none" stroke="#505050" stroke-linecap="round" stroke-linejoin="round" d="M56.173,76.691
			c1.137,0.301,2.067-0.713,2.067-0.713c1.786-1.763,3.538-7.837,3.538-7.837c0.842-1.833,2.83-3.742,2.83-3.742
			c0.494-1.136-0.988-0.973-0.988-0.973c-0.764-0.045-3.054,2.649-3.054,2.649s-1.873,0.757-1.734-1.14"/>
		<path fill="none" stroke="#505050" stroke-linecap="round" stroke-linejoin="round" d="M57.891,68.911c0,0-2.23,1.923-1.989,4.218
			"/>
	</g>
</g>
<g id="crossed_2_" display="none">
	
		<use xlink:href="#crossed_x5F_hand"  width="22" height="41.047" id="XMLID_3_" x="-11" y="-20.523" transform="matrix(1 0 0 -1 87.75 122.0415)" display="inline" overflow="visible"/>
	<path display="inline" fill="#FFFFFF" d="M52.805,76.809c0,0-6.553-6.342-2.736-12.275l1.086,0.011c0,0,1.368-3.251,1.9-2.727
		l1.419,1.809l1.393-3.366l-1.054-4.375c0,0,0.123-2.451,1.933-0.789l0.444,1.437l1.009-2.427c0,0,1.514-1.664,1.697,0.853
		l-1.669,4.776l1.358,4.736l0.938,3.168c0,0,0.265,9.128-4.288,9.113C56.234,76.752,54.646,77.057,52.805,76.809z"/>
	<g id="base_3_" display="inline">
		<path fill="none" stroke="#505050" stroke-linecap="round" stroke-linejoin="round" d="M52.663,76.611
			c0,0-3.324-1.854-3.742-8.248"/>
	</g>
	<g id="fingers_down_2_" display="inline">
		<path fill="none" stroke="#505050" stroke-linecap="round" stroke-linejoin="round" d="M48.921,68.363
			c0,0-0.231-4.342,1.871-3.853c0,0,1.551,1.308,2.166,3.029c0,0,0.896,1.446,0.354,1.958c0,0-1.347,0.33-1.449-1.397
			c0,0-0.873-0.957-1.433-1.803c0,0,0.41,0.345-0.195,1.51"/>
		<path fill="none" stroke="#505050" stroke-linecap="round" stroke-linejoin="round" d="M51.199,64.545c0,0,1.061-3.941,2.286-2.42
			c0,0,0.814,1.106,1.578,2.907"/>
		<path fill="none" stroke="#505050" stroke-linecap="round" stroke-linejoin="round" d="M60.619,68.208
			c-0.142-2.552-1.276-3.175-1.276-3.175"/>
		<path fill="none" stroke="#505050" stroke-linecap="round" stroke-linejoin="round" d="M55.427,66.411
			c0,0,0.219,2.394-1.249,1.034c0,0-0.345-0.635-0.414-1.149c0,0-0.97-1.646-1.134-2.086c0,0,0.668,0.98,0,2.338"/>
		
			<line fill="none" stroke="#505050" stroke-linecap="round" stroke-linejoin="round" x1="58.457" y1="68.478" x2="58.087" y2="66.802"/>
		<path fill="none" stroke="#505050" stroke-linecap="round" stroke-linejoin="round" d="M60.619,68.208
			c-0.142-2.552-1.276-3.175-1.276-3.175c-1.636,0.363-4.641,0.068-4.641,0.068c-0.101,2.238,3.74,1.635,3.74,1.635"/>
		<path fill="none" stroke="#505050" stroke-linecap="round" stroke-linejoin="round" d="M56.279,76.753
			c1.138,0.301,2.068-0.713,2.068-0.713c1.786-1.763,2.198-5.891,2.198-5.891c0.086-0.746,0.103-1.389,0.072-1.942"/>
		<path fill="none" stroke="#505050" stroke-linecap="round" stroke-linejoin="round" d="M57.397,69.704c0,0-1.768,2.355-1.04,4.547
			"/>
	</g>
	<g id="crossed_3_" display="inline">
		
			<line fill="none" stroke="#505050" stroke-linecap="round" stroke-linejoin="round" x1="56.79" y1="63.44" x2="56.525" y2="64.362"/>
		<path fill="none" stroke="#505050" stroke-linecap="round" stroke-linejoin="round" d="M54.52,63.901l1.392-4.165"/>
		<path fill="none" stroke="#505050" stroke-linecap="round" stroke-linejoin="round" d="M57.147,64.244l-2.29-8.356
			c0,0,0.032-2.541,1.811-0.863l3.464,11.046"/>
		<path fill="none" stroke="#505050" stroke-linecap="round" stroke-linejoin="round" d="M58.271,60.14l1.669-5.181
			c0,0-0.029-2.508-1.698-0.854l-1.008,2.729"/>
	</g>
</g>
<g id="name">
	<g>
		<path fill="#505050" d="M-21.964,64.077c0.123,0,0.226,0.05,0.311,0.149c0.084,0.1,0.126,0.211,0.126,0.333
			c0,0.046-0.016,0.115-0.046,0.207c-0.567,1.135-1.479,2.281-2.737,3.438c-1.257,1.158-2.737,2.389-4.439,3.691
			c-0.031,0.46-0.096,0.924-0.195,1.392c-0.1,0.468-0.242,0.916-0.426,1.346c-0.276,0.659-0.636,1.211-1.081,1.656
			c-0.444,0.444-0.943,0.667-1.495,0.667c-0.337,0-0.606-0.104-0.805-0.311s-0.314-0.472-0.345-0.794
			c0-0.491,0.112-0.942,0.333-1.356c0.223-0.414,0.506-0.798,0.851-1.15c0.345-0.353,0.721-0.687,1.127-1.001
			c0.407-0.314,0.793-0.624,1.162-0.931c0.138-1.656,0.207-3.335,0.207-5.037c0-0.322,0-0.637,0-0.943s-0.007-0.629-0.023-0.966
			c0-0.123,0.046-0.223,0.138-0.299c0.092-0.077,0.207-0.115,0.345-0.115c0.123,0,0.226,0.046,0.311,0.138
			c0.084,0.093,0.126,0.2,0.126,0.322c0,0.322,0.003,0.629,0.012,0.92c0.007,0.292,0.011,0.567,0.011,0.828
			c0,0.951-0.015,1.76-0.046,2.427s-0.062,1.322-0.092,1.966c0.659-0.506,1.307-1.023,1.943-1.552
			c0.636-0.529,1.23-1.062,1.782-1.599c0.552-0.537,1.047-1.069,1.484-1.599s0.785-1.054,1.046-1.575
			C-22.287,64.161-22.148,64.077-21.964,64.077z M-31.946,76.037c0.276,0,0.537-0.115,0.782-0.346
			c0.246-0.229,0.468-0.514,0.667-0.851c0.2-0.338,0.36-0.698,0.483-1.081c0.123-0.384,0.2-0.729,0.23-1.035
			c-0.168,0.153-0.391,0.341-0.667,0.563c-0.276,0.223-0.541,0.468-0.793,0.736c-0.253,0.268-0.471,0.552-0.655,0.851
			s-0.276,0.587-0.276,0.862c0,0.062,0.011,0.127,0.034,0.196C-32.119,76.001-32.054,76.037-31.946,76.037z M-29.624,60.396
			c0-0.076,0.008-0.134,0.023-0.172c0.016-0.038,0.023-0.073,0.023-0.104c0-0.047-0.015-0.089-0.046-0.127
			c-0.03-0.038-0.046-0.111-0.046-0.219c0-0.106,0.042-0.21,0.126-0.311c0.084-0.1,0.195-0.149,0.333-0.149
			c0.199,0,0.341,0.089,0.425,0.265c0.084,0.177,0.126,0.356,0.126,0.541c0,0.153-0.031,0.314-0.092,0.482
			c-0.062,0.169-0.199,0.253-0.414,0.253c-0.169,0-0.288-0.046-0.356-0.138S-29.624,60.519-29.624,60.396z"/>
		<path fill="#505050" d="M-16.146,70.217c0.414,0,0.847-0.195,1.3-0.587c0.452-0.391,0.893-0.881,1.322-1.472
			c0.429-0.59,0.835-1.227,1.219-1.909c0.383-0.682,0.72-1.322,1.012-1.92c0.092-0.169,0.23-0.253,0.414-0.253
			c0.123,0,0.226,0.05,0.311,0.149c0.084,0.1,0.126,0.211,0.126,0.333c0,0.031-0.008,0.081-0.023,0.149
			c-0.016,0.069-0.077,0.204-0.184,0.402c-0.261,0.491-0.583,1.081-0.966,1.771c-0.384,0.689-0.809,1.35-1.277,1.978
			c-0.468,0.629-0.978,1.166-1.529,1.61c-0.552,0.445-1.12,0.667-1.702,0.667c-0.583,0-1.073-0.203-1.472-0.609
			c-0.399-0.406-0.683-0.9-0.851-1.483c-0.077,0.229-0.181,0.472-0.311,0.725c-0.13,0.253-0.288,0.479-0.472,0.678
			c-0.184,0.2-0.395,0.365-0.632,0.495c-0.238,0.13-0.502,0.195-0.793,0.195c-0.43,0-0.801-0.104-1.116-0.311
			s-0.571-0.479-0.771-0.816c-0.199-0.337-0.345-0.729-0.437-1.173c-0.092-0.444-0.138-0.904-0.138-1.38
			c0-0.567,0.065-1.127,0.195-1.68c0.13-0.552,0.318-1.05,0.563-1.494c0.245-0.445,0.548-0.806,0.909-1.081
			c0.36-0.276,0.778-0.414,1.253-0.414c0.291,0,0.563,0.068,0.816,0.207c0.253,0.138,0.472,0.318,0.656,0.54
			c0.184,0.223,0.325,0.472,0.425,0.748c0.1,0.275,0.149,0.56,0.149,0.851c0,0.107-0.031,0.211-0.092,0.311
			c-0.062,0.1-0.177,0.149-0.345,0.149c-0.261,0-0.414-0.123-0.46-0.368c-0.107-0.46-0.265-0.828-0.472-1.104
			c-0.207-0.276-0.464-0.414-0.771-0.414c-0.276,0-0.529,0.119-0.759,0.356s-0.434,0.548-0.609,0.932
			c-0.177,0.383-0.311,0.809-0.403,1.276c-0.092,0.468-0.138,0.932-0.138,1.392c0,0.689,0.123,1.288,0.368,1.794
			s0.636,0.759,1.173,0.759c0.322,0,0.59-0.142,0.805-0.426c0.215-0.283,0.391-0.617,0.529-1c0.138-0.384,0.241-0.778,0.311-1.185
			c0.069-0.406,0.119-0.74,0.149-1.001c0.03-0.275,0.184-0.414,0.46-0.414c0.138,0,0.245,0.039,0.322,0.115
			c0.077,0.077,0.123,0.177,0.138,0.299c0.015,0.246,0.05,0.571,0.104,0.978s0.146,0.806,0.276,1.196s0.311,0.729,0.541,1.012
			C-16.79,70.076-16.499,70.217-16.146,70.217z"/>
		<path fill="#505050" d="M-11.315,64.49c0-0.122,0.046-0.226,0.138-0.31c0.092-0.085,0.207-0.127,0.345-0.127
			c0.123,0,0.219,0.046,0.288,0.138c0.069,0.093,0.119,0.207,0.149,0.346c0.061,0.307,0.119,0.644,0.172,1.012
			s0.096,0.713,0.126,1.035c0.062-0.276,0.142-0.629,0.242-1.059c0.1-0.429,0.222-0.847,0.368-1.253
			c0.146-0.406,0.318-0.755,0.518-1.047c0.199-0.291,0.429-0.437,0.69-0.437c0.184,0,0.33,0.076,0.437,0.229
			c0.107,0.153,0.195,0.36,0.264,0.621c0.069,0.261,0.126,0.563,0.173,0.908c0.046,0.346,0.107,0.71,0.184,1.093
			c0.092,0.537,0.199,1.073,0.322,1.61c0.123,0.537,0.265,1.027,0.425,1.472c0.161,0.445,0.341,0.805,0.541,1.081
			s0.429,0.414,0.69,0.414c0.414,0,0.843-0.195,1.288-0.587c0.445-0.391,0.882-0.881,1.311-1.472
			c0.429-0.59,0.835-1.227,1.219-1.909c0.383-0.682,0.72-1.322,1.012-1.92c0.092-0.169,0.23-0.253,0.414-0.253
			c0.123,0,0.226,0.05,0.311,0.149c0.084,0.1,0.126,0.211,0.126,0.333c0,0.031-0.008,0.081-0.023,0.149
			c-0.016,0.069-0.077,0.204-0.184,0.402c-0.261,0.491-0.583,1.081-0.966,1.771c-0.384,0.689-0.809,1.35-1.277,1.978
			c-0.468,0.629-0.977,1.166-1.529,1.61c-0.552,0.445-1.12,0.667-1.702,0.667c-0.368,0-0.694-0.118-0.978-0.356
			c-0.284-0.237-0.529-0.548-0.736-0.932c-0.207-0.383-0.387-0.82-0.541-1.311c-0.153-0.491-0.288-0.993-0.402-1.507
			c-0.115-0.514-0.211-1.02-0.288-1.518c-0.077-0.499-0.153-0.947-0.23-1.346c-0.215,0.49-0.402,1.039-0.563,1.645
			s-0.299,1.207-0.414,1.806c-0.115,0.598-0.203,1.169-0.265,1.713c-0.061,0.545-0.1,1.001-0.115,1.369
			c-0.031,0.261-0.184,0.406-0.46,0.437c-0.276,0-0.43-0.146-0.46-0.437c-0.046-0.798-0.092-1.499-0.138-2.104
			c-0.046-0.606-0.107-1.273-0.184-2.002C-11.093,65.867-11.193,65.166-11.315,64.49z"/>
		<path fill="#505050" d="M2.231,71.137c-0.534,0-0.975-0.161-1.324-0.483c-0.35-0.321-0.63-0.747-0.843-1.276
			c-0.213-0.528-0.361-1.123-0.444-1.782s-0.125-1.334-0.125-2.024c0-0.383,0.023-0.743,0.068-1.081
			c0.045-0.337,0.118-0.632,0.216-0.885c0.099-0.253,0.232-0.452,0.399-0.599c0.167-0.146,0.365-0.218,0.593-0.218
			c0.258,0,0.512,0.153,0.763,0.46c0.25,0.307,0.384,0.805,0.399,1.495c0,0.49-0.091,1.073-0.273,1.747
			c-0.183,0.676-0.471,1.435-0.866,2.277c0.152,0.43,0.342,0.778,0.57,1.047s0.517,0.402,0.869,0.402
			c0.414,0,0.843-0.195,1.288-0.587c0.444-0.391,0.881-0.881,1.311-1.472c0.429-0.59,0.835-1.227,1.219-1.909
			c0.383-0.682,0.721-1.322,1.012-1.92c0.092-0.169,0.23-0.253,0.414-0.253c0.123,0,0.226,0.05,0.311,0.149
			c0.084,0.1,0.126,0.211,0.126,0.333c0,0.031-0.008,0.081-0.023,0.149c-0.016,0.069-0.077,0.204-0.184,0.402
			c-0.261,0.491-0.583,1.081-0.966,1.771c-0.383,0.689-0.809,1.35-1.276,1.978c-0.468,0.629-0.978,1.166-1.529,1.61
			C3.381,70.916,2.814,71.137,2.231,71.137z M0.415,66.008c0,0.184,0,0.372,0,0.563s0.015,0.388,0.046,0.587
			c0.368-1.013,0.552-1.825,0.552-2.438c-0.016-0.307-0.056-0.54-0.12-0.701c-0.064-0.161-0.112-0.257-0.145-0.288
			c-0.163,0.23-0.259,0.549-0.289,0.955C0.429,65.092,0.415,65.533,0.415,66.008z"/>
		<path fill="#505050" d="M12.489,66.974c0.046-0.229,0.118-0.575,0.218-1.035c0.1-0.46,0.226-0.924,0.379-1.392
			c0.153-0.467,0.333-0.877,0.541-1.23c0.207-0.353,0.449-0.528,0.725-0.528c0.322,0,0.583,0.172,0.782,0.518
			c0.199,0.345,0.36,0.751,0.483,1.219c0.123,0.468,0.21,0.939,0.264,1.414c0.054,0.476,0.104,0.836,0.15,1.081
			c0.076-0.275,0.172-0.651,0.287-1.127c0.115-0.475,0.253-0.942,0.414-1.403c0.161-0.46,0.345-0.858,0.552-1.195
			s0.44-0.506,0.701-0.506c0.184,0,0.33,0.076,0.437,0.229s0.196,0.36,0.265,0.621s0.126,0.563,0.172,0.908
			c0.046,0.346,0.107,0.71,0.184,1.093c0.092,0.537,0.199,1.073,0.322,1.61c0.123,0.537,0.264,1.027,0.425,1.472
			c0.161,0.445,0.341,0.805,0.541,1.081s0.429,0.414,0.69,0.414c0.414,0,0.843-0.195,1.288-0.587
			c0.444-0.391,0.881-0.881,1.311-1.472c0.429-0.59,0.835-1.227,1.219-1.909c0.383-0.682,0.721-1.322,1.012-1.92
			c0.092-0.169,0.23-0.253,0.414-0.253c0.123,0,0.226,0.05,0.311,0.149c0.084,0.1,0.126,0.211,0.126,0.333
			c0,0.031-0.008,0.081-0.023,0.149c-0.016,0.069-0.077,0.204-0.184,0.402c-0.261,0.491-0.583,1.081-0.966,1.771
			c-0.384,0.689-0.809,1.35-1.277,1.978c-0.468,0.629-0.978,1.166-1.529,1.61c-0.552,0.445-1.12,0.667-1.702,0.667
			c-0.368,0-0.694-0.118-0.978-0.356c-0.284-0.237-0.529-0.548-0.736-0.932c-0.207-0.383-0.387-0.82-0.541-1.311
			c-0.153-0.491-0.288-0.993-0.402-1.507c-0.115-0.514-0.211-1.02-0.288-1.518c-0.077-0.499-0.153-0.947-0.23-1.346
			c-0.215,0.49-0.402,1.039-0.563,1.645s-0.299,1.207-0.414,1.806c-0.115,0.598-0.204,1.169-0.265,1.713
			c-0.062,0.545-0.1,1.001-0.115,1.369c-0.031,0.291-0.184,0.437-0.46,0.437c-0.077,0-0.169-0.023-0.276-0.069
			s-0.184-0.176-0.23-0.391c0-0.414-0.031-0.928-0.092-1.541c-0.062-0.613-0.146-1.246-0.253-1.897
			c-0.107-0.651-0.23-1.284-0.368-1.897s-0.284-1.119-0.437-1.519c-0.184,0.338-0.36,0.813-0.529,1.427
			c-0.169,0.613-0.326,1.257-0.472,1.932c-0.146,0.675-0.272,1.33-0.379,1.967c-0.107,0.636-0.184,1.153-0.23,1.553
			c-0.031,0.261-0.184,0.406-0.46,0.437c-0.276,0-0.43-0.146-0.46-0.437c-0.046-0.798-0.092-1.499-0.138-2.104
			c-0.046-0.606-0.107-1.273-0.184-2.002c-0.077-0.728-0.176-1.429-0.299-2.104c0-0.122,0.046-0.226,0.138-0.31
			c0.092-0.085,0.207-0.127,0.345-0.127c0.123,0,0.219,0.046,0.288,0.138c0.069,0.093,0.119,0.207,0.149,0.346
			c0.031,0.153,0.061,0.337,0.092,0.552s0.062,0.434,0.092,0.655c0.03,0.223,0.061,0.445,0.092,0.667
			C12.451,66.633,12.474,66.821,12.489,66.974z"/>
		<path fill="#505050" d="M26.726,70.54c0.031-0.093,0.046-0.153,0.046-0.185c0-0.015-0.008-0.042-0.023-0.08
			c-0.016-0.038-0.031-0.073-0.046-0.104c-0.046-0.123-0.042-0.241,0.011-0.356s0.142-0.195,0.265-0.242
			c0.123-0.046,0.242-0.042,0.356,0.012c0.115,0.054,0.196,0.143,0.242,0.265c0.077,0.199,0.115,0.345,0.115,0.438
			c0,0.092-0.015,0.237-0.046,0.437c-0.031,0.123-0.088,0.215-0.172,0.276c-0.084,0.062-0.181,0.092-0.288,0.092h-0.092
			c-0.123-0.03-0.223-0.1-0.299-0.207S26.695,70.663,26.726,70.54z"/>
		<path fill="#505050" d="M38.893,70.24c0.414,0,0.844-0.198,1.287-0.598c0.445-0.398,0.883-0.893,1.312-1.483
			c0.428-0.59,0.834-1.227,1.219-1.909c0.383-0.682,0.721-1.322,1.012-1.92c0.092-0.169,0.23-0.253,0.414-0.253
			c0.123,0,0.227,0.05,0.311,0.149s0.127,0.211,0.127,0.333c0,0.031-0.008,0.081-0.023,0.149c-0.016,0.069-0.078,0.204-0.184,0.402
			c-0.17,0.322-0.369,0.698-0.6,1.127c-0.229,0.43-0.482,0.867-0.758,1.312c-0.277,0.444-0.572,0.882-0.887,1.311
			c-0.314,0.43-0.646,0.816-1,1.162c-0.354,0.345-0.717,0.621-1.092,0.828c-0.377,0.207-0.756,0.311-1.139,0.311
			c-0.506,0-0.986-0.081-1.438-0.242c-0.453-0.161-0.878-0.333-1.277-0.518c-0.46,0.537-0.997,0.806-1.61,0.806
			c-0.476,0-0.847-0.119-1.116-0.356c-0.268-0.238-0.402-0.525-0.402-0.863c0-0.353,0.142-0.644,0.426-0.874
			c0.283-0.229,0.602-0.345,0.954-0.345c0.215,0,0.441,0.046,0.679,0.138c0.237,0.093,0.495,0.207,0.771,0.346
			c0.199-0.368,0.383-0.745,0.552-1.131c0.169-0.385,0.333-0.774,0.495-1.168s0.333-0.782,0.518-1.168s0.406-0.764,0.667-1.134
			c-0.03,0.016-0.085,0.023-0.161,0.023c-0.445,0-0.832-0.067-1.161-0.202c-0.33-0.135-0.633-0.277-0.909-0.428
			c-0.215-0.12-0.414-0.213-0.598-0.281c-0.184-0.067-0.368-0.101-0.552-0.101c-0.521,0-0.867,0.24-1.035,0.72
			c-0.046,0.241-0.192,0.361-0.437,0.361c-0.123,0-0.23-0.045-0.322-0.135c-0.092-0.09-0.138-0.195-0.138-0.315
			c0-0.225,0.058-0.431,0.172-0.618c0.115-0.188,0.265-0.349,0.449-0.483s0.387-0.243,0.609-0.326
			c0.222-0.082,0.449-0.123,0.679-0.123c0.276,0,0.544,0.052,0.805,0.157c0.261,0.104,0.521,0.221,0.782,0.349
			c0.26,0.127,0.525,0.243,0.793,0.349c0.268,0.104,0.556,0.157,0.862,0.157s0.59-0.062,0.852-0.185
			c0.26-0.122,0.521-0.184,0.781-0.184c0.123,0,0.23,0.042,0.322,0.127c0.092,0.084,0.139,0.188,0.139,0.31
			c0,0.216-0.092,0.361-0.277,0.438c-0.414,0.322-0.762,0.698-1.047,1.127c-0.283,0.43-0.531,0.886-0.746,1.368
			c-0.215,0.483-0.418,0.971-0.61,1.461c-0.192,0.491-0.41,0.966-0.655,1.426c0.337,0.169,0.69,0.311,1.058,0.426
			C38.133,70.183,38.508,70.24,38.893,70.24z M34.591,70.287c0.245,0,0.483-0.1,0.713-0.3c-0.169-0.076-0.33-0.142-0.483-0.195
			s-0.292-0.08-0.414-0.08c-0.307,0.046-0.46,0.138-0.46,0.275c0.015,0.062,0.073,0.127,0.172,0.196
			C34.219,70.251,34.376,70.287,34.591,70.287z"/>
		<path fill="#505050" d="M44.596,70.54c0.031-0.093,0.047-0.153,0.047-0.185c0-0.015-0.008-0.042-0.023-0.08
			s-0.031-0.073-0.047-0.104c-0.045-0.123-0.041-0.241,0.012-0.356c0.055-0.115,0.143-0.195,0.266-0.242
			c0.123-0.046,0.24-0.042,0.355,0.012s0.195,0.143,0.242,0.265c0.076,0.199,0.115,0.345,0.115,0.438
			c0,0.092-0.016,0.237-0.047,0.437c-0.031,0.123-0.088,0.215-0.172,0.276s-0.18,0.092-0.287,0.092h-0.092
			c-0.123-0.03-0.223-0.1-0.299-0.207C44.588,70.777,44.564,70.663,44.596,70.54z"/>
	</g>
</g>
</svg>
