<?xml version="1.0" encoding="utf-8"?>
<!-- Generator: Adobe Illustrator 16.0.0, SVG Export Plug-In . SVG Version: 6.00 Build 0)  -->
<!DOCTYPE svg PUBLIC "-//W3C//DTD SVG 1.1//EN" "http://www.w3.org/Graphics/SVG/1.1/DTD/svg11.dtd">
<svg version="1.1" xmlns="http://www.w3.org/2000/svg" xmlns:xlink="http://www.w3.org/1999/xlink" x="0px" y="0px"
	 width="51.262px" height="51.875px" viewBox="30.417 46.042 51.262 51.875" enable-background="new 30.417 46.042 51.262 51.875"
	 xml:space="preserve">
<symbol  id="J" viewBox="-7.016 -3.193 14.031 6.386">
	<path fill="none" stroke="#505050" stroke-width="0.5" stroke-miterlimit="10" d="M-5.826-0.718
		c-4.091-5.079,6.287-0.157,9.917,1.892"/>
	<path fill="none" stroke="#505050" stroke-width="0.5" stroke-miterlimit="10" d="M6.533,2.141
		C6.326,2.034,6.068,2.115,5.962,2.324C5.855,2.532,5.938,2.79,6.146,2.896C6.357,3.003,6.613,2.92,6.719,2.712
		C6.826,2.503,6.742,2.248,6.533,2.141z"/>
	<path fill="none" stroke="#505050" stroke-width="0.5" stroke-miterlimit="10" d="M-0.962-1.435"/>
</symbol>
<g id="Open" display="none">
	<g id="open_1_" display="inline">
		<path fill="#FFFFFF" d="M52.723,87.88c4.201,1.419,6.148,0.244,6.148,0.244c1.933,0.511,3.515-1.214,3.515-1.214
			c3.035-2.994,6.013-13.319,6.013-13.319c1.43-3.115,4.809-6.359,4.809-6.359c0.84-1.932-1.679-1.654-1.679-1.654
			c-1.298-0.075-5.19,4.503-5.19,4.503s-3.183,1.289-2.947-1.935l0.021-0.25l1.929-16.532c-1.438-3.321-3.023-0.057-3.023-0.057
			L58.9,67.809v0.315l-1.947-18.256c0,0-1.566-3.479-2.947-0.368l0.711,20.003l-5.388-16.448c0,0-1.717-3.054-2.509,0.564
			l2.722,17.333l-5.909-12.121c0,0-2.174-1.907-2.153,0.922l4.883,14.109C46.859,82.879,52.723,87.88,52.723,87.88z"/>
	</g>
	<g id="base_4_" display="inline">
		<path fill="none" stroke="#505050" stroke-width="2" stroke-linecap="round" stroke-linejoin="round" d="M52.723,87.643
			c0,0-5.649-3.153-6.36-14.019"/>
	</g>
	<g id="fingers_down">
		
			<path display="inline" fill="none" stroke="#000000" stroke-width="3" stroke-linecap="round" stroke-linejoin="round" stroke-miterlimit="10" d="
			M4.119,58.86c0,0-0.854-16.121,6.945-14.302c0,0,5.759,4.854,8.042,11.241c0,0,3.327,5.371,1.31,7.271
			c0,0-4.999,1.224-5.375-5.187c0,0-3.244-3.551-5.318-6.69c0,0,1.522,1.279-0.725,5.608"/>
		
			<path display="inline" fill="none" stroke="#000000" stroke-width="3" stroke-linecap="round" stroke-linejoin="round" stroke-miterlimit="10" d="
			M12.578,44.689c0,0,3.937-14.629,8.485-8.979c0,0,3.026,4.106,5.858,10.791"/>
		
			<path display="inline" fill="none" stroke="#000000" stroke-width="3" stroke-linecap="round" stroke-linejoin="round" stroke-miterlimit="10" d="
			M47.54,58.286c-0.521-9.473-4.735-11.789-4.735-11.789"/>
		
			<path display="inline" fill="none" stroke="#000000" stroke-width="3" stroke-linecap="round" stroke-linejoin="round" stroke-miterlimit="10" d="
			M28.269,51.613c0,0,0.814,8.88-4.638,3.839c0,0-1.276-2.354-1.536-4.271c0,0-3.598-6.11-4.206-7.74c0,0,2.476,3.642,0,8.677"/>
		
			<line display="inline" fill="none" stroke="#000000" stroke-width="3" stroke-linecap="round" stroke-linejoin="round" stroke-miterlimit="10" x1="39.514" y1="59.284" x2="38.145" y2="53.066"/>
		
			<path display="inline" fill="none" stroke="#000000" stroke-width="3" stroke-linecap="round" stroke-linejoin="round" stroke-miterlimit="10" d="
			M47.54,58.286c-0.521-9.473-4.735-11.789-4.735-11.789c-6.071,1.35-17.226,0.256-17.226,0.256
			c-0.374,8.306,13.882,6.068,13.882,6.068"/>
		
			<path display="inline" fill="none" stroke="#000000" stroke-width="3" stroke-linecap="round" stroke-linejoin="round" stroke-miterlimit="10" d="
			M31.436,90.002c4.22,1.117,7.675-2.648,7.675-2.648c6.63-6.539,8.162-21.859,8.162-21.859c0.314-2.771,0.377-5.158,0.265-7.209"/>
		
			<path display="inline" fill="none" stroke="#000000" stroke-width="3" stroke-linecap="round" stroke-linejoin="round" stroke-miterlimit="10" d="
			M35.581,63.833c0,0-6.559,8.746-3.859,16.875"/>
	</g>
	<g id="crossed">
		
			<line display="inline" fill="none" stroke="#000000" stroke-width="3" stroke-linecap="round" stroke-linejoin="round" stroke-miterlimit="10" x1="33.327" y1="40.586" x2="32.345" y2="44.006"/>
		
			<path display="inline" fill="none" stroke="#000000" stroke-width="3" stroke-linecap="round" stroke-linejoin="round" stroke-miterlimit="10" d="
			M24.9,42.297l5.169-15.463"/>
		
			<path display="inline" fill="none" stroke="#000000" stroke-width="3" stroke-linecap="round" stroke-linejoin="round" stroke-miterlimit="10" d="
			M34.655,43.57l-8.498-31.019c0,0,0.117-9.423,6.718-3.203L45.73,50.35"/>
		
			<path display="inline" fill="none" stroke="#000000" stroke-width="3" stroke-linecap="round" stroke-linejoin="round" stroke-miterlimit="10" d="
			M38.827,28.336L45.023,9.11c0,0-0.11-9.312-6.301-3.165l-3.744,10.126"/>
	</g>
	<g id="open_3_" display="inline">
		<path fill="none" stroke="#505050" stroke-width="2" stroke-linecap="round" stroke-linejoin="round" d="M58.9,67.571
			l3.416-16.503c0,0,1.586-3.264,3.023,0.057l-1.929,16.534"/>
		<path fill="none" stroke="#505050" stroke-width="2" stroke-linecap="round" stroke-linejoin="round" d="M54.896,67.886
			l-0.881-18.393c1.371-3.344,2.938,0.135,2.938,0.135L58.9,67.886"/>
		<path fill="none" stroke="#505050" stroke-width="2" stroke-linecap="round" stroke-linejoin="round" d="M50.078,69.339
			L46.82,53.38c0.791-3.615,2.509-0.563,2.509-0.563l4.866,16.314"/>
		<path fill="none" stroke="#505050" stroke-width="2" stroke-linecap="round" stroke-linejoin="round" d="M46.073,73.47
			l-4.594-13.955c-0.021-2.83,2.153-0.923,2.153-0.923l5.909,12.123"/>
		<path fill="none" stroke="#505050" stroke-width="2" stroke-linecap="round" stroke-linejoin="round" d="M58.871,87.884
			c1.933,0.512,3.515-1.211,3.515-1.211c3.035-2.996,6.013-13.321,6.013-13.321c1.43-3.114,4.809-6.358,4.809-6.358
			c0.84-1.932-1.679-1.654-1.679-1.654c-1.298-0.076-5.19,4.503-5.19,4.503s-3.183,1.287-2.947-1.938"/>
		<path fill="none" stroke="#505050" stroke-width="2" stroke-linecap="round" stroke-linejoin="round" d="M61.791,74.661
			c0,0-3.791,3.269-3.382,7.169"/>
	</g>
	<g id="Layer_4">
		
			<line display="inline" fill="none" stroke="#000000" stroke-width="3" stroke-linecap="round" stroke-linejoin="round" stroke-miterlimit="10" x1="33.328" y1="40.564" x2="32.346" y2="43.984"/>
		
			<path display="inline" fill="none" stroke="#000000" stroke-width="3" stroke-linecap="round" stroke-linejoin="round" stroke-miterlimit="10" d="
			M38.83,28.316l6.902,22.013"/>
		
			<path display="inline" fill="none" stroke="#000000" stroke-width="3" stroke-linecap="round" stroke-linejoin="round" stroke-miterlimit="10" d="
			M38.83,28.316"/>
		
			<path display="inline" fill="none" stroke="#000000" stroke-width="3" stroke-linecap="round" stroke-linejoin="round" stroke-miterlimit="10" d="
			M30.125,26.708l-3.967-14.179c0,0,0.117-9.423,6.718-3.203l1.974,6.294"/>
		
			<path display="inline" fill="none" stroke="#000000" stroke-width="3" stroke-linecap="round" stroke-linejoin="round" stroke-miterlimit="10" d="
			M34.656,43.548l-0.835-3.049"/>
		
			<path display="inline" fill="none" stroke="#000000" stroke-width="3" stroke-linecap="round" stroke-linejoin="round" stroke-miterlimit="10" d="
			M33.328,40.564L45.025,9.089c0,0-0.111-9.312-6.301-3.165L24.9,42.275"/>
	</g>
	<g id="Layer_2" display="inline">
	</g>
</g>
<g id="crossed_2_">
	<path fill="#FFFFFF" d="M52.922,88.106c0,0-11.137-10.778-4.651-20.863l1.846,0.019c0,0,2.326-5.524,3.231-4.635l2.411,3.075
		l2.366-5.721l-1.791-7.437c0,0,0.21-4.166,3.284-1.341l0.756,2.441l1.715-4.125c0,0,2.572-2.828,2.885,1.448l-2.836,8.118
		l2.308,8.051l1.594,5.384c0,0,0.449,15.515-7.288,15.49C58.751,88.01,56.051,88.529,52.922,88.106z"/>
	<g id="base_1_">
		<path fill="none" stroke="#505050" stroke-width="2" stroke-linecap="round" stroke-linejoin="round" d="M52.682,87.769
			c0,0-5.65-3.149-6.361-14.018"/>
	</g>
	<g id="fingers_down_1_">
		<path fill="none" stroke="#505050" stroke-width="2" stroke-linecap="round" stroke-linejoin="round" d="M46.32,73.751
			c0,0-0.393-7.381,3.18-6.549c0,0,2.637,2.224,3.683,5.148c0,0,1.523,2.459,0.601,3.328c0,0-2.29,0.562-2.462-2.374
			c0,0-1.485-1.627-2.436-3.064c0,0,0.696,0.586-0.333,2.567"/>
		<path fill="none" stroke="#505050" stroke-width="2" stroke-linecap="round" stroke-linejoin="round" d="M50.193,67.263
			c0,0,1.803-6.699,3.885-4.112c0,0,1.386,1.88,2.684,4.941"/>
		<path fill="none" stroke="#505050" stroke-width="2" stroke-linecap="round" stroke-linejoin="round" d="M66.203,73.488
			c-0.24-4.337-2.17-5.397-2.17-5.397"/>
		<path fill="none" stroke="#505050" stroke-width="2" stroke-linecap="round" stroke-linejoin="round" d="M57.378,70.433
			c0,0,0.372,4.067-2.123,1.759c0,0-0.585-1.079-0.703-1.955c0,0-1.649-2.798-1.927-3.545c0,0,1.135,1.667,0,3.974"/>
		
			<line fill="none" stroke="#505050" stroke-width="2" stroke-linecap="round" stroke-linejoin="round" x1="62.527" y1="73.947" x2="61.9" y2="71.098"/>
		<path fill="none" stroke="#505050" stroke-width="2" stroke-linecap="round" stroke-linejoin="round" d="M66.203,73.488
			c-0.24-4.337-2.17-5.397-2.17-5.397c-2.779,0.619-7.887,0.117-7.887,0.117c-0.171,3.805,6.357,2.778,6.357,2.778"/>
		<path fill="none" stroke="#505050" stroke-width="2" stroke-linecap="round" stroke-linejoin="round" d="M58.828,88.012
			c1.934,0.511,3.516-1.213,3.516-1.213c3.035-2.994,3.736-10.01,3.736-10.01c0.145-1.269,0.173-2.36,0.122-3.302"/>
		<path fill="none" stroke="#505050" stroke-width="2" stroke-linecap="round" stroke-linejoin="round" d="M60.727,76.03
			c0,0-3.004,4.003-1.766,7.728"/>
	</g>
	<g id="crossed_1_">
		
			<line fill="none" stroke="#505050" stroke-width="2" stroke-linecap="round" stroke-linejoin="round" x1="59.695" y1="65.384" x2="59.245" y2="66.95"/>
		<path fill="none" stroke="#505050" stroke-width="2" stroke-linecap="round" stroke-linejoin="round" d="M55.836,66.167
			l2.366-7.08"/>
		<path fill="none" stroke="#505050" stroke-width="2" stroke-linecap="round" stroke-linejoin="round" d="M60.303,66.75
			l-3.892-14.202c0,0,0.054-4.317,3.076-1.468l5.887,18.775"/>
		<path fill="none" stroke="#505050" stroke-width="2" stroke-linecap="round" stroke-linejoin="round" d="M62.213,59.776
			l2.837-8.805c0,0-0.05-4.264-2.886-1.451l-1.713,4.639"/>
	</g>
</g>
<g id="name" display="none">
	<g display="inline">
		<g>
			<path fill="none" stroke="#505050" stroke-width="0.5" stroke-miterlimit="10" d="M75.27,88.387
				c0.183,0.153,0.061,0.597-0.287,0.969c-0.35,0.375-0.78,0.524-0.948,0.354s-0.021-0.583,0.313-0.942
				C74.683,88.413,75.087,88.233,75.27,88.387z"/>
			<path fill="none" stroke="#505050" stroke-linecap="round" stroke-linejoin="round" d="M27.743,74.737
				c-4.893,10.662,7.337,7.571,10.772,5.426"/>
			<path fill="none" stroke="#505050" stroke-width="0.5" stroke-miterlimit="10" d="M41.129,79.631
				c-0.218,0.092-0.516-0.149-0.646-0.556s-0.036-0.806,0.189-0.874c0.228-0.07,0.495,0.197,0.618,0.581
				C41.413,79.166,41.35,79.539,41.129,79.631z"/>
			<path fill="none" stroke="#505050" stroke-linecap="round" stroke-linejoin="round" stroke-miterlimit="10" d="M72.627,91.485
				c-0.129,0.155-5.504-2.703-6.047-2.552c-0.686,0.308,1.612,4.665,0.769,5.142c-0.92,0.497-3.838-2.514-5.168-2.212
				c-1.501,0.333,0.967,4.115,1.063,4.089"/>
			<path fill="none" stroke="#505050" stroke-linecap="round" stroke-linejoin="round" stroke-miterlimit="10" d="M71.461,85.107
				c0.495,0.345,2.282-8.819,4.498-2.803c0.414,0.937,0.771,1.914,1.066,2.927c-0.043-0.046,0.46,1.873,1.705-1.73
				c0.327-1.486,0.514-3.023,0.556-4.601"/>
			<path fill="none" stroke="#505050" stroke-linecap="round" stroke-linejoin="round" stroke-miterlimit="10" d="M73.834,86.062
				c0.188,0.162,2.855-4.903,3.141-6.035"/>
			<path fill="none" stroke="#505050" stroke-linecap="round" stroke-linejoin="round" stroke-miterlimit="10" d="M44.036,81.957"/>
			<path fill="none" stroke="#505050" stroke-linecap="round" stroke-linejoin="round" d="M46.825,94.247
				c1.015,0.583,8.685-0.127,7.886-1.646c-0.532-2.512-10.352,2.729-1.656,4.041"/>
			<path fill="none" stroke="#505050" stroke-linecap="round" stroke-linejoin="round" d="M39.696,89.65
				c0.952-0.789,1.864-1.593,2.168-3.051"/>
			<path fill="none" stroke="#505050" stroke-linecap="round" stroke-linejoin="round" d="M40.172,88.587
				C28.736,77.385,47.293,85.657,40.172,88.587"/>
			<path fill="none" stroke="#505050" stroke-linecap="round" stroke-linejoin="round" stroke-miterlimit="10" d="M49.348,89.961
				c-0.677-0.351-2.947,4.021-3.862,3.647c-0.977-0.42-0.23-4.479-1.3-5.375c-1.197-1.017-2.867,3.189-2.788,3.249"/>
			<path fill="none" stroke="#505050" stroke-width="0.5" stroke-miterlimit="10" d="M80.663,73.681
				c0.235,0.004,0.416,0.548,0.375,1.198c-0.04,0.648-0.284,1.13-0.518,1.098s-0.369-0.547-0.331-1.165
				C80.229,74.189,80.428,73.675,80.663,73.681z"/>
		</g>
	</g>
	<path display="inline" fill="none" stroke="#505050" stroke-width="0.5" stroke-miterlimit="10" d="M35,78.032"/>
</g>
<g id="Layer_5">
	<path fill="none" stroke="#505050" stroke-width="0.5" stroke-miterlimit="10" d="M83.551,131.846
		c0,9.531-8.88,17.257-19.834,17.257c-10.952,0-19.832-7.726-19.832-17.257"/>
	<g>
		<g>
			<g>
				<g>
					<path fill="none" stroke="#505050" stroke-width="0.51" stroke-miterlimit="10" d="M67.1,179.038
						c0.17,0.202,0.066,0.563-0.231,0.809c-0.296,0.25-0.696,0.225-0.842,0.016c-0.157-0.224-0.016-0.543,0.26-0.777
						C66.565,178.856,66.929,178.835,67.1,179.038z"/>
					<path fill="none" stroke="#505050" stroke-width="0.765" stroke-linecap="round" stroke-linejoin="round" d="M26.449,170.631
						c-1.622,1.837-1.661,3.562-1.046,4.544c0.688,0.983,2.005,1.338,3.568,1.157c3.14-0.352,7.035-2.444,9.114-3.533"/>
					<path fill="none" stroke="#505050" stroke-width="0.51" stroke-miterlimit="10" d="M40.804,171.654
						c-0.232,0.126-0.478,0.101-0.559-0.052c-0.097-0.151,0.071-0.353,0.324-0.446c0.242-0.095,0.466-0.074,0.547,0.045
						C41.183,171.321,41.037,171.527,40.804,171.654z"/>
					
						<path fill="none" stroke="#505050" stroke-width="0.765" stroke-linecap="round" stroke-linejoin="round" stroke-miterlimit="10" d="
						M64.831,181.15c0,0-1.267-1.025-2.434-2.106c-1.219-1.12-2.312-2.29-2.573-2.202c-0.538,0.13,1.34,5.298,0.664,5.642
						c-0.325,0.179-1.153-0.718-1.94-1.594c-0.794-0.859-1.575-1.836-2.125-1.715c-0.551,0.12-0.398,1.277-0.061,2.435
						c0.33,1.142,0.876,2.243,0.876,2.243"/>
					
						<path fill="none" stroke="#505050" stroke-width="0.765" stroke-linecap="round" stroke-linejoin="round" stroke-miterlimit="10" d="
						M63.552,174.749c-0.017-0.009,0.204-0.32,0.37-0.757c0.09-0.214,0.227-0.431,0.335-0.646c0.093-0.223,0.205-0.424,0.347-0.584
						c0.228-0.332,0.521-0.514,1.018-0.37c0.468,0.157,1.14,0.579,1.803,1.907c0,0.001,0.398,0.614,0.672,1.258
						c0.296,0.645,0.547,1.352,0.547,1.352s0.113,0.4,0.372,0.51c0.13,0.055,0.3,0.032,0.517-0.157
						c0.206-0.194,0.514-0.524,0.733-1.17c0,0,0.049-0.195,0.123-0.489c0.086-0.283,0.152-0.678,0.188-1.07
						c0.127-0.769,0.082-1.518,0.082-1.517"/>
					
						<path fill="none" stroke="#505050" stroke-width="0.765" stroke-linecap="round" stroke-linejoin="round" stroke-miterlimit="10" d="
						M65.722,176.475c0,0,0.155-0.177,0.396-0.449c0.122-0.133,0.266-0.288,0.422-0.458c0.135-0.179,0.279-0.372,0.428-0.569
						c0.618-0.772,1.068-1.657,1.298-1.868"/>
					<path fill="none" stroke="#505050" stroke-width="0.765" stroke-linecap="round" stroke-linejoin="round" d="M44.45,182.667
						c0.351,0.01,2.15-0.167,3.673-0.772c0.759-0.268,1.456-0.643,1.926-1.035c0.468-0.383,0.708-0.762,0.601-1.099
						c-0.242-0.772-0.759-0.818-1.371-0.532c-0.602,0.264-1.337,0.926-1.915,1.648c-0.567,0.709-0.981,1.528-0.794,2.235
						c0.092,0.36,0.339,0.681,0.794,0.903c0.454,0.215,1.1,0.434,1.983,0.394"/>
					<path fill="none" stroke="#505050" stroke-width="0.765" stroke-linecap="round" stroke-linejoin="round" d="M38.512,179.942
						c0.878-1.037,1.708-2.118,2.081-3.538"/>
					<path fill="none" stroke="#505050" stroke-width="0.765" stroke-linecap="round" stroke-linejoin="round" d="M38.979,178.79
						c-0.353-0.135-0.686-0.271-0.992-0.407c-0.284-0.159-0.546-0.316-0.786-0.469c-0.495-0.293-0.834-0.623-1.094-0.916
						c-0.547-0.568-0.647-1.067-0.555-1.386c0.199-0.646,1.277-0.708,2.287-0.645c0.54,0.021,1.055,0.092,1.472,0.219
						c0.462,0.104,0.816,0.273,1.004,0.551C40.736,176.233,40.59,177.237,38.979,178.79"/>
					
						<path fill="none" stroke="#505050" stroke-width="0.765" stroke-linecap="round" stroke-linejoin="round" stroke-miterlimit="10" d="
						M46.525,177.548c-0.51-0.243-2.41,4.918-3.162,4.747c-0.355-0.11-0.428-1.299-0.458-2.476c-0.039-1.19,0.03-2.418-0.452-2.663
						c-0.436-0.296-1.112,0.684-1.634,1.761c-0.527,1.076-0.856,2.283-0.856,2.283"/>
					<path fill="none" stroke="#505050" stroke-width="0.51" stroke-miterlimit="10" d="M72.059,170.105
						c0.266,0.007,0.458,0.323,0.433,0.71c-0.01,0.388-0.292,0.657-0.556,0.611c-0.258-0.044-0.404-0.356-0.398-0.704
						C71.559,170.375,71.794,170.1,72.059,170.105z"/>
				</g>
			</g>
		</g>
	</g>
	<text transform="matrix(1 0 0 1 -20.1665 151.8091)" font-family="'ILoveGlitter'" font-size="12">jane m. z.</text>
	<g>
		<path fill="none" stroke="#505050" stroke-width="0.5" stroke-miterlimit="10" d="M40.081,88.205
			c0.04,0.05,0.055,0.108,0.043,0.175c-0.013,0.066-0.043,0.121-0.093,0.162c-0.018,0.015-0.051,0.031-0.098,0.05
			c-0.646,0.147-1.41,0.161-2.293,0.04c-0.884-0.123-1.87-0.31-2.959-0.562c-0.196,0.141-0.404,0.269-0.625,0.384
			c-0.222,0.114-0.449,0.206-0.683,0.275c-0.357,0.107-0.699,0.146-1.025,0.114s-0.582-0.158-0.765-0.381
			c-0.112-0.135-0.159-0.277-0.142-0.427c0.017-0.148,0.085-0.282,0.205-0.401c0.198-0.164,0.417-0.27,0.657-0.316
			c0.24-0.049,0.489-0.062,0.745-0.039c0.257,0.021,0.516,0.062,0.777,0.121c0.262,0.059,0.515,0.111,0.761,0.158
			c0.712-0.494,1.411-1.023,2.096-1.589c0.129-0.106,0.256-0.211,0.379-0.313c0.124-0.102,0.25-0.211,0.381-0.329
			c0.049-0.041,0.104-0.056,0.166-0.044s0.115,0.045,0.161,0.102c0.041,0.049,0.057,0.105,0.047,0.17
			c-0.009,0.064-0.037,0.117-0.087,0.158c-0.13,0.106-0.252,0.21-0.367,0.31c-0.115,0.101-0.225,0.193-0.33,0.28
			c-0.383,0.314-0.713,0.577-0.992,0.786c-0.278,0.209-0.553,0.415-0.822,0.616c0.422,0.098,0.846,0.186,1.27,0.267
			c0.424,0.081,0.835,0.144,1.235,0.187c0.399,0.045,0.778,0.066,1.136,0.066c0.358,0.001,0.685-0.033,0.981-0.102
			C39.939,88.103,40.02,88.131,40.081,88.205z M31.953,88.157c0.092,0.111,0.225,0.178,0.398,0.2
			c0.174,0.022,0.362,0.018,0.564-0.015c0.202-0.031,0.401-0.086,0.596-0.164c0.195-0.078,0.359-0.161,0.493-0.251
			c-0.118-0.017-0.267-0.044-0.448-0.081s-0.368-0.062-0.56-0.075c-0.192-0.013-0.378-0.007-0.56,0.019
			c-0.181,0.025-0.328,0.084-0.438,0.176c-0.025,0.02-0.047,0.046-0.067,0.078S31.918,88.114,31.953,88.157z M39.02,83.901
			c0.031-0.025,0.057-0.042,0.078-0.049c0.02-0.006,0.036-0.015,0.049-0.025c0.019-0.015,0.03-0.035,0.035-0.061
			c0.006-0.024,0.029-0.055,0.073-0.09c0.043-0.036,0.099-0.054,0.167-0.053s0.125,0.029,0.171,0.084
			c0.065,0.08,0.077,0.167,0.034,0.26c-0.043,0.092-0.102,0.169-0.176,0.23c-0.061,0.051-0.137,0.092-0.225,0.123
			s-0.168,0.004-0.239-0.082c-0.056-0.068-0.077-0.132-0.062-0.189C38.939,83.991,38.971,83.941,39.02,83.901z"/>
		<path fill="none" stroke="#505050" stroke-width="0.5" stroke-miterlimit="10" d="M41.971,93.156
			c0.188,0.105,0.436,0.126,0.74,0.063c0.306-0.062,0.631-0.174,0.978-0.334c0.345-0.16,0.692-0.346,1.04-0.559
			c0.349-0.214,0.666-0.42,0.95-0.618c0.085-0.054,0.169-0.057,0.253-0.01c0.056,0.031,0.09,0.08,0.104,0.147
			c0.013,0.066,0.004,0.128-0.027,0.184c-0.008,0.014-0.023,0.035-0.049,0.062c-0.024,0.027-0.086,0.073-0.186,0.137
			c-0.244,0.156-0.541,0.344-0.891,0.561c-0.351,0.217-0.712,0.409-1.085,0.576c-0.373,0.168-0.741,0.282-1.106,0.344
			c-0.364,0.062-0.68,0.02-0.945-0.129s-0.438-0.365-0.516-0.652c-0.078-0.286-0.081-0.584-0.01-0.892
			c-0.094,0.085-0.201,0.169-0.326,0.251c-0.123,0.082-0.252,0.145-0.387,0.189c-0.135,0.043-0.272,0.064-0.414,0.064
			c-0.142-0.002-0.278-0.039-0.411-0.113c-0.195-0.109-0.339-0.251-0.429-0.426c-0.091-0.174-0.139-0.363-0.144-0.567
			s0.028-0.419,0.1-0.646s0.167-0.447,0.288-0.664c0.145-0.258,0.316-0.496,0.516-0.715c0.2-0.219,0.412-0.397,0.638-0.537
			c0.225-0.141,0.454-0.228,0.688-0.262s0.46,0.01,0.677,0.131c0.132,0.074,0.239,0.174,0.319,0.302
			c0.08,0.127,0.133,0.265,0.16,0.413s0.029,0.297,0.004,0.448c-0.024,0.151-0.074,0.294-0.148,0.426
			c-0.027,0.049-0.067,0.089-0.121,0.118c-0.053,0.029-0.117,0.023-0.195-0.02c-0.118-0.066-0.156-0.162-0.115-0.285
			c0.068-0.236,0.09-0.444,0.066-0.623c-0.024-0.178-0.106-0.307-0.246-0.385c-0.125-0.07-0.271-0.08-0.436-0.03
			c-0.166,0.05-0.338,0.14-0.516,0.27s-0.348,0.29-0.508,0.479c-0.161,0.189-0.3,0.389-0.417,0.598
			c-0.175,0.314-0.272,0.618-0.288,0.911c-0.018,0.293,0.096,0.508,0.341,0.645c0.146,0.081,0.305,0.085,0.475,0.011
			s0.335-0.182,0.495-0.321s0.309-0.293,0.443-0.46c0.135-0.168,0.242-0.307,0.322-0.418c0.084-0.118,0.189-0.143,0.314-0.072
			c0.063,0.035,0.103,0.08,0.118,0.135c0.015,0.055,0.011,0.111-0.013,0.172c-0.057,0.115-0.123,0.272-0.202,0.471
			c-0.079,0.199-0.139,0.404-0.179,0.615s-0.043,0.411-0.012,0.599C41.713,92.928,41.81,93.067,41.971,93.156z"/>
		<path fill="none" stroke="#505050" stroke-width="0.5" stroke-miterlimit="10" d="M46.464,92.053
			c0.017-0.062,0.053-0.109,0.11-0.14c0.057-0.03,0.121-0.037,0.19-0.02c0.062,0.017,0.104,0.052,0.128,0.106
			c0.022,0.057,0.033,0.121,0.031,0.194c-0.01,0.163-0.023,0.341-0.045,0.534c-0.02,0.192-0.043,0.373-0.07,0.539
			c0.067-0.131,0.154-0.299,0.26-0.504c0.105-0.203,0.222-0.398,0.348-0.586c0.127-0.186,0.259-0.34,0.397-0.461
			c0.138-0.121,0.273-0.166,0.405-0.132c0.094,0.023,0.156,0.081,0.191,0.173c0.034,0.092,0.052,0.207,0.053,0.348
			c0.002,0.141-0.009,0.301-0.03,0.482c-0.021,0.18-0.038,0.371-0.048,0.575c-0.023,0.283-0.039,0.568-0.046,0.855
			c-0.008,0.287,0.001,0.554,0.024,0.8c0.023,0.245,0.068,0.45,0.133,0.615c0.065,0.166,0.164,0.266,0.295,0.299
			c0.21,0.054,0.452,0.011,0.728-0.129c0.275-0.141,0.56-0.332,0.853-0.574c0.294-0.243,0.582-0.512,0.863-0.808
			c0.283-0.296,0.536-0.575,0.761-0.84c0.068-0.073,0.149-0.099,0.241-0.074c0.062,0.017,0.108,0.055,0.139,0.116
			c0.029,0.061,0.036,0.123,0.021,0.185c-0.004,0.016-0.015,0.04-0.031,0.072c-0.017,0.033-0.065,0.093-0.146,0.18
			c-0.195,0.214-0.434,0.472-0.717,0.771s-0.584,0.577-0.901,0.834c-0.317,0.258-0.646,0.463-0.981,0.615
			c-0.336,0.154-0.652,0.193-0.947,0.117c-0.186-0.047-0.334-0.149-0.447-0.307c-0.113-0.156-0.196-0.346-0.252-0.566
			c-0.055-0.22-0.089-0.464-0.104-0.732c-0.014-0.268-0.016-0.539-0.008-0.812c0.008-0.275,0.025-0.543,0.051-0.805
			s0.045-0.498,0.059-0.71c-0.172,0.22-0.338,0.473-0.498,0.758c-0.16,0.286-0.307,0.571-0.443,0.859
			c-0.135,0.287-0.254,0.564-0.355,0.831c-0.102,0.268-0.18,0.493-0.234,0.678c-0.05,0.127-0.146,0.182-0.289,0.16
			c-0.141-0.035-0.199-0.129-0.176-0.279c0.08-0.409,0.146-0.77,0.202-1.082s0.11-0.656,0.166-1.035
			C46.398,92.777,46.438,92.41,46.464,92.053z"/>
		<path fill="none" stroke="#505050" stroke-width="0.5" stroke-miterlimit="10" d="M53.804,97.065
			c-0.277-0.022-0.501-0.125-0.669-0.307s-0.297-0.414-0.385-0.699c-0.09-0.283-0.142-0.598-0.158-0.945
			c-0.016-0.346-0.01-0.698,0.02-1.057c0.016-0.199,0.043-0.387,0.08-0.561c0.037-0.173,0.088-0.324,0.149-0.451
			s0.14-0.226,0.231-0.295c0.094-0.068,0.199-0.098,0.318-0.088c0.134,0.01,0.26,0.101,0.377,0.27
			c0.118,0.171,0.166,0.436,0.146,0.795c-0.021,0.255-0.093,0.555-0.215,0.897c-0.123,0.344-0.305,0.727-0.545,1.148
			c0.061,0.229,0.145,0.419,0.252,0.567c0.107,0.149,0.253,0.231,0.436,0.246c0.215,0.018,0.447-0.066,0.694-0.252
			s0.495-0.422,0.743-0.711s0.485-0.604,0.713-0.942s0.43-0.658,0.605-0.957c0.055-0.084,0.131-0.122,0.227-0.114
			c0.063,0.005,0.115,0.035,0.154,0.09c0.04,0.057,0.058,0.115,0.053,0.18c-0.002,0.016-0.008,0.041-0.018,0.076
			c-0.012,0.035-0.049,0.104-0.113,0.202c-0.156,0.244-0.348,0.538-0.576,0.881c-0.228,0.343-0.477,0.669-0.745,0.976
			c-0.27,0.309-0.558,0.566-0.862,0.774C54.411,96.997,54.107,97.088,53.804,97.065z M53.071,94.322
			c-0.007,0.096-0.015,0.193-0.023,0.293c-0.008,0.101-0.008,0.202,0,0.308c0.233-0.512,0.362-0.927,0.388-1.246
			c0.004-0.16-0.007-0.283-0.033-0.369c-0.027-0.086-0.048-0.139-0.063-0.156c-0.095,0.113-0.157,0.275-0.189,0.484
			C53.117,93.846,53.092,94.075,53.071,94.322z"/>
		<path fill="none" stroke="#505050" stroke-width="0.5" stroke-miterlimit="10" d="M60.98,95.034
			c0.002-0.122,0.004-0.307,0.01-0.551c0.006-0.246,0.024-0.496,0.057-0.751s0.084-0.482,0.155-0.685
			c0.071-0.2,0.177-0.314,0.319-0.342c0.164-0.032,0.314,0.03,0.451,0.188c0.137,0.156,0.259,0.35,0.368,0.576
			c0.108,0.229,0.2,0.461,0.275,0.699s0.136,0.418,0.184,0.539c0.013-0.149,0.024-0.352,0.036-0.606s0.036-0.508,0.072-0.76
			c0.037-0.251,0.092-0.474,0.165-0.667s0.176-0.303,0.31-0.328c0.094-0.02,0.176,0.006,0.246,0.074s0.137,0.165,0.197,0.291
			c0.061,0.127,0.121,0.277,0.178,0.449c0.059,0.172,0.125,0.353,0.203,0.541c0.1,0.266,0.208,0.53,0.324,0.793
			c0.115,0.264,0.237,0.5,0.363,0.712c0.127,0.212,0.255,0.379,0.385,0.501c0.129,0.121,0.26,0.169,0.395,0.143
			c0.211-0.041,0.412-0.184,0.602-0.428c0.188-0.244,0.363-0.539,0.525-0.883c0.161-0.346,0.307-0.712,0.436-1.1
			c0.129-0.387,0.238-0.748,0.328-1.084c0.03-0.096,0.093-0.152,0.188-0.17c0.062-0.012,0.12,0.003,0.174,0.045
			c0.053,0.043,0.086,0.096,0.098,0.158c0.003,0.017,0.004,0.043,0.003,0.08s-0.02,0.111-0.055,0.225
			c-0.085,0.276-0.191,0.611-0.319,1.002c-0.129,0.392-0.281,0.771-0.458,1.14c-0.178,0.368-0.386,0.694-0.624,0.976
			c-0.238,0.283-0.508,0.453-0.807,0.511c-0.188,0.036-0.367,0.009-0.535-0.086c-0.17-0.093-0.326-0.228-0.47-0.404
			c-0.144-0.176-0.279-0.382-0.407-0.618c-0.127-0.236-0.244-0.479-0.354-0.731s-0.209-0.501-0.298-0.749
			c-0.088-0.248-0.172-0.471-0.251-0.667c-0.062,0.272-0.103,0.572-0.126,0.898c-0.021,0.326-0.033,0.647-0.033,0.966
			s0.012,0.619,0.034,0.904s0.048,0.521,0.077,0.712c0.013,0.152-0.051,0.242-0.193,0.27c-0.039,0.008-0.088,0.005-0.148-0.008
			c-0.059-0.013-0.111-0.072-0.156-0.178c-0.041-0.212-0.107-0.472-0.199-0.78s-0.198-0.623-0.317-0.947
			c-0.12-0.322-0.245-0.635-0.376-0.936c-0.132-0.301-0.257-0.545-0.375-0.734c-0.061,0.191-0.104,0.453-0.129,0.783
			c-0.026,0.331-0.043,0.676-0.051,1.036s-0.008,0.708,0,1.045s0.02,0.609,0.036,0.818c0.01,0.137-0.054,0.227-0.192,0.27
			c-0.142,0.026-0.234-0.032-0.279-0.179c-0.102-0.404-0.195-0.758-0.279-1.064c-0.083-0.306-0.18-0.641-0.291-1.007
			c-0.112-0.365-0.232-0.715-0.362-1.048c-0.013-0.062,0.001-0.121,0.04-0.174c0.039-0.051,0.094-0.084,0.164-0.098
			c0.062-0.013,0.117,0.002,0.161,0.041c0.044,0.041,0.081,0.095,0.11,0.162c0.031,0.076,0.064,0.168,0.102,0.273
			c0.037,0.107,0.074,0.217,0.113,0.327c0.037,0.111,0.074,0.222,0.112,0.333S60.958,94.958,60.98,95.034z"/>
		<path fill="none" stroke="#505050" stroke-width="0.5" stroke-miterlimit="10" d="M69.763,94.76
			c-0.003-0.051-0.007-0.083-0.013-0.098c-0.003-0.008-0.012-0.02-0.026-0.035s-0.028-0.029-0.042-0.041
			c-0.046-0.051-0.066-0.109-0.062-0.176s0.031-0.121,0.083-0.168c0.051-0.045,0.109-0.066,0.175-0.062
			c0.066,0.005,0.123,0.032,0.168,0.083c0.075,0.082,0.121,0.145,0.139,0.189s0.038,0.119,0.061,0.222
			c0.009,0.065-0.002,0.121-0.031,0.167s-0.07,0.078-0.121,0.1l-0.045,0.018c-0.066,0.008-0.127-0.007-0.186-0.045
			C69.805,94.877,69.771,94.827,69.763,94.76z"/>
		<path fill="none" stroke="#505050" stroke-width="0.5" stroke-miterlimit="10" d="M77.318,90.006
			c0.16-0.146,0.254-0.375,0.284-0.686c0.03-0.31,0.023-0.654-0.021-1.032c-0.043-0.378-0.111-0.767-0.205-1.163
			c-0.094-0.398-0.19-0.763-0.289-1.096c-0.025-0.098-0.002-0.178,0.069-0.243c0.047-0.044,0.104-0.061,0.172-0.052
			c0.067,0.008,0.123,0.036,0.167,0.083c0.01,0.012,0.025,0.034,0.043,0.065c0.019,0.032,0.043,0.105,0.072,0.22
			c0.049,0.183,0.104,0.397,0.168,0.644c0.062,0.246,0.12,0.504,0.171,0.771c0.052,0.27,0.092,0.541,0.123,0.816
			c0.03,0.276,0.039,0.543,0.025,0.8s-0.056,0.491-0.127,0.704c-0.071,0.212-0.181,0.386-0.327,0.521
			c-0.195,0.178-0.408,0.316-0.639,0.414s-0.455,0.182-0.672,0.252c0.012,0.369-0.1,0.661-0.335,0.878
			c-0.183,0.167-0.367,0.253-0.554,0.257c-0.188,0.004-0.341-0.06-0.46-0.189c-0.124-0.135-0.173-0.297-0.146-0.486
			c0.028-0.188,0.109-0.344,0.246-0.469c0.082-0.076,0.186-0.139,0.309-0.188c0.124-0.048,0.264-0.094,0.418-0.139
			c-0.054-0.212-0.115-0.422-0.188-0.629c-0.07-0.208-0.145-0.416-0.223-0.623c-0.076-0.209-0.148-0.419-0.213-0.633
			c-0.065-0.213-0.113-0.436-0.145-0.67c-0.006,0.017-0.023,0.039-0.053,0.065c-0.172,0.157-0.344,0.269-0.518,0.333
			c-0.175,0.064-0.342,0.116-0.5,0.156c-0.125,0.029-0.234,0.064-0.33,0.104c-0.094,0.039-0.176,0.09-0.247,0.155
			c-0.2,0.185-0.248,0.398-0.144,0.643c0.067,0.108,0.054,0.206-0.041,0.292c-0.047,0.044-0.104,0.064-0.17,0.062
			c-0.068-0.002-0.123-0.025-0.164-0.072c-0.08-0.086-0.131-0.186-0.152-0.299c-0.022-0.112-0.021-0.227,0.001-0.344
			c0.023-0.117,0.063-0.23,0.119-0.34c0.056-0.11,0.129-0.206,0.217-0.287c0.106-0.098,0.228-0.172,0.365-0.225
			c0.137-0.051,0.278-0.099,0.423-0.142c0.146-0.043,0.288-0.092,0.428-0.146c0.141-0.054,0.27-0.136,0.388-0.243
			c0.118-0.109,0.205-0.232,0.262-0.372c0.057-0.139,0.136-0.255,0.235-0.347c0.047-0.043,0.104-0.064,0.168-0.064
			c0.065,0,0.119,0.023,0.163,0.07c0.075,0.082,0.092,0.17,0.048,0.266c-0.045,0.27-0.047,0.537-0.004,0.802s0.107,0.528,0.196,0.79
			c0.088,0.262,0.182,0.52,0.282,0.775c0.1,0.257,0.183,0.517,0.251,0.779c0.188-0.054,0.374-0.124,0.557-0.21
			C77.008,90.252,77.172,90.141,77.318,90.006z M75.684,91.542c0.094-0.086,0.15-0.208,0.168-0.365
			c-0.092,0.029-0.177,0.062-0.255,0.095c-0.077,0.034-0.14,0.071-0.188,0.115c-0.102,0.126-0.128,0.216-0.079,0.269
			c0.027,0.018,0.072,0.023,0.135,0.014C75.527,91.661,75.601,91.618,75.684,91.542z"/>
		<path fill="none" stroke="#505050" stroke-width="0.5" stroke-miterlimit="10" d="M80.672,85.455
			c-0.039-0.031-0.066-0.05-0.082-0.056c-0.008-0.002-0.021-0.004-0.043-0.003s-0.041,0.003-0.06,0.005
			c-0.067,0-0.126-0.023-0.173-0.07s-0.07-0.104-0.07-0.172c-0.002-0.068,0.021-0.126,0.068-0.173s0.104-0.071,0.173-0.071
			c0.111-0.002,0.19,0.005,0.235,0.021c0.045,0.016,0.113,0.05,0.205,0.1c0.055,0.037,0.09,0.082,0.105,0.135
			c0.015,0.052,0.013,0.104-0.006,0.157l-0.018,0.045c-0.036,0.055-0.088,0.091-0.154,0.11C80.787,85.5,80.727,85.492,80.672,85.455
			z"/>
	</g>
</g>
<g id="Layer_6" display="none">
	<g display="inline">
		<g>
			<path fill="none" stroke="#505050" stroke-width="0.5" stroke-miterlimit="10" d="M66.55,97.09c0,0.234-0.191,0.424-0.424,0.424
				c-0.236,0-0.426-0.189-0.426-0.424s0.189-0.426,0.426-0.426C66.36,96.667,66.55,96.856,66.55,97.09z"/>
			<path fill="none" stroke="#505050" stroke-width="0.5" stroke-miterlimit="10" d="M64.563,97.928c0,0-1.796-5.229-2.273-5.24
				c-0.479-0.007-0.096,4.85-0.54,4.97c-0.441,0.117-1.577-3.616-2.425-3.539c-0.851,0.077,0.333,4.198,0.333,4.198"/>
			<path fill="none" stroke="#505050" stroke-width="0.5" stroke-miterlimit="10" d="M68.581,90.256c0,0,3.715-4.173,3.325,0.984
				c0.018,0.822,0.036,1.644,0.054,2.466c0,0-0.039,1.344,1.241,0.218c0.454-0.543,0.909-1.087,1.363-1.63"/>
			<path fill="none" stroke="#505050" stroke-width="0.5" stroke-miterlimit="10" d="M69.959,92.266c0,0,2.557-1.402,3.099-1.403"/>
			<g>
				<path fill="none" stroke="#505050" stroke-width="0.5" stroke-miterlimit="10" d="M28.082,85.864
					c-4.091,5.079,6.287,0.157,9.917-1.892"/>
				<path fill="none" stroke="#505050" stroke-width="0.5" stroke-miterlimit="10" d="M40.441,83.005
					c-0.207,0.106-0.465,0.025-0.571-0.184c-0.106-0.208-0.023-0.466,0.185-0.572c0.211-0.106,0.467-0.023,0.572,0.185
					C40.734,82.643,40.65,82.898,40.441,83.005z"/>
				<path fill="none" stroke="#505050" stroke-width="0.5" stroke-miterlimit="10" d="M32.946,86.581"/>
			</g>
			<path fill="none" stroke="#505050" stroke-width="0.5" stroke-miterlimit="10" d="M47.221,96.008
				c0.457-0.076,4.655-1.119,4.644-2.327c-0.025-2.75-6.047,3.255-1.852,3.833"/>
			<path fill="none" stroke="#505050" stroke-width="0.5" stroke-miterlimit="10" d="M40.036,90.038
				c0.87-0.835,1.756-1.658,2.25-2.832"/>
			<path fill="none" stroke="#505050" stroke-width="0.5" stroke-miterlimit="10" d="M40.625,89.137
				C32.891,86.299,46.767,84.129,40.625,89.137"/>
			<path fill="none" stroke="#505050" stroke-width="0.5" stroke-miterlimit="10" d="M48.042,91.394
				c-0.309-0.366-3.714,3.118-4.095,2.864c-0.38-0.256,1.685-3.567,1.066-4.155c-0.616-0.591-2.941,3.012-2.941,3.012"/>
			<path fill="none" stroke="#505050" stroke-width="0.5" stroke-miterlimit="10" d="M76.767,92.116
				c0.097,0.214,0.003,0.466-0.211,0.562c-0.213,0.097-0.465,0.001-0.562-0.213S75.991,92,76.205,91.903S76.67,91.902,76.767,92.116
				z"/>
		</g>
	</g>
	
		<use xlink:href="#J"  width="14.031" height="6.386" x="-7.016" y="-3.193" transform="matrix(0.7327 -0.6805 -0.6805 -0.7327 29 70.5415)" display="inline" overflow="visible"/>
</g>
</svg>
