<?xml version="1.0" encoding="utf-8"?>
<!-- Generator: Adobe Illustrator 16.0.0, SVG Export Plug-In . SVG Version: 6.00 Build 0)  -->
<!DOCTYPE svg PUBLIC "-//W3C//DTD SVG 1.1//EN" "http://www.w3.org/Graphics/SVG/1.1/DTD/svg11.dtd">
<svg version="1.1" xmlns="http://www.w3.org/2000/svg" xmlns:xlink="http://www.w3.org/1999/xlink" x="0px" y="0px"
	 width="99.667px" height="26.166px" viewBox="-33.917 52.042 99.667 26.166" enable-background="new -33.917 52.042 99.667 26.166"
	 xml:space="preserve">
<symbol  id="crossed_x5F_hand" viewBox="-10.709 -20.523 21.418 41.047">
	<path fill="#FFFFFF" d="M-3.345-19.772c0,0-11.137,10.778-4.651,20.863l1.846-0.019c0,0,2.326,5.524,3.231,4.635l2.411-3.075
		l2.366,5.721l-1.791,7.437c0,0,0.21,4.166,3.284,1.341l0.756-2.441l1.715,4.125c0,0,2.572,2.828,2.885-1.448L5.871,9.247
		l2.308-8.051l1.594-5.384c0,0,0.449-15.515-7.288-15.49C2.484-19.677-0.216-20.195-3.345-19.772z"/>
	<g id="base_2_">
		<path fill="none" stroke="#505050" stroke-width="1.5" stroke-linecap="round" stroke-linejoin="round" d="M-3.585-19.436
			c0,0-5.65,3.149-6.361,14.018"/>
	</g>
	<g id="fingers_down_1_">
		<path fill="none" stroke="#505050" stroke-width="1.5" stroke-linecap="round" stroke-linejoin="round" d="M-9.946-5.418
			c0,0-0.393,7.381,3.18,6.549c0,0,2.637-2.224,3.683-5.148c0,0,1.523-2.459,0.601-3.328c0,0-2.29-0.562-2.462,2.374
			c0,0-1.485,1.627-2.436,3.064c0,0,0.696-0.586-0.333-2.567"/>
		<path fill="none" stroke="#505050" stroke-width="1.5" stroke-linecap="round" stroke-linejoin="round" d="M-6.073,1.07
			c0,0,1.803,6.699,3.885,4.112c0,0,1.386-1.88,2.684-4.941"/>
		<path fill="none" stroke="#505050" stroke-width="1.5" stroke-linecap="round" stroke-linejoin="round" d="M9.937-5.154
			c-0.24,4.337-2.17,5.397-2.17,5.397"/>
		<path fill="none" stroke="#505050" stroke-width="1.5" stroke-linecap="round" stroke-linejoin="round" d="M1.111-2.1
			c0,0,0.372-4.067-2.123-1.759c0,0-0.585,1.079-0.703,1.955c0,0-1.649,2.798-1.927,3.545c0,0,1.135-1.667,0-3.974"/>
		
			<line fill="none" stroke="#505050" stroke-width="1.5" stroke-linecap="round" stroke-linejoin="round" x1="6.261" y1="-5.613" x2="5.634" y2="-2.765"/>
		<path fill="none" stroke="#505050" stroke-width="1.5" stroke-linecap="round" stroke-linejoin="round" d="M9.937-5.154
			c-0.24,4.337-2.17,5.397-2.17,5.397C4.987-0.376-0.12,0.126-0.12,0.126c-0.171-3.805,6.357-2.778,6.357-2.778"/>
		<path fill="none" stroke="#505050" stroke-width="1.5" stroke-linecap="round" stroke-linejoin="round" d="M2.562-19.679
			c1.934-0.511,3.516,1.213,3.516,1.213c3.035,2.994,3.736,10.01,3.736,10.01c0.145,1.269,0.173,2.36,0.122,3.302"/>
		<path fill="none" stroke="#505050" stroke-width="1.5" stroke-linecap="round" stroke-linejoin="round" d="M4.46-7.696
			c0,0-3.004-4.003-1.766-7.728"/>
	</g>
	<g id="crossed_1_">
		
			<line fill="none" stroke="#505050" stroke-width="1.5" stroke-linecap="round" stroke-linejoin="round" x1="3.429" y1="2.949" x2="2.979" y2="1.384"/>
		<path fill="none" stroke="#505050" stroke-width="1.5" stroke-linecap="round" stroke-linejoin="round" d="M-0.431,2.166
			l2.366,7.08"/>
		<path fill="none" stroke="#505050" stroke-width="1.5" stroke-linecap="round" stroke-linejoin="round" d="M4.036,1.584
			L0.145,15.786c0,0,0.054,4.317,3.076,1.468L9.107-1.521"/>
		<path fill="none" stroke="#505050" stroke-width="1.5" stroke-linecap="round" stroke-linejoin="round" d="M5.946,8.558
			l2.837,8.805c0,0-0.05,4.264-2.886,1.451l-1.713-4.639"/>
	</g>
	<polygon display="none" fill="none" points="-11,20 11,20 11,-20 -11,-20 	"/>
</symbol>
<symbol  id="open_x5F_hand" viewBox="-16.7 -20.719 33.399 41.438">
	<g id="open_2_">
		<path fill="#FFFFFF" d="M-4.707-19.87c4.201-1.419,6.148-0.244,6.148-0.244C3.374-20.625,4.956-18.9,4.956-18.9
			c3.035,2.994,6.013,13.319,6.013,13.319c1.43,3.115,4.809,6.359,4.809,6.359c0.84,1.932-1.679,1.654-1.679,1.654
			c-1.298,0.075-5.19-4.503-5.19-4.503S5.726-3.359,5.961-0.136l0.021,0.25L7.91,16.646c-1.438,3.321-3.259,0.057-3.259,0.057
			L1,0.201v-0.315l-1.712,18.256c0,0-1.448,3.479-2.829,0.368l0.77-20.003L-8.13,14.955c0,0-1.702,3.054-2.494-0.564l2.729-17.333
			l-5.906,12.121c0,0-2.172,1.907-2.151-0.922l4.884-14.109C-10.571-14.869-4.707-19.87-4.707-19.87z"/>
	</g>
	<g id="base_1_">
		<path fill="none" stroke="#505050" stroke-width="1.5" stroke-linecap="round" stroke-linejoin="round" d="M-4.707-19.633
			c0,0-5.649,3.153-6.36,14.019"/>
	</g>
	<g id="open_1_">
		<path fill="none" stroke="#505050" stroke-width="1.5" stroke-linecap="round" stroke-linejoin="round" d="M1.471,0.439
			l3.416,16.503c0,0,1.586,3.264,3.023-0.057L5.981,0.352"/>
		<path fill="none" stroke="#505050" stroke-width="1.5" stroke-linecap="round" stroke-linejoin="round" d="M-2.533,0.124
			l-0.881,18.393c1.371,3.344,2.938-0.135,2.938-0.135L1.471,0.124"/>
		<path fill="none" stroke="#505050" stroke-width="1.5" stroke-linecap="round" stroke-linejoin="round" d="M-7.352-1.329
			l-3.258,15.959c0.791,3.615,2.509,0.563,2.509,0.563l4.866-16.314"/>
		<path fill="none" stroke="#505050" stroke-width="1.5" stroke-linecap="round" stroke-linejoin="round" d="M-11.356-5.46
			L-15.95,8.495c-0.021,2.83,2.153,0.923,2.153,0.923l5.909-12.123"/>
		<path fill="none" stroke="#505050" stroke-width="1.5" stroke-linecap="round" stroke-linejoin="round" d="M1.441-19.874
			c1.933-0.512,3.515,1.211,3.515,1.211c3.035,2.996,6.013,13.321,6.013,13.321c1.43,3.114,4.809,6.358,4.809,6.358
			c0.84,1.932-1.679,1.654-1.679,1.654c-1.298,0.076-5.19-4.503-5.19-4.503S5.726-3.119,5.961,0.105"/>
		<path fill="none" stroke="#505050" stroke-width="1.5" stroke-linecap="round" stroke-linejoin="round" d="M4.361-6.65
			c0,0-3.791-3.269-3.382-7.169"/>
	</g>
	<polygon display="none" fill="none" points="-17,20 17,20 17,-20 -17,-20 	"/>
</symbol>
<g id="Open">
	<g id="fingers_down" display="none">
		
			<path display="inline" fill="none" stroke="#000000" stroke-width="3" stroke-linecap="round" stroke-linejoin="round" stroke-miterlimit="10" d="
			M4.119,58.86c0,0-0.854-16.121,6.945-14.302c0,0,5.759,4.854,8.042,11.241c0,0,3.327,5.371,1.31,7.271
			c0,0-4.999,1.224-5.375-5.187c0,0-3.244-3.551-5.318-6.69c0,0,1.522,1.279-0.725,5.608"/>
		
			<path display="inline" fill="none" stroke="#000000" stroke-width="3" stroke-linecap="round" stroke-linejoin="round" stroke-miterlimit="10" d="
			M12.578,44.689c0,0,3.937-14.629,8.485-8.979c0,0,3.026,4.106,5.858,10.791"/>
		
			<path display="inline" fill="none" stroke="#000000" stroke-width="3" stroke-linecap="round" stroke-linejoin="round" stroke-miterlimit="10" d="
			M47.54,58.286c-0.521-9.473-4.735-11.789-4.735-11.789"/>
		
			<path display="inline" fill="none" stroke="#000000" stroke-width="3" stroke-linecap="round" stroke-linejoin="round" stroke-miterlimit="10" d="
			M28.269,51.613c0,0,0.814,8.88-4.638,3.839c0,0-1.276-2.354-1.536-4.271c0,0-3.598-6.11-4.206-7.74c0,0,2.476,3.642,0,8.677"/>
		
			<line display="inline" fill="none" stroke="#000000" stroke-width="3" stroke-linecap="round" stroke-linejoin="round" stroke-miterlimit="10" x1="39.514" y1="59.284" x2="38.145" y2="53.066"/>
		
			<path display="inline" fill="none" stroke="#000000" stroke-width="3" stroke-linecap="round" stroke-linejoin="round" stroke-miterlimit="10" d="
			M47.54,58.286c-0.521-9.473-4.735-11.789-4.735-11.789c-6.071,1.35-17.226,0.256-17.226,0.256
			c-0.374,8.306,13.882,6.068,13.882,6.068"/>
		
			<path display="inline" fill="none" stroke="#000000" stroke-width="3" stroke-linecap="round" stroke-linejoin="round" stroke-miterlimit="10" d="
			M31.436,90.002c4.22,1.117,7.675-2.648,7.675-2.648c6.63-6.539,8.162-21.859,8.162-21.859c0.314-2.771,0.377-5.158,0.265-7.209"/>
		
			<path display="inline" fill="none" stroke="#000000" stroke-width="3" stroke-linecap="round" stroke-linejoin="round" stroke-miterlimit="10" d="
			M35.581,63.833c0,0-6.559,8.746-3.859,16.875"/>
	</g>
	<g id="crossed" display="none">
		
			<line display="inline" fill="none" stroke="#000000" stroke-width="3" stroke-linecap="round" stroke-linejoin="round" stroke-miterlimit="10" x1="33.327" y1="40.586" x2="32.345" y2="44.006"/>
		
			<path display="inline" fill="none" stroke="#000000" stroke-width="3" stroke-linecap="round" stroke-linejoin="round" stroke-miterlimit="10" d="
			M24.9,42.297l5.169-15.463"/>
		
			<path display="inline" fill="none" stroke="#000000" stroke-width="3" stroke-linecap="round" stroke-linejoin="round" stroke-miterlimit="10" d="
			M34.655,43.57l-8.498-31.019c0,0,0.117-9.423,6.718-3.203L45.73,50.35"/>
		
			<path display="inline" fill="none" stroke="#000000" stroke-width="3" stroke-linecap="round" stroke-linejoin="round" stroke-miterlimit="10" d="
			M38.827,28.336L45.023,9.11c0,0-0.11-9.312-6.301-3.165l-3.744,10.126"/>
	</g>
	
		<use xlink:href="#open_x5F_hand"  width="33.399" height="41.438" id="XMLID_1_" x="-16.7" y="-20.719" transform="matrix(1 0 0 -1 88.75 122.0415)" overflow="visible"/>
	<g id="Layer_4" display="none">
		
			<line display="inline" fill="none" stroke="#000000" stroke-width="3" stroke-linecap="round" stroke-linejoin="round" stroke-miterlimit="10" x1="33.328" y1="40.564" x2="32.346" y2="43.984"/>
		
			<path display="inline" fill="none" stroke="#000000" stroke-width="3" stroke-linecap="round" stroke-linejoin="round" stroke-miterlimit="10" d="
			M38.83,28.316l6.902,22.013"/>
		
			<path display="inline" fill="none" stroke="#000000" stroke-width="3" stroke-linecap="round" stroke-linejoin="round" stroke-miterlimit="10" d="
			M38.83,28.316"/>
		
			<path display="inline" fill="none" stroke="#000000" stroke-width="3" stroke-linecap="round" stroke-linejoin="round" stroke-miterlimit="10" d="
			M30.125,26.708l-3.967-14.179c0,0,0.117-9.423,6.718-3.203l1.974,6.294"/>
		
			<path display="inline" fill="none" stroke="#000000" stroke-width="3" stroke-linecap="round" stroke-linejoin="round" stroke-miterlimit="10" d="
			M34.656,43.548l-0.835-3.049"/>
		
			<path display="inline" fill="none" stroke="#000000" stroke-width="3" stroke-linecap="round" stroke-linejoin="round" stroke-miterlimit="10" d="
			M33.328,40.564L45.025,9.089c0,0-0.111-9.312-6.301-3.165L24.9,42.275"/>
	</g>
	<g id="Layer_2">
	</g>
	<g id="open_4_">
		<path fill="#FFFFFF" d="M52.556,76.689c2.472,0.835,3.617,0.144,3.617,0.144c1.137,0.301,2.067-0.715,2.067-0.715
			c1.786-1.761,3.538-7.837,3.538-7.837c0.842-1.832,2.83-3.741,2.83-3.741c0.494-1.137-0.988-0.974-0.988-0.974
			c-0.764-0.044-3.054,2.65-3.054,2.65s-1.873,0.758-1.734-1.139l0.013-0.147l1.134-9.727C59.133,53.25,58.2,55.17,58.2,55.17
			l-2.01,9.709v0.186l-1.146-10.741c0,0-0.921-2.048-1.733-0.217l0.418,11.769l-3.17-9.678c0,0-1.01-1.796-1.476,0.333l1.601,10.198
			l-3.477-7.132c0,0-1.279-1.122-1.267,0.542l2.872,8.303C49.105,73.746,52.556,76.689,52.556,76.689z"/>
	</g>
	<g id="base_4_">
		<path fill="none" stroke="#505050" stroke-linecap="round" stroke-linejoin="round" d="M52.556,76.549
			c0,0-3.324-1.855-3.743-8.248"/>
	</g>
	<g id="open_3_">
		<path fill="none" stroke="#505050" stroke-linecap="round" stroke-linejoin="round" d="M56.19,64.739l2.01-9.71
			c0,0,0.933-1.92,1.778,0.033l-1.134,9.729"/>
		<path fill="none" stroke="#505050" stroke-linecap="round" stroke-linejoin="round" d="M53.835,64.925l-0.519-10.822
			c0.807-1.967,1.728,0.079,1.728,0.079l1.146,10.743"/>
		<path fill="none" stroke="#505050" stroke-linecap="round" stroke-linejoin="round" d="M50.999,65.78l-1.916-9.39
			c0.465-2.128,1.476-0.331,1.476-0.331l2.863,9.599"/>
		<path fill="none" stroke="#505050" stroke-linecap="round" stroke-linejoin="round" d="M48.644,68.21L45.94,60
			c-0.013-1.665,1.267-0.543,1.267-0.543l3.477,7.133"/>
		<path fill="none" stroke="#505050" stroke-linecap="round" stroke-linejoin="round" d="M56.173,76.691
			c1.137,0.301,2.067-0.713,2.067-0.713c1.786-1.763,3.538-7.837,3.538-7.837c0.842-1.833,2.83-3.742,2.83-3.742
			c0.494-1.136-0.988-0.973-0.988-0.973c-0.764-0.045-3.054,2.649-3.054,2.649s-1.873,0.757-1.734-1.14"/>
		<path fill="none" stroke="#505050" stroke-linecap="round" stroke-linejoin="round" d="M57.891,68.911c0,0-2.23,1.923-1.989,4.218
			"/>
	</g>
</g>
<g id="crossed_2_" display="none">
	
		<use xlink:href="#crossed_x5F_hand"  width="21.418" height="41.047" id="XMLID_3_" x="-10.709" y="-20.523" transform="matrix(1 0 0 -1 87.75 122.0415)" display="inline" overflow="visible"/>
	<path display="inline" fill="#FFFFFF" d="M52.805,76.809c0,0-6.553-6.342-2.736-12.275l1.086,0.011c0,0,1.368-3.251,1.9-2.727
		l1.419,1.809l1.393-3.366l-1.054-4.375c0,0,0.123-2.451,1.933-0.789l0.444,1.437l1.009-2.427c0,0,1.514-1.664,1.697,0.853
		l-1.669,4.776l1.358,4.736l0.938,3.168c0,0,0.265,9.128-4.288,9.113C56.234,76.752,54.646,77.057,52.805,76.809z"/>
	<g id="base_3_" display="inline">
		<path fill="none" stroke="#505050" stroke-linecap="round" stroke-linejoin="round" d="M52.663,76.611
			c0,0-3.324-1.854-3.742-8.248"/>
	</g>
	<g id="fingers_down_2_" display="inline">
		<path fill="none" stroke="#505050" stroke-linecap="round" stroke-linejoin="round" d="M48.921,68.363
			c0,0-0.231-4.342,1.871-3.853c0,0,1.551,1.308,2.166,3.029c0,0,0.896,1.446,0.354,1.958c0,0-1.347,0.33-1.449-1.397
			c0,0-0.873-0.957-1.433-1.803c0,0,0.41,0.345-0.195,1.51"/>
		<path fill="none" stroke="#505050" stroke-linecap="round" stroke-linejoin="round" d="M51.199,64.545c0,0,1.061-3.941,2.286-2.42
			c0,0,0.814,1.106,1.578,2.907"/>
		<path fill="none" stroke="#505050" stroke-linecap="round" stroke-linejoin="round" d="M60.619,68.208
			c-0.142-2.552-1.276-3.175-1.276-3.175"/>
		<path fill="none" stroke="#505050" stroke-linecap="round" stroke-linejoin="round" d="M55.427,66.411
			c0,0,0.219,2.394-1.249,1.034c0,0-0.345-0.635-0.414-1.149c0,0-0.97-1.646-1.134-2.086c0,0,0.668,0.98,0,2.338"/>
		
			<line fill="none" stroke="#505050" stroke-linecap="round" stroke-linejoin="round" x1="58.457" y1="68.478" x2="58.087" y2="66.802"/>
		<path fill="none" stroke="#505050" stroke-linecap="round" stroke-linejoin="round" d="M60.619,68.208
			c-0.142-2.552-1.276-3.175-1.276-3.175c-1.636,0.363-4.641,0.068-4.641,0.068c-0.101,2.238,3.74,1.635,3.74,1.635"/>
		<path fill="none" stroke="#505050" stroke-linecap="round" stroke-linejoin="round" d="M56.279,76.753
			c1.138,0.301,2.068-0.713,2.068-0.713c1.786-1.763,2.198-5.891,2.198-5.891c0.086-0.746,0.103-1.389,0.072-1.942"/>
		<path fill="none" stroke="#505050" stroke-linecap="round" stroke-linejoin="round" d="M57.397,69.704c0,0-1.768,2.355-1.04,4.547
			"/>
	</g>
	<g id="crossed_3_" display="inline">
		
			<line fill="none" stroke="#505050" stroke-linecap="round" stroke-linejoin="round" x1="56.79" y1="63.44" x2="56.525" y2="64.362"/>
		<path fill="none" stroke="#505050" stroke-linecap="round" stroke-linejoin="round" d="M54.52,63.901l1.392-4.165"/>
		<path fill="none" stroke="#505050" stroke-linecap="round" stroke-linejoin="round" d="M57.147,64.244l-2.29-8.356
			c0,0,0.032-2.541,1.811-0.863l3.464,11.046"/>
		<path fill="none" stroke="#505050" stroke-linecap="round" stroke-linejoin="round" d="M58.271,60.14l1.669-5.181
			c0,0-0.029-2.508-1.698-0.854l-1.008,2.729"/>
	</g>
</g>
<g id="name">
	<text transform="matrix(1 0 0 1 -29.4165 71.1372)" fill="#505050" font-family="'ILoveGlitter'" font-size="23">jane m. z.</text>
</g>
</svg>
