<?xml version="1.0" encoding="utf-8"?>
<!-- Generator: Adobe Illustrator 16.0.0, SVG Export Plug-In . SVG Version: 6.00 Build 0)  -->
<!DOCTYPE svg PUBLIC "-//W3C//DTD SVG 1.1//EN" "http://www.w3.org/Graphics/SVG/1.1/DTD/svg11.dtd">
<svg version="1.1" id="Layer_1" xmlns="http://www.w3.org/2000/svg" xmlns:xlink="http://www.w3.org/1999/xlink" x="0px" y="0px"
	 width="381.833px" height="176px" viewBox="0 0 381.833 176" enable-background="new 0 0 381.833 176" xml:space="preserve">
<path fill="none" stroke="#4F4D4D" stroke-width="5" stroke-linecap="round" stroke-linejoin="round" stroke-miterlimit="10" d="
	M36.185,171.4c0,0-24.313-13.563-27.375-60.33c0,0-1.681-31.771,13.688-28.187c0,0,11.349,9.566,15.849,22.154
	c0,0,6.559,10.584,2.582,14.329c0,0-9.854,2.412-10.593-10.223c0,0-6.394-6.998-10.484-13.185c0,0,3.002,2.521-1.427,11.054"/>
<path fill="none" stroke="#4F4D4D" stroke-width="5" stroke-linecap="round" stroke-linejoin="round" stroke-miterlimit="10" d="
	M25.481,83.143c0,0,7.758-28.83,16.723-17.696c0,0,5.963,8.092,11.545,21.264"/>
<path fill="none" stroke="#4F4D4D" stroke-width="5" stroke-linecap="round" stroke-linejoin="round" stroke-miterlimit="10" d="
	M62.653,172.445c8.312,2.201,15.127-5.219,15.127-5.219c13.062-12.887,16.084-43.08,16.084-43.08
	c3.484-30.681-8.815-37.442-8.815-37.442c-11.961,2.661-33.942,0.504-33.942,0.504c-0.738,16.37,27.356,11.962,27.356,11.962"/>
<path fill="none" stroke="#4F4D4D" stroke-width="5" stroke-linecap="round" stroke-linejoin="round" stroke-miterlimit="10" d="
	M56.4,96.788c0,0,1.605,17.5-9.138,7.563c0,0-2.514-4.643-3.025-8.418c0,0-7.092-12.042-8.29-15.252c0,0,4.878,7.174,0,17.098"/>
<path fill="none" stroke="#4F4D4D" stroke-width="5" stroke-linecap="round" stroke-linejoin="round" stroke-miterlimit="10" d="
	M70.815,120.872c0,0-12.927,17.233-7.606,33.257"/>
<line fill="none" stroke="#4F4D4D" stroke-width="5" stroke-linecap="round" stroke-linejoin="round" stroke-miterlimit="10" x1="78.562" y1="111.906" x2="75.864" y2="99.652"/>
<line fill="none" stroke="#4F4D4D" stroke-width="5" stroke-linecap="round" stroke-linejoin="round" stroke-miterlimit="10" x1="66.371" y1="74.799" x2="64.433" y2="81.541"/>
<path fill="none" stroke="#4F4D4D" stroke-width="5" stroke-linecap="round" stroke-linejoin="round" stroke-miterlimit="10" d="
	M49.764,78.17l10.19-30.475"/>
<path fill="none" stroke="#4F4D4D" stroke-width="5" stroke-linecap="round" stroke-linejoin="round" stroke-miterlimit="10" d="
	M68.992,80.681L52.243,19.55c0,0,0.233-18.57,13.237-6.312l25.339,80.807"/>
<path fill="none" stroke="#4F4D4D" stroke-width="5" stroke-linecap="round" stroke-linejoin="round" stroke-miterlimit="10" d="
	M77.21,50.657L89.428,12.77c0,0-0.222-18.352-12.419-6.238l-7.377,19.955"/>
<path fill="none" stroke="#505050" stroke-width="4" stroke-miterlimit="10" d="M317.748,88.044c0,1.835-1.486,3.314-3.314,3.314
	c-1.838,0-3.316-1.486-3.316-3.314c0-1.831,1.486-3.316,3.316-3.316C316.269,84.728,317.748,86.217,317.748,88.044z"/>
<path fill="none" stroke="#505050" stroke-width="4" stroke-linecap="round" stroke-linejoin="round" d="M116.8,137.298
	c20.762,46.513,23.441-43.144,22.105-75.671"/>
<path fill="none" stroke="#505050" stroke-width="4" stroke-miterlimit="10" d="M140.876,41.199c0,1.83-1.484,3.322-3.321,3.322
	c-1.83,0-3.315-1.492-3.315-3.322c0-1.836,1.489-3.315,3.315-3.315C139.392,37.884,140.876,39.363,140.876,41.199z"/>
<path fill="none" stroke="#505050" stroke-width="4" stroke-linecap="round" stroke-linejoin="round" stroke-miterlimit="10" d="
	M302.914,91.098c0,0-10.775-41.824-14.489-42.188c-3.72-0.372-3.733,37.696-7.244,38.347c-3.518,0.651-10.061-29.127-16.718-29.043
	c-6.664,0.074,0,32.881,0,32.881"/>
<path fill="none" stroke="#505050" stroke-width="4" stroke-linecap="round" stroke-linejoin="round" stroke-miterlimit="10" d="
	M317.815,49.5c0,0,39.876-17.72,20.491,17.724l-7.581,17.717c0,0-4.6,9.423,8.142,5.547l14.942-7.205"/>
<path fill="none" stroke="#505050" stroke-width="4" stroke-linecap="round" stroke-linejoin="round" stroke-miterlimit="10" d="
	M321.137,68.247c0,0,22.706-1.746,26.581,0"/>
<path fill="none" stroke="#505050" stroke-width="4" stroke-linecap="round" stroke-linejoin="round" stroke-miterlimit="10" d="
	M139.078,106.03"/>
<path fill="none" stroke="#505050" stroke-width="4" stroke-linecap="round" stroke-linejoin="round" d="M202.757,89.653
	c3.187-1.716,31.605-19.998,28.473-28.911c-7.104-20.259-36.507,39.288-4.027,33.005"/>
<path fill="none" stroke="#505050" stroke-width="4" stroke-linecap="round" stroke-linejoin="round" d="M171.565,92.17
	c0.248-9.417,0.649-18.858-3.046-28.088"/>
<path fill="none" stroke="#505050" stroke-width="4" stroke-linecap="round" stroke-linejoin="round" d="M169.899,83.938
	C111.344,110.592,176.553,22.395,169.899,83.938"/>
<path fill="none" stroke="#505050" stroke-width="4" stroke-linecap="round" stroke-linejoin="round" stroke-miterlimit="10" d="
	M204.512,51.421c-3.719-0.368-3.733,37.692-7.248,38.351c-3.515,0.647-10.057-29.127-16.717-29.05s0,32.885,0,32.885"/>
<path fill="none" stroke="#505050" stroke-width="4" stroke-miterlimit="10" d="M370.06,89.104c0,1.84-1.484,3.319-3.314,3.319
	c-1.837,0-3.314-1.483-3.314-3.319c0-1.833,1.484-3.312,3.314-3.312C368.576,85.784,370.06,87.271,370.06,89.104z"/>
</svg>
