<?xml version="1.0" encoding="utf-8"?>
<!-- Generator: Adobe Illustrator 16.0.0, SVG Export Plug-In . SVG Version: 6.00 Build 0)  -->
<!DOCTYPE svg PUBLIC "-//W3C//DTD SVG 1.1//EN" "http://www.w3.org/Graphics/SVG/1.1/DTD/svg11.dtd">
<svg version="1.1" id="Layer_1" xmlns="http://www.w3.org/2000/svg" xmlns:xlink="http://www.w3.org/1999/xlink" x="0px" y="0px"
	 width="104.667px" height="176px" viewBox="0 0 104.667 176" enable-background="new 0 0 104.667 176" xml:space="preserve">
<path fill="none" stroke="#4F4D4D" stroke-width="5" stroke-linecap="round" stroke-linejoin="round" stroke-miterlimit="10" d="
	M36.377,170.03c0,0-25.287-12.934-28.468-57.587c0,0-1.752-30.355,14.232-26.92c0,0,11.796,9.122,16.484,21.141
	c0,0,6.81,10.1,2.678,13.696c0,0-10.248,2.303-11.011-9.78c0,0-6.651-6.672-10.902-12.569c0,0,3.115,2.396-1.491,10.56"/>
<path fill="none" stroke="#4F4D4D" stroke-width="5" stroke-linecap="round" stroke-linejoin="round" stroke-miterlimit="10" d="
	M25.237,85.765c0,0,8.07-27.541,17.402-16.897c0,0,6.201,7.728,11.99,20.3"/>
<path fill="none" stroke="#4F4D4D" stroke-width="5" stroke-linecap="round" stroke-linejoin="round" stroke-miterlimit="10" d="
	M63.892,171.023c8.63,2.134,15.744-4.964,15.744-4.964c13.571-12.324,16.721-41.146,16.721-41.146
	c3.619-29.293-9.174-35.746-9.174-35.746c-12.438,2.534-35.295,0.468-35.295,0.468c-0.777,15.647,25.259,15.562,25.259,15.562"/>
<path fill="none" stroke="#4F4D4D" stroke-width="5" stroke-linecap="round" stroke-linejoin="round" stroke-miterlimit="10" d="
	M57.391,100.639c0,0,1.678,16.702-9.504,7.209c0,0-2.609-4.411-3.145-8.038c0,0-7.37-11.489-8.613-14.558c0,0,5.062,6.862,0,16.331"
	/>
<path fill="none" stroke="#4F4D4D" stroke-width="5" stroke-linecap="round" stroke-linejoin="round" stroke-miterlimit="10" d="
	M96.442,123.925c0,0,4.225-32.095-10.042-57.717c0,0-15.265-29.933-19.817-34.262c0,0-8.502-12.765-26.646-19.556
	c0,0-8.484,6.062,9.758,19.793c0,0,5.696,4.358,12.483,18.34c0,0,11.272,26.072,12.642,32.188"/>
<line fill="none" stroke="#4F4D4D" stroke-width="5" stroke-linecap="round" stroke-linejoin="round" stroke-miterlimit="10" x1="61.772" y1="51.472" x2="51.111" y2="80.84"/>
<line fill="none" stroke="#4F4D4D" stroke-width="5" stroke-linecap="round" stroke-linejoin="round" stroke-miterlimit="10" x1="72.838" y1="77.058" x2="71.765" y2="82.088"/>
<path fill="none" stroke="#4F4D4D" stroke-width="5" stroke-linecap="round" stroke-linejoin="round" stroke-miterlimit="10" d="
	M67.941,123.925c0,0-13.449,16.442-7.907,31.735"/>
<path fill="none" stroke="#4F4D4D" stroke-width="5" stroke-linecap="round" stroke-linejoin="round" stroke-miterlimit="10" d="
	M79.249,52.634l11.285-39.015c0,0-0.212-17.525-12.914-5.958l-9.679,25.902"/>
<line fill="none" stroke="#4F4D4D" stroke-width="5" stroke-linecap="round" stroke-linejoin="round" stroke-miterlimit="10" x1="80.645" y1="117.363" x2="77.829" y2="105.667"/>
</svg>
