<?xml version="1.0" encoding="utf-8"?>
<!-- Generator: Adobe Illustrator 16.0.0, SVG Export Plug-In . SVG Version: 6.00 Build 0)  -->
<!DOCTYPE svg PUBLIC "-//W3C//DTD SVG 1.1//EN" "http://www.w3.org/Graphics/SVG/1.1/DTD/svg11.dtd">
<svg version="1.1" xmlns="http://www.w3.org/2000/svg" xmlns:xlink="http://www.w3.org/1999/xlink" x="0px" y="0px" width="148.5px"
	 height="193.29px" viewBox="-19.667 0 148.5 193.29" enable-background="new -19.667 0 148.5 193.29" xml:space="preserve">
<g id="Layer_1">
	<path fill="none" stroke="#4F4D4D" stroke-width="5" stroke-linecap="round" stroke-linejoin="round" stroke-miterlimit="10" d="
		M36.377,170.029c0,0-25.287-12.934-28.468-57.586c0,0-1.752-30.355,14.232-26.92c0,0,11.796,9.122,16.484,21.141
		c0,0,6.81,10.1,2.678,13.695c0,0-10.248,2.304-11.011-9.779c0,0-6.651-6.672-10.902-12.569c0,0,3.115,2.396-1.491,10.56"/>
	<path fill="none" stroke="#4F4D4D" stroke-width="5" stroke-linecap="round" stroke-linejoin="round" stroke-miterlimit="10" d="
		M25.237,85.765c0,0,8.07-27.541,17.402-16.897c0,0,6.201,7.728,11.989,20.3"/>
	<path fill="none" stroke="#4F4D4D" stroke-width="5" stroke-linecap="round" stroke-linejoin="round" stroke-miterlimit="10" d="
		M63.892,171.023c8.63,2.134,15.744-4.965,15.744-4.965c13.57-12.324,16.721-41.146,16.721-41.146
		c3.619-29.293-9.174-35.746-9.174-35.746c-12.438,2.534-35.295,0.468-35.295,0.468c-0.777,15.647,25.259,15.562,25.259,15.562"/>
	<path fill="none" stroke="#4F4D4D" stroke-width="5" stroke-linecap="round" stroke-linejoin="round" stroke-miterlimit="10" d="
		M57.391,100.639c0,0,1.678,16.702-9.504,7.209c0,0-2.609-4.41-3.145-8.037c0,0-7.37-11.49-8.613-14.559c0,0,5.062,6.862,0,16.331"
		/>
	<path fill="none" stroke="#4F4D4D" stroke-width="5" stroke-linecap="round" stroke-linejoin="round" stroke-miterlimit="10" d="
		M96.442,123.925c0,0,4.226-32.095-10.042-57.717c0,0-15.266-29.933-19.816-34.262c0,0-8.502-12.765-26.646-19.556
		c0,0-8.484,6.062,9.758,19.793c0,0,5.696,4.358,12.483,18.34c0,0,11.272,26.072,12.642,32.188"/>
	
		<line fill="none" stroke="#4F4D4D" stroke-width="5" stroke-linecap="round" stroke-linejoin="round" stroke-miterlimit="10" x1="61.772" y1="51.472" x2="51.111" y2="80.84"/>
	
		<line fill="none" stroke="#4F4D4D" stroke-width="5" stroke-linecap="round" stroke-linejoin="round" stroke-miterlimit="10" x1="72.837" y1="77.058" x2="71.765" y2="82.088"/>
	<path fill="none" stroke="#4F4D4D" stroke-width="5" stroke-linecap="round" stroke-linejoin="round" stroke-miterlimit="10" d="
		M67.941,123.925c0,0-13.449,16.442-7.906,31.735"/>
	<path fill="none" stroke="#4F4D4D" stroke-width="5" stroke-linecap="round" stroke-linejoin="round" stroke-miterlimit="10" d="
		M79.25,52.634l11.285-39.015c0,0-0.213-17.525-12.914-5.958l-9.68,25.902"/>
	
		<line fill="none" stroke="#4F4D4D" stroke-width="5" stroke-linecap="round" stroke-linejoin="round" stroke-miterlimit="10" x1="80.645" y1="117.363" x2="77.83" y2="105.667"/>
</g>
<g id="Layer_2" display="none">
	<path display="inline" fill="none" stroke="#4F504F" stroke-width="1.5" stroke-miterlimit="10" d="M93.253,189.081
		c0,0.679-0.552,1.229-1.229,1.229c-0.681,0-1.231-0.551-1.231-1.229c0-0.68,0.551-1.232,1.231-1.232
		C92.704,187.852,93.253,188.401,93.253,189.081z"/>
	<path display="inline" fill="none" stroke="#4F504F" stroke-width="1.5" stroke-linecap="round" stroke-linejoin="round" d="
		M-10.014,191.039c1.417,18.837,13.593-12.121,17.204-23.642"/>
	<path display="inline" fill="none" stroke="#4F504F" stroke-width="1.5" stroke-miterlimit="10" d="M10.439,160.513
		c-0.229,0.639-0.935,0.973-1.575,0.743c-0.64-0.229-0.97-0.936-0.741-1.575c0.23-0.641,0.935-0.971,1.573-0.741
		C10.336,159.17,10.67,159.871,10.439,160.513z"/>
	
		<path display="inline" fill="none" stroke="#4F504F" stroke-width="1.5" stroke-linecap="round" stroke-linejoin="round" stroke-miterlimit="10" d="
		M87.751,190.213c0,0-3.996-15.513-5.372-15.647c-1.38-0.138-1.384,13.98-2.688,14.223c-1.305,0.24-3.729-10.803-6.2-10.772
		c-2.472,0.028,0,12.194,0,12.194"/>
	
		<path display="inline" fill="none" stroke="#4F504F" stroke-width="1.5" stroke-linecap="round" stroke-linejoin="round" stroke-miterlimit="10" d="
		M91.447,166.678c0,0,12.188-10.646,9.201,4.036l-0.746,7.108c0,0-0.598,3.843,3.492,1.074l4.506-4.191"/>
	
		<path display="inline" fill="none" stroke="#4F504F" stroke-width="1.5" stroke-linecap="round" stroke-linejoin="round" stroke-miterlimit="10" d="
		M94.676,172.956c0,0,7.857-3.105,9.422-2.911"/>
	
		<path display="inline" fill="none" stroke="#4F504F" stroke-width="1.5" stroke-linecap="round" stroke-linejoin="round" stroke-miterlimit="10" d="
		M3.346,177.923"/>
	<path display="inline" fill="none" stroke="#4F504F" stroke-width="1.5" stroke-linecap="round" stroke-linejoin="round" d="
		M40.816,191.203c1.257-0.466,12.638-5.717,11.947-9.151c-1.566-7.808-15.434,12.548-3.179,11.914"/>
	<path display="inline" fill="none" stroke="#4F504F" stroke-width="1.5" stroke-linecap="round" stroke-linejoin="round" d="
		M20.768,186.064c0.466-3.462,0.99-6.929-0.009-10.478"/>
	<path display="inline" fill="none" stroke="#4F504F" stroke-width="1.5" stroke-linecap="round" stroke-linejoin="round" d="
		M20.48,182.963C-2.169,190.465,25.381,160.534,20.48,182.963"/>
	
		<path display="inline" fill="none" stroke="#4F504F" stroke-width="1.5" stroke-linecap="round" stroke-linejoin="round" stroke-miterlimit="10" d="
		M39.397,178.693c-1.252-0.594-6.01,12.698-7.321,12.487c-1.308-0.212,0.128-11.427-2.209-12.231
		c-2.336-0.807-4.107,11.481-4.107,11.481"/>
	<path display="inline" fill="none" stroke="#4F504F" stroke-width="1.5" stroke-miterlimit="10" d="M114.295,174.988
		c0.201,0.65-0.162,1.34-0.811,1.54c-0.651,0.201-1.338-0.163-1.539-0.813c-0.2-0.648,0.164-1.338,0.812-1.538
		S114.095,174.34,114.295,174.988z"/>
</g>
<g id="Layer_3">
	<path fill="none" d="M-27.167,156c0,0,73.971,82.5,161.875,2.076"/>
	<text transform="matrix(0.7875 0.6163 -0.6163 0.7875 -18.9097 163.9756)"><tspan x="0" y="0" fill="#4F4D4D" font-family="'MyriadPro-Regular'" font-size="20">b</tspan><tspan x="13.152" y="-0.111" fill="#4F4D4D" font-family="'MyriadPro-Regular'" font-size="20" rotate="-5.244">e</tspan><tspan x="24.815" y="-1.289" fill="#4F4D4D" font-family="'MyriadPro-Regular'" font-size="20" rotate="-9.926">s</tspan><tspan x="34.229" y="-3.019" fill="#4F4D4D" font-family="'MyriadPro-Regular'" font-size="20" rotate="-14.096">t</tspan><tspan x="42.089" y="-5.073" fill="#4F4D4D" font-family="'MyriadPro-Regular'" font-size="20" rotate="-17.525"> </tspan><tspan x="48.016" y="-6.755" fill="#4F4D4D" font-family="'MyriadPro-Regular'" font-size="20" rotate="-23.531">w</tspan><tspan x="63.171" y="-13.787" fill="#4F4D4D" font-family="'MyriadPro-Regular'" font-size="20" rotate="-30.15">i</tspan><tspan x="68.714" y="-17.013" fill="#4F4D4D" font-family="'MyriadPro-Regular'" font-size="20" rotate="-34.892">s</tspan><tspan x="76.878" y="-22.738" fill="#4F4D4D" font-family="'MyriadPro-Regular'" font-size="20" rotate="-41.843">h</tspan><tspan x="86.634" y="-31.719" fill="#4F4D4D" font-family="'MyriadPro-Regular'" font-size="20" rotate="-49.403">e</tspan><tspan x="94.273" y="-40.888" fill="#4F4D4D" font-family="'MyriadPro-Regular'" font-size="20" rotate="-55.569">s</tspan><tspan x="99.572" y="-48.845" fill="#4F4D4D" font-family="'MyriadPro-Regular'" font-size="20" rotate="-59.684"> </tspan><tspan x="102.536" y="-53.866" fill="#4F4D4D" font-family="'MyriadPro-Regular'" font-size="20" rotate="-63.768">c</tspan><tspan x="107.083" y="-63.386" fill="#4F4D4D" font-family="'MyriadPro-Regular'" font-size="20" rotate="-67.654">l</tspan><tspan x="109.537" y="-69.231" fill="#4F4D4D" font-family="'MyriadPro-Regular'" font-size="20" rotate="-71.635">u</tspan><tspan x="113.476" y="-81.344" fill="#4F4D4D" font-family="'MyriadPro-Regular'" font-size="20" rotate="-76.427">b</tspan></text>
	<text transform="matrix(1 0 0 1 -216.5059 73.5)" font-family="'MyriadPro-Regular'" font-size="20" letter-spacing="1">good for you</text>
	<text transform="matrix(1 0 0 1 -192.9863 10)" font-family="'MyriadPro-Regular'" font-size="20" letter-spacing="1">academy</text>
</g>
</svg>
