<?xml version="1.0" encoding="utf-8"?>
<!-- Generator: Adobe Illustrator 16.0.0, SVG Export Plug-In . SVG Version: 6.00 Build 0)  -->
<!DOCTYPE svg PUBLIC "-//W3C//DTD SVG 1.1//EN" "http://www.w3.org/Graphics/SVG/1.1/DTD/svg11.dtd">
<svg version="1.1" id="Layer_1" xmlns="http://www.w3.org/2000/svg" xmlns:xlink="http://www.w3.org/1999/xlink" x="0px" y="0px"
	 width="76px" height="35px" viewBox="0 0 76 35" enable-background="new 0 0 76 35" xml:space="preserve">
<path fill="none" stroke="#505050" stroke-width="1.5" stroke-miterlimit="10" d="M59.754,15.901c0,0.53-0.43,0.959-0.959,0.959
	c-0.531,0-0.96-0.43-0.96-0.959c0-0.53,0.43-0.96,0.96-0.96C59.325,14.942,59.754,15.372,59.754,15.901z"/>
<path fill="none" stroke="#505050" stroke-width="1.5" stroke-linecap="round" stroke-linejoin="round" d="M1.624,30.149
	C7.63,43.603,8.406,17.668,8.019,8.259"/>
<path fill="none" stroke="#505050" stroke-width="1.5" stroke-miterlimit="10" d="M8.589,2.349c0,0.53-0.43,0.961-0.96,0.961
	c-0.53,0-0.959-0.431-0.959-0.961c0-0.531,0.43-0.959,0.959-0.959C8.16,1.39,8.589,1.818,8.589,2.349z"/>
<path fill="none" stroke="#505050" stroke-width="1.5" stroke-linecap="round" stroke-linejoin="round" stroke-miterlimit="10" d="
	M55.462,16.784c0,0-3.117-12.099-4.19-12.204c-1.076-0.107-1.08,10.904-2.097,11.093c-1.017,0.188-2.909-8.426-4.835-8.402
	c-1.928,0.022,0,9.512,0,9.512"/>
<path fill="none" stroke="#505050" stroke-width="1.5" stroke-linecap="round" stroke-linejoin="round" stroke-miterlimit="10" d="
	M59.774,4.751c0,0,11.534-5.126,5.926,5.127l-2.192,5.125c0,0-1.33,2.726,2.355,1.604l4.322-2.084"/>
<path fill="none" stroke="#505050" stroke-width="1.5" stroke-linecap="round" stroke-linejoin="round" stroke-miterlimit="10" d="
	M60.734,10.174c0,0,6.569-0.505,7.69,0"/>
<path fill="none" stroke="#505050" stroke-width="1.5" stroke-linecap="round" stroke-linejoin="round" stroke-miterlimit="10" d="
	M8.069,21.103"/>
<path fill="none" stroke="#505050" stroke-width="1.5" stroke-linecap="round" stroke-linejoin="round" d="M26.49,16.366
	c0.921-0.496,9.142-5.785,8.236-8.363c-2.055-5.86-10.561,11.365-1.165,9.548"/>
<path fill="none" stroke="#505050" stroke-width="1.5" stroke-linecap="round" stroke-linejoin="round" d="M17.467,17.094
	c0.072-2.724,0.188-5.456-0.882-8.125"/>
<path fill="none" stroke="#505050" stroke-width="1.5" stroke-linecap="round" stroke-linejoin="round" d="M16.985,14.713
	C0.047,22.423,18.91-3.09,16.985,14.713"/>
<path fill="none" stroke="#505050" stroke-width="1.5" stroke-linecap="round" stroke-linejoin="round" stroke-miterlimit="10" d="
	M26.997,5.306C25.921,5.2,25.918,16.21,24.901,16.4c-1.017,0.188-2.909-8.426-4.836-8.403c-1.927,0.022,0,9.513,0,9.513"/>
<path fill="none" stroke="#505050" stroke-width="1.5" stroke-miterlimit="10" d="M74.887,16.207c0,0.532-0.43,0.96-0.96,0.96
	s-0.959-0.429-0.959-0.96c0-0.53,0.43-0.958,0.959-0.958C74.457,15.247,74.887,15.677,74.887,16.207z"/>
</svg>
