<?xml version="1.0" encoding="utf-8"?>
<!-- Generator: Adobe Illustrator 16.0.0, SVG Export Plug-In . SVG Version: 6.00 Build 0)  -->
<!DOCTYPE svg PUBLIC "-//W3C//DTD SVG 1.1//EN" "http://www.w3.org/Graphics/SVG/1.1/DTD/svg11.dtd">
<svg version="1.1" id="Layer_1" xmlns="http://www.w3.org/2000/svg" xmlns:xlink="http://www.w3.org/1999/xlink" x="0px" y="0px"
	 width="104.667px" height="176px" viewBox="0 0 104.667 176" enable-background="new 0 0 104.667 176" xml:space="preserve">
<path fill="none" stroke="#4F4D4D" stroke-width="5" stroke-linecap="round" stroke-linejoin="round" stroke-miterlimit="10" d="
	M36.185,171.401c0,0-24.313-13.564-27.375-60.33c0,0-1.681-31.771,13.688-28.187c0,0,11.349,9.566,15.849,22.154
	c0,0,6.559,10.584,2.582,14.329c0,0-9.854,2.413-10.593-10.222c0,0-6.394-6.999-10.484-13.185c0,0,3.002,2.521-1.427,11.054"/>
<path fill="none" stroke="#4F4D4D" stroke-width="5" stroke-linecap="round" stroke-linejoin="round" stroke-miterlimit="10" d="
	M25.481,83.143c0,0,7.758-28.83,16.723-17.696c0,0,5.963,8.092,11.546,21.264"/>
<path fill="none" stroke="#4F4D4D" stroke-width="5" stroke-linecap="round" stroke-linejoin="round" stroke-miterlimit="10" d="
	M62.653,172.445c8.312,2.201,15.127-5.219,15.127-5.219c13.061-12.886,16.084-43.079,16.084-43.079
	c3.484-30.681-8.816-37.443-8.816-37.443c-11.961,2.661-33.942,0.504-33.942,0.504c-0.738,16.37,27.356,11.962,27.356,11.962"/>
<path fill="none" stroke="#4F4D4D" stroke-width="5" stroke-linecap="round" stroke-linejoin="round" stroke-miterlimit="10" d="
	M56.4,96.788c0,0,1.605,17.5-9.138,7.563c0,0-2.514-4.642-3.025-8.417c0,0-7.092-12.043-8.29-15.253c0,0,4.878,7.174,0,17.098"/>
<path fill="none" stroke="#4F4D4D" stroke-width="5" stroke-linecap="round" stroke-linejoin="round" stroke-miterlimit="10" d="
	M70.815,120.872c0,0-12.927,17.233-7.607,33.257"/>
<line fill="none" stroke="#4F4D4D" stroke-width="5" stroke-linecap="round" stroke-linejoin="round" stroke-miterlimit="10" x1="78.562" y1="111.906" x2="75.864" y2="99.652"/>
<line fill="none" stroke="#4F4D4D" stroke-width="5" stroke-linecap="round" stroke-linejoin="round" stroke-miterlimit="10" x1="66.37" y1="74.799" x2="64.433" y2="81.541"/>
<path fill="none" stroke="#4F4D4D" stroke-width="5" stroke-linecap="round" stroke-linejoin="round" stroke-miterlimit="10" d="
	M49.764,78.17l10.191-30.475"/>
<path fill="none" stroke="#4F4D4D" stroke-width="5" stroke-linecap="round" stroke-linejoin="round" stroke-miterlimit="10" d="
	M68.991,80.681L52.243,19.55c0,0,0.233-18.57,13.237-6.312l25.339,80.807"/>
<path fill="none" stroke="#4F4D4D" stroke-width="5" stroke-linecap="round" stroke-linejoin="round" stroke-miterlimit="10" d="
	M77.211,50.657L89.428,12.77c0,0-0.221-18.352-12.419-6.238l-7.377,19.955"/>
</svg>
