<?xml version="1.0" encoding="utf-8"?>
<!-- Generator: Adobe Illustrator 16.0.0, SVG Export Plug-In . SVG Version: 6.00 Build 0)  -->
<!DOCTYPE svg PUBLIC "-//W3C//DTD SVG 1.1//EN" "http://www.w3.org/Graphics/SVG/1.1/DTD/svg11.dtd">
<svg version="1.1" id="Layer_1" xmlns="http://www.w3.org/2000/svg" xmlns:xlink="http://www.w3.org/1999/xlink" x="0px" y="0px"
	 width="111.667px" height="50px" viewBox="11.833 -150 111.667 50" enable-background="new 11.833 -150 111.667 50"
	 xml:space="preserve">
<g id="Layer_1_1_">
	<path fill="none" stroke="#000000" stroke-width="7" stroke-miterlimit="10" d="M372.08,103.673c0,3.348-2.705,6.059-6.047,6.059
		c-3.348,0-6.062-2.711-6.062-6.059c0-3.341,2.715-6.049,6.062-6.049C369.375,97.624,372.08,100.332,372.08,103.673z"/>
	<path fill="none" stroke="#000000" stroke-width="7" stroke-linecap="round" stroke-linejoin="round" d="M5.443,193.545
		c37.884,84.85,42.779-78.723,40.337-138.072"/>
	<path fill="none" stroke="#000000" stroke-width="7" stroke-miterlimit="10" d="M49.382,13.844c0,3.346-2.711,6.059-6.059,6.059
		c-3.344,0-6.052-2.712-6.052-6.059c0-3.347,2.708-6.051,6.052-6.051C46.671,7.793,49.382,10.498,49.382,13.844z"/>
	<path fill="none" stroke="#000000" stroke-width="7" stroke-linecap="round" stroke-linejoin="round" stroke-miterlimit="10" d="
		M345.015,109.241c0,0-19.656-76.304-26.438-76.974c-6.785-0.669-6.801,68.78-13.219,69.967
		c-6.416,1.187-18.355-53.142-30.506-52.994c-12.15,0.146,0,60,0,60"/>
	<path fill="none" stroke="#000000" stroke-width="7" stroke-linecap="round" stroke-linejoin="round" stroke-miterlimit="10" d="
		M372.208,33.352c0,0,72.748-32.333,37.383,32.333l-13.84,32.331c0,0-8.387,17.186,14.855,10.112l27.275-13.142"/>
	<path fill="none" stroke="#000000" stroke-width="7" stroke-linecap="round" stroke-linejoin="round" stroke-miterlimit="10" d="
		M378.271,67.553c0,0,41.428-3.188,48.496,0"/>
	<path fill="none" stroke="#000000" stroke-width="7" stroke-linecap="round" stroke-linejoin="round" stroke-miterlimit="10" d="
		M46.098,136.473"/>
	<path fill="none" stroke="#000000" stroke-width="7" stroke-linecap="round" stroke-linejoin="round" d="M162.277,106.606
		c5.81-3.131,57.659-36.483,51.946-52.75c-12.965-36.958-66.61,71.678-7.348,60.221"/>
	<path fill="none" stroke="#000000" stroke-width="7" stroke-linecap="round" stroke-linejoin="round" d="M105.374,111.199
		c0.449-17.182,1.185-34.407-5.569-51.242"/>
	<path fill="none" stroke="#000000" stroke-width="7" stroke-linecap="round" stroke-linejoin="round" d="M102.331,96.178
		C-4.504,144.801,114.475-16.106,102.331,96.178"/>
	<path fill="none" stroke="#000000" stroke-width="7" stroke-linecap="round" stroke-linejoin="round" stroke-miterlimit="10" d="
		M165.478,36.848c-6.785-0.669-6.802,68.78-13.219,69.967c-6.416,1.186-18.355-53.143-30.506-52.994c-12.151,0.146,0,60,0,60"/>
	<path fill="none" stroke="#000000" stroke-width="7" stroke-miterlimit="10" d="M467.521,105.601c0,3.348-2.705,6.059-6.047,6.059
		c-3.348,0-6.061-2.711-6.061-6.059c0-3.341,2.715-6.049,6.061-6.049C464.816,99.552,467.521,102.26,467.521,105.601z"/>
	<g>
		<g>
			<path d="M568.246,38.709c1.611,0,1.611-2.5,0-2.5C566.632,36.209,566.632,38.709,568.246,38.709L568.246,38.709z"/>
		</g>
	</g>
	<g>
		<g>
			<path d="M574.375,86.702c0.131-4.788,0.283-9.578,0.291-14.368c0.002-1.612-2.498-1.612-2.5,0
				c-0.008,4.79-0.16,9.58-0.291,14.368C571.832,88.315,574.332,88.311,574.375,86.702L574.375,86.702z"/>
		</g>
	</g>
	<g>
		<g>
			<path d="M572.417,71.285c-9.414,4.946-47.291,23.202-42.66-2.637c1.389-7.743,5.547-15.032,10.229-21.241
				c4.199-5.575,9.969-11.626,16.963-13.423c17.09-4.391,15.23,29.991,14.852,38.381c-0.074,1.612,2.426,1.605,2.5,0
				c0.502-11.097,1.336-47.733-19.703-40.274c-13.385,4.744-23.898,21.474-26.996,34.676c-1.582,6.741-0.773,14.578,6.516,17.337
				c4.469,1.692,9.768,0.792,14.264-0.258c8.863-2.07,17.291-6.193,25.301-10.401C575.107,72.693,573.843,70.536,572.417,71.285
				L572.417,71.285z"/>
		</g>
	</g>
	<g>
		<g>
			<path d="M580.83-2.739c0.525,15.908-0.006,31.83,0.66,47.735c0.496,11.87,1.055,25.663,7.357,36.127
				c0.83,1.379,2.992,0.123,2.158-1.262c-6.574-10.915-6.678-25.497-7.135-37.835c-0.551-14.916-0.049-29.848-0.541-44.765
				C583.277-4.347,580.777-4.352,580.83-2.739L580.83-2.739z"/>
		</g>
	</g>
	<g>
		<g>
			<path d="M585.171,45.58c9.465-4.878,47.463-22.816,42.625,2.99c-1.455,7.763-5.705,15.131-10.506,21.296
				c-4.268,5.482-9.986,11.41-16.965,13.145c-17.115,4.253-14.982-30.138-14.535-38.51c0.086-1.612-2.414-1.604-2.5,0
				c-0.592,11.106-1.711,47.71,19.393,40.417c13.42-4.638,24.062-21.294,27.264-34.467c1.637-6.735,0.875-14.564-6.391-17.382
				c-4.455-1.728-9.764-0.864-14.266,0.15c-8.879,2-17.338,6.058-25.381,10.202C582.476,44.159,583.74,46.316,585.171,45.58
				L585.171,45.58z"/>
		</g>
	</g>
	<g>
		<g>
			<path d="M639.484,54.263c1.059-10.908,10.453-18.479,21.381-16.144c12.992,2.776,15.934,18.053,13.75,29.201
				c-1.818,9.292-9.463,18.384-19.752,16.724c-12.383-1.997-15.516-17.327-15.635-27.617c-0.018-1.611-2.518-1.613-2.5,0
				c0.139,11.812,4.295,28.549,18.486,30.183c12.332,1.42,20.379-9.678,22.176-20.661c2.117-12.934-3.115-28.1-17.402-30.537
				c-12.119-2.067-21.875,7.213-23.004,18.851C636.83,55.867,639.33,55.853,639.484,54.263L639.484,54.263z"/>
		</g>
	</g>
	<g>
		<g>
			<path d="M725.662,57.065c-0.607,8.583-1.014,20.446,4.68,27.711c0.994,1.268,2.75-0.514,1.77-1.768
				c-5.209-6.646-4.5-18.152-3.949-25.944C728.275,55.456,725.775,55.467,725.662,57.065L725.662,57.065z"/>
		</g>
	</g>
	<g>
		<g>
			<path d="M684.908,43.702c-0.438,14.263,4.336,38.808,22.006,41.308c6.51,0.921,11.762-3.235,15.066-8.458
				c6.629-10.477,6.752-24.85,6.314-36.753c-0.059-1.607-2.559-1.613-2.5,0c0.408,11.13,0.131,23.185-4.822,33.413
				c-2.611,5.394-7.506,10.221-13.932,9.312c-6.26-0.886-10.906-6.398-13.875-11.537c-4.723-8.17-6.043-17.997-5.758-27.285
				C687.458,42.089,684.957,42.094,684.908,43.702L684.908,43.702z"/>
		</g>
	</g>
	<g>
		<g>
			<path d="M750.111,5.326c0.525,15.907-0.008,31.83,0.658,47.735c0.496,11.871,1.057,25.664,7.359,36.128
				c0.83,1.379,2.992,0.123,2.158-1.262c-6.574-10.915-6.678-25.497-7.135-37.836c-0.553-14.915-0.049-29.848-0.541-44.765
				C752.558,3.718,750.058,3.713,750.111,5.326L750.111,5.326z"/>
		</g>
	</g>
	<g>
		<g>
			<path d="M782.328,38.383c-8.766,3.703-19.303,3.407-28.645,3.33c-4.127-0.034-8.252-0.202-12.375-0.374
				c-1.939-0.081-4.264-0.499-6.182-0.02c-1.562,0.391-0.9,2.802,0.664,2.411c1.879-0.47,4.443,0.064,6.357,0.143
				c4.645,0.193,9.289,0.339,13.938,0.353c9.076,0.026,19.01-0.098,27.502-3.685C785.07,39.917,783.794,37.764,782.328,38.383
				L782.328,38.383z"/>
		</g>
	</g>
	<g>
		<g>
			<path d="M884.074,85.427c-4.586-11.448-9.559-22.822-15.332-33.723c-2.307-4.354-5.098-10.688-9.578-13.293
				c-3.789-2.202-5.895,3.54-6.754,6.104c-2.463,7.348-3.35,15.253-4.92,22.819c-0.656,3.163-1.387,6.336-2.537,9.36
				c-1.16,3.046-2.33,3.205-4.369,0.772c-5.045-6.016-8.092-14.031-12.016-20.783c-2.977-5.123-7.119-12.793-13.184-14.827
				c-16.949-5.687-5.734,37.653-3.885,44.235c0.436,1.549,2.848,0.89,2.41-0.665c-3.17-11.289-6.867-24.648-5.016-36.395
				c1.559-9.879,9.812-2.399,13.131,2.091c5.049,6.831,8.611,14.688,12.805,22.043c1.59,2.789,4.785,9.682,9.016,8.69
				c4.133-0.97,5.174-9.825,5.859-12.944c1.684-7.655,2.674-15.485,4.891-23.017c0.273-0.928,1.65-6.077,3.305-5.326
				c2.285,1.038,3.9,4.236,5.164,6.236c7.676,12.162,13.264,25.966,18.6,39.286C882.255,87.569,884.675,86.925,884.074,85.427
				L884.074,85.427z"/>
		</g>
	</g>
	<g>
		<g>
			<path d="M879.953,78.469c13.061-5.306,26.986-12.167,37.297-21.914c3.832-3.625,6.865-8.206,4.643-13.475
				c-1.393-3.296-3.793-6.606-7.637-6.992c-8.287-0.833-14.682,9.186-17.654,15.534c-3.863,8.255-5.547,19.133,0.795,26.618
				c7.275,8.59,21.719,7.169,31.541,5.021c19.404-4.245,36.049-16.964,46.975-33.296c0.898-1.344-1.268-2.594-2.158-1.262
				c-10.904,16.298-27.6,28.599-46.996,32.464c-9.998,1.993-25.65,2.68-30.062-8.899c-3.609-9.471,1.695-21.536,8.025-28.603
				c2.367-2.644,6.09-5.841,9.936-4.982c5.049,1.128,6.537,8.21,4.264,12.037c-4.367,7.348-13.834,12.191-21.025,16.231
				c-5.998,3.37-12.225,6.514-18.604,9.105C877.814,76.656,878.458,79.076,879.953,78.469L879.953,78.469z"/>
		</g>
	</g>
	<g>
		<g>
			<path d="M997.564,80.535c-0.332,6.201-9.273,6.197-9.607,0C987.623,74.348,997.234,74.374,997.564,80.535
				c0.086,1.604,2.588,1.612,2.5,0c-0.223-4.128-3.166-7.077-7.297-7.3c-4.123-0.222-7.105,3.5-7.311,7.3
				c-0.223,4.127,3.512,7.105,7.311,7.31c4.125,0.222,7.094-3.514,7.297-7.31C1000.152,78.923,997.65,78.932,997.564,80.535z"/>
		</g>
	</g>
	<g>
		<g>
			<path d="M1028.626,80.536c-0.332,6.2-9.273,6.196-9.607,0C1018.685,74.348,1028.296,74.374,1028.626,80.536
				c0.086,1.604,2.588,1.612,2.5,0c-0.221-4.129-3.166-7.078-7.295-7.301c-4.123-0.222-7.107,3.5-7.312,7.301
				c-0.223,4.127,3.514,7.104,7.312,7.309c4.125,0.222,7.092-3.513,7.295-7.309C1031.214,78.924,1028.712,78.933,1028.626,80.536z"
				/>
		</g>
	</g>
	<g>
		<g>
			<path d="M1059.689,80.537c-0.334,6.2-9.273,6.196-9.607,0C1049.748,74.348,1059.359,74.374,1059.689,80.537
				c0.086,1.604,2.588,1.612,2.5,0c-0.223-4.129-3.166-7.078-7.297-7.301c-4.123-0.222-7.105,3.5-7.311,7.301
				c-0.225,4.128,3.512,7.104,7.311,7.309c4.125,0.222,7.094-3.513,7.297-7.309C1062.277,78.925,1059.775,78.933,1059.689,80.537z"
				/>
		</g>
	</g>
	<g>
		<g>
			<path d="M572.687,191.531c1.613,0,1.613-2.5,0-2.5C571.076,189.031,571.076,191.531,572.687,191.531L572.687,191.531z"/>
		</g>
	</g>
	<g>
		<g>
			<path d="M577.492,226.436c1.611,0,1.611-2.5,0-2.5C575.878,223.936,575.878,226.436,577.492,226.436L577.492,226.436z"/>
		</g>
	</g>
	<g>
		<g>
			<path d="M575.777,224.318c-6.16,4.025-12.621,7.916-19.709,10.062c-3.514,1.063-7.781,1.743-11.018-0.419
				c-6.018-4.021-2.707-15.331-0.973-20.645c2.555-7.812,20.039-40.159,28.004-20.221c0.59,1.479,3.008,0.834,2.41-0.664
				c-2.596-6.496-7.732-10.42-14.469-6.695c-7.324,4.052-12.268,12.777-15.652,20.094c-3.357,7.256-6.518,16.416-4.465,24.469
				c2.1,8.243,10.707,8.344,17.477,6.297c7.043-2.133,13.545-6.125,19.656-10.117C578.382,225.6,577.132,223.434,575.777,224.318
				L575.777,224.318z"/>
		</g>
	</g>
	<g>
		<g>
			<path d="M584.621,203.518c2.033-8.592,9.104-17.843,18.988-14.369c11.357,3.988,9.531,21.209,6.979,29.981
				c-2.141,7.354-8.613,17.621-17.709,15.118c-10.924-3.007-9.822-20.693-8.764-28.954c0.205-1.596-2.297-1.576-2.5,0
				c-1.312,10.226-1.545,27.198,10.6,31.364c10.48,3.595,18.164-8.73,20.783-16.864c3.494-10.854,3.713-27.86-8.723-33.058
				c-10.982-4.59-19.855,6.775-22.064,16.117C581.839,204.421,584.25,205.086,584.621,203.518L584.621,203.518z"/>
		</g>
	</g>
	<g>
		<g>
			<path d="M656.55,176.848c-6.293-0.394-4.58,26.457-4.637,29.873c-0.123,7.247-0.105,14.563-0.965,21.771
				c-0.08,0.669-1.018,4.825-1.076,4.799c-1.861-0.866-2.83-5.188-3.438-6.878c-2.709-7.566-4.715-15.369-7.408-22.945
				c-1.877-5.279-4.041-11.898-8.758-15.355c-10.086-7.394-9.961,19.513-9.928,23.039c0.086,9.052,0.799,18.154,1.92,27.139
				c0.197,1.578,2.699,1.597,2.5,0c-1.463-11.725-2.383-23.723-1.762-35.53c0.139-2.612,0.682-15.763,6.008-12.487
				c5.525,3.396,7.707,13.918,9.545,19.571c0.752,2.312,7.789,30.574,12.99,25.153c2.729-2.844,2.26-9.711,2.453-13.249
				c0.43-7.927,0.395-15.877,0.586-23.812c0.039-1.593,0.297-18.692,1.967-18.588C658.16,179.448,658.152,176.947,656.55,176.848
				L656.55,176.848z"/>
		</g>
	</g>
	<g>
		<g>
			<path d="M670.3,153.809c0.404,16.101-0.006,32.209,0.506,48.309c0.383,11.988,0.613,25.443,5.695,36.554
				c0.67,1.466,2.824,0.192,2.158-1.262c-5.291-11.568-5.094-25.843-5.443-38.298c-0.424-15.098-0.037-30.205-0.416-45.303
				C672.761,152.199,670.261,152.195,670.3,153.809L670.3,153.809z"/>
		</g>
	</g>
	<g>
		<g>
			<path d="M695.199,187.277c-6.715,3.673-15.258,3.476-22.699,3.356c-4.002-0.063-9.602-1.528-13.5-0.385
				c-1.545,0.452-0.887,2.864,0.664,2.41c1.576-0.462,3.945,0.099,5.559,0.187c3.605,0.195,7.213,0.32,10.826,0.312
				c6.797-0.014,14.324-0.393,20.412-3.725C697.876,188.662,696.615,186.502,695.199,187.277L695.199,187.277z"/>
		</g>
	</g>
	<g>
		<g>
			<path d="M718.925,239.852c0.1-4.543,0.211-9.086,0.217-13.629c0.002-1.611-2.498-1.611-2.5,0
				c-0.006,4.543-0.117,9.086-0.217,13.629C716.39,241.464,718.89,241.46,718.925,239.852L718.925,239.852z"/>
		</g>
	</g>
	<g>
		<g>
			<path d="M716.988,225.172c-6.363,4.248-19.771,14.253-28.127,9.688c-5.564-3.039-3.418-12.51-2.139-17.236
				c1.584-5.85,14.824-36.52,24.547-26.16c2.674,2.848,3.498,7.434,4.146,11.121c1.365,7.762,1.229,15.824,0.953,23.668
				c-0.059,1.613,2.441,1.607,2.5,0c0.275-7.811,1-50.365-17.949-36.592c-5.941,4.318-10.043,11.292-13.088,17.826
				c-3.02,6.481-5.656,14.136-4.848,21.394c2.129,19.134,27.482,3.646,35.266-1.549
				C719.583,226.441,718.333,224.273,716.988,225.172L716.988,225.172z"/>
		</g>
	</g>
	<g>
		<g>
			<path d="M755.042,225.042c-5.281,3.933-19.416,15.528-26.639,9.589c-5.303-4.359-2.5-14.982-0.994-20.396
				c2.246-8.075,6.004-16.45,11.67-22.725c1.719-1.904,4.074-4.104,6.799-4.179c3.229-0.089,4.896,4.024,5.762,6.481
				c0.533,1.511,2.949,0.86,2.41-0.664c-2.199-6.241-6.996-10.812-13.365-6.422c-6.855,4.729-10.947,13.705-13.822,21.211
				c-2.791,7.289-5.652,17.062-2.721,24.736c3.117,8.156,12.348,5.945,18.549,3.088c4.869-2.242,9.33-5.373,13.613-8.562
				C757.582,226.249,756.337,224.078,755.042,225.042L755.042,225.042z"/>
		</g>
	</g>
	<g>
		<g>
			<path d="M769.253,153.809c0.404,16.101-0.006,32.209,0.506,48.309c0.383,11.988,0.613,25.443,5.695,36.554
				c0.67,1.466,2.824,0.192,2.158-1.262c-5.291-11.568-5.094-25.843-5.443-38.298c-0.424-15.098-0.037-30.204-0.416-45.303
				C771.714,152.199,769.214,152.195,769.253,153.809L769.253,153.809z"/>
		</g>
	</g>
	<g>
		<g>
			<path d="M794.152,187.277c-6.715,3.673-15.26,3.476-22.699,3.356c-4.002-0.063-9.602-1.528-13.5-0.386
				c-1.545,0.453-0.889,2.865,0.664,2.411c1.576-0.462,3.945,0.099,5.559,0.187c3.605,0.195,7.213,0.32,10.826,0.312
				c6.797-0.014,14.324-0.393,20.412-3.725C796.83,188.662,795.568,186.502,794.152,187.277L794.152,187.277z"/>
		</g>
	</g>
	<g>
		<g>
			<path d="M885.558,235.021c-3.805-11.66-7.945-23.272-12.846-34.521c-1.721-3.952-3.877-10.677-7.934-12.96
				c-3.67-2.064-5.281,4.902-5.814,6.998c-1.936,7.585-2.674,15.479-4.014,23.182c-0.531,3.059-1.119,6.137-2.117,9.082
				c-1.143,3.373-2.16,1.607-3.535-0.707c-4.02-6.759-6.57-14.422-10.01-21.48c-2.334-4.791-5.561-12.111-11.188-13.805
				c-12.965-3.899-3.785,39.334-2.518,44.877c0.359,1.57,2.77,0.904,2.41-0.664c-2.682-11.719-5.854-25.168-4.033-37.188
				c1.488-9.813,8.504-0.472,10.881,3.673c4.121,7.182,6.961,15.028,10.533,22.479c1.104,2.3,3.861,9.176,7.562,7.173
				c3.783-2.048,4.146-11.104,4.742-14.628c1.281-7.572,2.039-15.312,4.066-22.735c0.316-1.165,1.033-4.983,2.574-3.455
				c1.975,1.96,3.195,4.945,4.393,7.403c5.895,12.119,10.258,25.145,14.436,37.943C883.646,237.211,886.06,236.559,885.558,235.021
				L885.558,235.021z"/>
		</g>
	</g>
	<g>
		<g>
			<path d="M882.21,227.258c6.139-3.083,12.045-6.91,17.449-11.139c5.768-4.512,12.998-10.473,14.076-18.223
				c1.014-7.277-5.58-16.055-12.885-11.002c-7.443,5.148-11.318,16.256-12.463,24.803c-1.293,9.669,1.164,19.931,11.186,23.568
				c7.613,2.767,16.99,0.812,24.346-2.052c15.648-6.092,27.465-18.924,35.346-33.432c0.77-1.417-1.389-2.679-2.158-1.263
				c-8.631,15.885-22.582,30.332-40.781,34.453c-9.879,2.236-22.502,1.088-25.295-11.06c-2.283-9.937,1.906-22.485,8.293-30.171
				c1.854-2.232,5.445-5.615,8.426-3.25c5.992,4.759,3.031,12.865-0.963,17.662c-6.686,8.023-16.559,14.281-25.836,18.943
				C879.509,225.824,880.775,227.98,882.21,227.258L882.21,227.258z"/>
		</g>
	</g>
	<g>
		<g>
			<path d="M972.126,216.729c-0.264,4.918-7.357,4.914-7.623,0C964.24,211.818,971.863,211.838,972.126,216.729
				c0.086,1.604,2.586,1.61,2.5,0c-0.191-3.566-2.736-6.117-6.305-6.31c-3.562-0.19-6.143,3.024-6.318,6.31
				c-0.191,3.564,3.037,6.138,6.318,6.313c3.562,0.19,6.129-3.035,6.305-6.313C974.712,215.117,972.212,215.125,972.126,216.729z"/>
		</g>
	</g>
	<g>
		<path d="M1027.005,212.646c0,0,0.684-4.703,1.809-11.736c0.555-3.52,1.193-7.625,1.932-12.016
			c0.707-4.395,1.537-9.066,2.342-13.744c0.375-2.344,0.775-4.685,1.117-6.998c0.344-2.312,0.717-4.582,1.152-6.762
			c0.457-2.177,0.953-4.269,1.488-6.238c0.516-1.975,1.074-3.825,1.598-5.533c0.516-1.709,1.051-3.264,1.523-4.641
			c0.486-1.375,0.93-2.568,1.322-3.547c0.771-1.959,1.301-3.06,1.301-3.06l0.49,0.104c0,0,0.043,1.22-0.037,3.323
			c-0.033,1.054-0.107,2.324-0.215,3.778c-0.121,1.451-0.254,3.09-0.471,4.861c-0.207,1.773-0.439,3.693-0.762,5.709
			c-0.303,2.02-0.688,4.135-1.143,6.311c-0.479,2.172-1.049,4.398-1.666,6.655c-0.615,2.257-1.188,4.56-1.787,6.856
			c-1.145,4.606-2.262,9.219-3.381,13.526c-1.09,4.315-2.154,8.332-3.061,11.776c-1.797,6.894-3.062,11.475-3.062,11.475
			L1027.005,212.646z"/>
	</g>
	<g>
		<g>
			<path d="M581.65,387.378c-3.201-12.179-6.646-24.369-10.959-36.204c-0.984-2.701-2.926-10.654-6.377-11.494
				c-3.742-0.91-4.449,6.608-4.842,8.75c-1.414,7.754-2.041,15.639-3.205,23.43c-0.418,2.798-0.867,5.637-1.768,8.324
				c-0.381,1.139-0.178,1.473-0.779,0.649c-0.871-1.188-1.447-2.656-2.012-4.004c-3.066-7.298-5.25-14.938-8.322-22.237
				c-1.457-3.465-4.189-11.244-8.908-11.559c-10.816-0.719-2.736,38.843-1.6,45.009c0.291,1.584,2.701,0.911,2.41-0.664
				c-2.193-11.901-4.477-24.713-3.289-36.826c0.146-1.493,0.611-6.006,3.029-4.75c2.633,1.368,4.17,5.552,5.33,8.062
				c3.426,7.415,5.648,15.335,8.648,22.921c0.73,1.846,3.02,8.906,6.256,6.729c3.49-2.345,3.445-11.063,3.932-14.629
				c1.031-7.572,1.631-15.259,3.275-22.734c0.252-1.149,0.549-2.324,1.029-3.403c0.375-0.84,0.051-0.854,0.717,0.081
				c1.721,2.416,2.719,5.447,3.758,8.191c4.561,12.037,7.992,24.582,11.264,37.022C579.648,389.602,582.06,388.939,581.65,387.378
				L581.65,387.378z"/>
		</g>
	</g>
	<g>
		<path d="M533.601,481.724c-3.072,3.395-6.107,6.812-9.227,10.151c-0.936,1.001-2.057,1.85-3.178,2.651
			c-2.414,1.726-5.057,2.837-7.875,1.143c-2.654-1.592-2.508-4.319-2.412-7.017c0.176-5.032,0.109-10.073,0.328-15.104
			c0.16-3.763,0.797-3.988,5.039-2.052c-1.332,7.118-0.869,14.36-1.08,22.571c10.908-5.983,15.359-15.45,19.93-25.081
			c3.512,1.042,3.584,3.696,3.762,6.567c0.545,8.939,1.291,17.866,2.633,26.992c9.697-8.533,17.807-18.112,26.246-27.389
			c3.328,3.699,3.203,3.567,0.312,6.376c-4.738,4.61-9.312,9.391-13.92,14.135c-2.242,2.31-4.383,4.719-6.604,7.049
			c-4.096,4.296-6.109,9.04-5.34,15.297c0.955,7.773,1.178,15.668,1.225,23.514c0.047,7.354-2.889,13.705-8.143,18.904
			c-2.934,2.898-4.215,2.855-6.934-0.028c-2.605-2.765-3.809-6-4.064-9.813c-0.576-8.667,1.514-16.808,4.814-24.633
			c2.168-5.145,5.064-9.979,7.574-14.986c0.523-1.043,1.211-2.271,1.082-3.325c-1.006-8.352-2.18-16.68-3.346-25.01
			C534.382,482.312,533.904,482.045,533.601,481.724z M538.503,515.1c-7.16,10.321-10.521,20.514-11.074,31.414
			c-0.191,3.794-0.607,8.775,4.285,11.11c4.086-2.618,5.904-4.817,7.074-10.491C540.876,536.982,540.562,526.775,538.503,515.1z"/>
		<g>
			<path d="M533.423,481.547c-3.92,4.341-7.623,9.277-12.354,12.764c-2.875,2.38-6.123,1.778-9.744-1.802
				c-0.197-1.282-0.254-2.566-0.166-3.855c0.09-3.146,0.131-6.293,0.174-9.44c0.035-2.515-0.031-5.104,0.357-7.595
				c1.889-1.512,3.244-1.025,4.068,1.46c-0.188,1.109-0.285,2.261-0.398,3.379c-0.596,5.832-0.297,11.761-0.414,17.613
				c-0.004,0.19,0.215,0.31,0.375,0.216c8.146-4.71,13.293-11.689,17.5-19.954c0.432-0.861,0.855-1.729,1.271-2.597
				c1.623-3.349,4.207,0.294,4.463,2.608c0.326,2.938,0.387,5.929,0.607,8.877c0.486,6.488,1.197,12.954,2.115,19.396
				c0.027,0.2,0.293,0.221,0.418,0.109c6.777-6.046,12.969-12.654,19.049-19.395c1.6-1.775,3.193-3.559,4.793-5.337
				c3.236-3.601,5.029,0.768,2.363,3.365c-3.445,3.354-6.805,6.799-10.154,10.249c-5.256,5.417-11.982,10.835-14.928,17.958
				c-1.371,3.314-1.029,6.938-0.633,10.396c0.602,5.2,0.795,10.446,0.926,15.676c0.111,4.521,0.209,8.911-0.977,13.313
				c-0.979,3.643-7.602,17.138-13.598,11.275c-8.072-7.895-3.318-23.526,0.127-32.521c1.988-5.194,4.809-10.034,7.389-14.945
				c1.828-3.481,1.992-4.938,1.49-8.968c-0.564-4.516-1.184-9.025-1.805-13.533c-0.355-2.56,0.102-6.87-1.965-8.714
				c-0.238-0.214-0.596,0.14-0.354,0.354c1.648,1.471,1.549,6.432,1.834,8.493c0.441,3.182,0.871,6.364,1.293,9.551
				c0.338,2.564,0.656,5.134,0.971,7.702c0.273,2.249-2.594,6.192-3.646,8.167c-4.361,8.185-8.037,16.379-9.48,25.616
				c-1.059,6.788-0.791,13.761,3.793,19.151c3.984,4.688,7.5,0.142,10.34-3.471c4.523-5.761,5.213-12.453,5.121-19.508
				c-0.064-5.24-0.312-10.472-0.764-15.691c-0.453-5.252-0.973-9.703,1.51-14.581c2.203-4.326,6.621-8.01,9.941-11.483
				c3.324-3.476,6.691-6.911,10.076-10.327c1.457-1.472,5.482-4.034,5.957-6.192c0.393-1.79-1.35-3.135-2.428-4.344
				c-0.088-0.1-0.266-0.098-0.354,0c-4.422,4.877-8.783,9.81-13.266,14.633c-2.055,2.21-4.162,4.368-6.299,6.501
				c-1.291,1.29-2.621,2.541-3.951,3.789c-2.65,2.484-2.805-0.954-3.088-3.199c-0.885-7.021-1.404-14.088-1.85-21.149
				c-0.211-3.359-0.73-5.478-3.943-6.811c-0.096-0.04-0.238,0.023-0.281,0.115c-3.33,7.013-6.752,13.843-12.273,19.425
				c-1.818,1.839-3.949,3.34-6.119,4.729c-1.305,0.835-1-5.824-0.998-6.276c0.02-5.096,0.15-10.139,0.998-15.176
				c0.018-0.103-0.008-0.234-0.115-0.282c-0.973-0.427-4.299-2.349-4.973-0.435c-0.906,2.584-0.547,5.68-0.598,8.363
				c-0.074,4.025-0.279,8.081-0.182,12.104c0.104,4.275,3.932,5.863,7.607,5.087c2.291-0.485,4.643-2.764,6.291-4.353
				c3.271-3.151,6.182-6.778,9.227-10.15C533.994,481.663,533.64,481.307,533.423,481.547z"/>
			<path d="M538.289,514.974c-5.506,8.147-9.229,16.854-10.658,26.613c-0.848,5.778-1.836,12.896,3.957,16.253
				c0.074,0.043,0.18,0.049,0.252,0c5.846-3.897,7.082-8.938,8.037-15.728c1.266-9.005,0.375-18.167-1.131-27.079
				c-0.055-0.317-0.535-0.184-0.482,0.133c1.318,7.8,1.994,15.562,1.475,23.464c-0.25,3.772-0.859,7.574-1.902,11.21
				c-0.793,2.771-4.467,9.162-8.119,6.095c-4.67-3.922-1.492-15.9-0.391-20.575c1.717-7.28,5.234-13.977,9.395-20.134
				C538.902,514.958,538.468,514.708,538.289,514.974z"/>
		</g>
	</g>
	<g>
		<g>
			<path d="M579.292,356.001c0.016,6.863,0.65,13.812,2.053,20.528c0.877,4.201,2.842,12.438,8.18,13.07
				c3.344,0.396,6.123-1.957,7.748-4.638c5.223-8.624,3.02-21.808,1.775-31.065c-0.818,0.11-1.637,0.223-2.455,0.332
				c1.781,9.709,3.191,19.496,4.383,29.291c1.775,14.605,4.277,31.038,1.014,45.598c-0.354,1.57,2.057,2.236,2.41,0.664
				c3.246-14.482,0.906-30.565-0.785-45.106c-1.213-10.405-2.721-20.804-4.611-31.108c-0.252-1.379-2.643-1.063-2.455,0.332
				c0.75,5.574,5.32,33.935-6.863,33.216c-4.354-0.257-5.93-10.993-6.506-14.259c-0.977-5.523-1.373-11.242-1.387-16.854
				C581.789,354.389,579.289,354.389,579.292,356.001L579.292,356.001z"/>
		</g>
	</g>
	<g>
		<g>
			<path d="M625.486,343.09c3.93,11.666,8.09,23.296,12.891,34.635c1.227,2.896,3.443,10.726,7.01,11.826
				c3.539,1.092,4.557-6.662,4.98-8.584c1.703-7.684,2.686-15.517,4.158-23.244c0.527-2.77,1.086-5.574,2.055-8.229
				c0.467-1.277,0.08-1.326,0.574-0.503c0.746,1.249,1.16,2.728,1.609,4.101c2.438,7.451,4.029,15.152,6.473,22.605
				c1.135,3.464,3.168,11.344,7.717,11.912c9.939,1.244,4.547-38.786,3.871-44.598c-0.184-1.582-2.686-1.601-2.5,0
				c1.396,12.02,2.885,24.898,1.168,36.934c-0.148,1.039-0.77,5.932-2.619,5.062c-2.523-1.184-3.789-5.935-4.633-8.252
				c-2.713-7.451-4.354-15.26-6.607-22.854c-0.434-1.461-2.426-9.901-5.621-7.809c-3.465,2.27-3.748,10.088-4.395,13.643
				c-1.383,7.596-2.354,15.289-4.18,22.797c-0.287,1.188-0.635,2.355-1.061,3.5c-0.441,1.174-0.146,1.223-0.598,0.726
				c-1.756-1.924-2.799-4.821-3.861-7.147c-5.498-12.016-9.807-24.672-14.021-37.187
				C627.384,340.907,624.968,341.559,625.486,343.09L625.486,343.09z"/>
		</g>
	</g>
	<g>
		<g>
			<path d="M686.054,358.355c0.506-5.963,4.256-20.226,13.203-15.646c4.029,2.063,5.713,7.347,6.699,11.392
				c1.537,6.295,1.4,13.26,0.404,19.633c-0.781,5.007-4.029,16.75-11.359,14.467c-3.564-1.111-5.479-5.807-6.594-8.941
				c-2.117-5.957-2.508-12.475-2.596-18.738c-0.021-1.609-2.521-1.612-2.5,0c0.125,8.895,0.631,26.852,11.5,30.238
				c9.203,2.869,13.359-11.63,14.174-17.771c1.324-10.022,1.584-28.248-9.863-33.073c-10.404-4.386-14.982,11.532-15.568,18.442
				C683.417,359.963,685.917,359.95,686.054,358.355L686.054,358.355z"/>
		</g>
	</g>
	<g>
		<g>
			<path d="M721.968,388.232c2.271-14.844,3.697-33.152-2.783-47.342c-0.668-1.465-2.822-0.192-2.156,1.262
				c6.1,13.355,4.686,31.328,2.529,45.416C719.316,389.145,721.724,389.822,721.968,388.232L721.968,388.232z"/>
		</g>
	</g>
	<g>
		<g>
			<path d="M720.884,350.534c5.994,5.272,13.621,2.772,18.365-2.769c1.043-1.217-0.717-2.994-1.768-1.768
				c-3.779,4.412-9.883,7.12-14.83,2.768C721.447,347.706,719.671,349.467,720.884,350.534L720.884,350.534z"/>
		</g>
	</g>
	<g>
		<g>
			<path d="M742.31,389.747c7.479-14.226,9.553-32.748,2.02-47.507c-0.734-1.438-2.891-0.172-2.158,1.262
				c7.107,13.926,5.014,31.604-2.018,44.982C739.404,389.911,741.56,391.174,742.31,389.747L742.31,389.747z"/>
		</g>
	</g>
	<g>
		<g>
			<path d="M774.193,375.118c-5.627,5.625-22.244,20.479-23.934,4.036c-0.98-9.564,2.693-21.659,9.25-28.741
				c1.094-1.181-0.67-2.953-1.768-1.769c-7.584,8.191-11.773,22.435-9.553,33.412c3.383,16.718,22.133,0.465,27.771-5.172
				C777.103,375.745,775.333,373.977,774.193,375.118L774.193,375.118z"/>
		</g>
	</g>
	<g>
		<g>
			<path d="M972.126,170.497c-0.264,4.919-7.357,4.915-7.623,0C964.24,165.586,971.863,165.607,972.126,170.497
				c0.086,1.604,2.586,1.61,2.5,0c-0.191-3.565-2.736-6.116-6.305-6.31c-3.562-0.19-6.143,3.025-6.318,6.31
				c-0.191,3.565,3.037,6.138,6.318,6.313c3.562,0.191,6.129-3.035,6.305-6.313C974.712,168.885,972.212,168.893,972.126,170.497z"
				/>
		</g>
	</g>
</g>
<g id="Layer_2">
</g>
<path fill="none" stroke="#4F4F4F" stroke-width="1.5" stroke-miterlimit="10" d="M99.273-128.177c0,0.769-0.622,1.391-1.389,1.391
	c-0.768,0-1.391-0.623-1.391-1.391c0-0.767,0.623-1.389,1.391-1.389C98.652-129.565,99.273-128.944,99.273-128.177z"/>
<path fill="none" stroke="#4F4F4F" stroke-width="1.5" stroke-linecap="round" stroke-linejoin="round" d="M15.108-107.546
	c8.697,19.478,9.82-18.071,9.26-31.695"/>
<path fill="none" stroke="#4F4F4F" stroke-width="1.5" stroke-miterlimit="10" d="M25.194-147.798c0,0.768-0.622,1.391-1.391,1.391
	c-0.768,0-1.389-0.623-1.389-1.391c0-0.769,0.622-1.389,1.389-1.389C24.572-149.187,25.194-148.566,25.194-147.798z"/>
<path fill="none" stroke="#4F4F4F" stroke-width="1.5" stroke-linecap="round" stroke-linejoin="round" stroke-miterlimit="10" d="
	M93.06-126.898c0,0-4.513-17.517-6.069-17.67c-1.557-0.154-1.562,15.789-3.035,16.061c-1.472,0.273-4.213-12.199-7.002-12.165
	c-2.79,0.033,0,13.773,0,13.773"/>
<path fill="none" stroke="#4F4F4F" stroke-width="1.5" stroke-linecap="round" stroke-linejoin="round" stroke-miterlimit="10" d="
	M99.303-144.319c0,0,16.699-7.423,8.582,7.422l-3.177,7.422c0,0-1.925,3.945,3.41,2.321l6.261-3.017"/>
<path fill="none" stroke="#4F4F4F" stroke-width="1.5" stroke-linecap="round" stroke-linejoin="round" stroke-miterlimit="10" d="
	M100.694-136.468c0,0,9.51-0.732,11.133,0"/>
<path fill="none" stroke="#4F4F4F" stroke-width="1.5" stroke-linecap="round" stroke-linejoin="round" stroke-miterlimit="10" d="
	M24.441-120.647"/>
<path fill="none" stroke="#4F4F4F" stroke-width="1.5" stroke-linecap="round" stroke-linejoin="round" d="M51.111-127.503
	c1.334-0.719,13.236-8.375,11.925-12.109c-2.976-8.484-15.291,16.454-1.687,13.824"/>
<path fill="none" stroke="#4F4F4F" stroke-width="1.5" stroke-linecap="round" stroke-linejoin="round" d="M38.048-126.449
	c0.104-3.944,0.273-7.898-1.278-11.763"/>
<path fill="none" stroke="#4F4F4F" stroke-width="1.5" stroke-linecap="round" stroke-linejoin="round" d="M37.35-129.897
	C12.825-118.735,40.137-155.673,37.35-129.897"/>
<path fill="none" stroke="#4F4F4F" stroke-width="1.5" stroke-linecap="round" stroke-linejoin="round" stroke-miterlimit="10" d="
	M51.845-143.517c-1.557-0.153-1.561,15.789-3.034,16.062c-1.473,0.272-4.213-12.199-7.003-12.165c-2.79,0.033,0,13.773,0,13.773"/>
<path fill="none" stroke="#4F4F4F" stroke-width="1.5" stroke-miterlimit="10" d="M121.183-127.734c0,0.769-0.622,1.391-1.388,1.391
	c-0.769,0-1.391-0.622-1.391-1.391c0-0.767,0.623-1.388,1.391-1.388C120.561-129.123,121.183-128.501,121.183-127.734z"/>
</svg>
