<?xml version="1.0" encoding="utf-8"?>
<!-- Generator: Adobe Illustrator 16.0.0, SVG Export Plug-In . SVG Version: 6.00 Build 0)  -->
<!DOCTYPE svg PUBLIC "-//W3C//DTD SVG 1.1//EN" "http://www.w3.org/Graphics/SVG/1.1/DTD/svg11.dtd">
<svg version="1.1" xmlns="http://www.w3.org/2000/svg" xmlns:xlink="http://www.w3.org/1999/xlink" x="0px" y="0px"
	 width="472.667px" height="222px" viewBox="0 0 472.667 222" enable-background="new 0 0 472.667 222" xml:space="preserve">
<g id="Layer_1">
	<path fill="none" stroke="#000000" stroke-width="7" stroke-miterlimit="10" d="M372.079,103.673c0,3.348-2.705,6.059-6.046,6.059
		c-3.348,0-6.062-2.711-6.062-6.059c0-3.341,2.715-6.049,6.062-6.049C369.374,97.624,372.079,100.332,372.079,103.673z"/>
	<path fill="none" stroke="#000000" stroke-width="7" stroke-linecap="round" stroke-linejoin="round" d="M5.443,193.545
		c37.884,84.85,42.779-78.723,40.337-138.072"/>
	<path fill="none" stroke="#000000" stroke-width="7" stroke-miterlimit="10" d="M49.382,13.844c0,3.346-2.711,6.059-6.059,6.059
		c-3.344,0-6.052-2.712-6.052-6.059s2.708-6.051,6.052-6.051C46.671,7.793,49.382,10.498,49.382,13.844z"/>
	<path fill="none" stroke="#000000" stroke-width="7" stroke-linecap="round" stroke-linejoin="round" stroke-miterlimit="10" d="
		M345.016,109.241c0,0-19.657-76.304-26.438-76.974c-6.785-0.669-6.802,68.78-13.219,69.967
		c-6.416,1.187-18.355-53.142-30.506-52.994c-12.151,0.146,0,60,0,60"/>
	<path fill="none" stroke="#000000" stroke-width="7" stroke-linecap="round" stroke-linejoin="round" stroke-miterlimit="10" d="
		M372.208,33.352c0,0,72.749-32.333,37.384,32.333l-13.841,32.331c0,0-8.386,17.186,14.855,10.112l27.277-13.142"/>
	<path fill="none" stroke="#000000" stroke-width="7" stroke-linecap="round" stroke-linejoin="round" stroke-miterlimit="10" d="
		M378.271,67.553c0,0,41.427-3.188,48.496,0"/>
	<path fill="none" stroke="#000000" stroke-width="7" stroke-linecap="round" stroke-linejoin="round" stroke-miterlimit="10" d="
		M46.098,136.473"/>
	<path fill="none" stroke="#000000" stroke-width="7" stroke-linecap="round" stroke-linejoin="round" d="M162.277,106.606
		c5.81-3.131,57.659-36.483,51.946-52.75c-12.965-36.958-66.61,71.678-7.348,60.221"/>
	<path fill="none" stroke="#000000" stroke-width="7" stroke-linecap="round" stroke-linejoin="round" d="M105.374,111.199
		c0.449-17.182,1.185-34.407-5.569-51.242"/>
	<path fill="none" stroke="#000000" stroke-width="7" stroke-linecap="round" stroke-linejoin="round" d="M102.331,96.178
		C-4.504,144.801,114.475-16.106,102.331,96.178"/>
	<path fill="none" stroke="#000000" stroke-width="7" stroke-linecap="round" stroke-linejoin="round" stroke-miterlimit="10" d="
		M165.478,36.848c-6.785-0.669-6.802,68.78-13.219,69.967c-6.416,1.186-18.355-53.143-30.506-52.994c-12.151,0.146,0,60,0,60"/>
	<path fill="none" stroke="#000000" stroke-width="7" stroke-miterlimit="10" d="M467.521,105.601c0,3.348-2.705,6.059-6.046,6.059
		c-3.348,0-6.062-2.711-6.062-6.059c0-3.341,2.715-6.049,6.062-6.049C464.815,99.552,467.521,102.26,467.521,105.601z"/>
	<g>
		<g>
			<path d="M568.245,38.709c1.612,0,1.612-2.5,0-2.5S566.633,38.709,568.245,38.709L568.245,38.709z"/>
		</g>
	</g>
	<g>
		<g>
			<path d="M574.375,86.702c0.131-4.788,0.282-9.578,0.29-14.368c0.003-1.612-2.497-1.612-2.5,0c-0.008,4.79-0.159,9.58-0.29,14.368
				C571.831,88.315,574.331,88.311,574.375,86.702L574.375,86.702z"/>
		</g>
	</g>
	<g>
		<g>
			<path d="M572.418,71.285c-9.414,4.946-47.291,23.202-42.661-2.637c1.389-7.743,5.548-15.032,10.228-21.241
				c4.201-5.575,9.97-11.626,16.964-13.423c17.089-4.391,15.231,29.991,14.851,38.381c-0.073,1.612,2.427,1.605,2.5,0
				c0.503-11.097,1.336-47.733-19.703-40.274c-13.384,4.744-23.899,21.474-26.996,34.676c-1.582,6.741-0.773,14.578,6.515,17.337
				c4.47,1.692,9.769,0.792,14.265-0.258c8.862-2.07,17.291-6.193,25.301-10.401C575.107,72.693,573.844,70.536,572.418,71.285
				L572.418,71.285z"/>
		</g>
	</g>
	<g>
		<g>
			<path d="M580.83-2.739c0.525,15.908-0.007,31.83,0.659,47.735c0.496,11.87,1.056,25.663,7.358,36.127
				c0.83,1.379,2.992,0.123,2.158-1.262c-6.574-10.915-6.678-25.497-7.134-37.835c-0.552-14.916-0.049-29.848-0.542-44.765
				C583.277-4.347,580.776-4.352,580.83-2.739L580.83-2.739z"/>
		</g>
	</g>
	<g>
		<g>
			<path d="M585.171,45.58c9.466-4.878,47.463-22.816,42.626,2.99c-1.455,7.763-5.706,15.131-10.506,21.296
				c-4.269,5.482-9.987,11.41-16.966,13.145c-17.114,4.253-14.981-30.138-14.535-38.51c0.086-1.612-2.414-1.604-2.5,0
				c-0.592,11.106-1.711,47.71,19.393,40.417c13.42-4.638,24.062-21.294,27.263-34.467c1.637-6.735,0.876-14.564-6.39-17.382
				c-4.455-1.728-9.763-0.864-14.266,0.15c-8.879,2-17.338,6.058-25.381,10.202C582.476,44.159,583.74,46.316,585.171,45.58
				L585.171,45.58z"/>
		</g>
	</g>
	<g>
		<g>
			<path d="M639.484,54.263c1.058-10.908,10.453-18.479,21.381-16.144c12.991,2.776,15.933,18.053,13.75,29.201
				c-1.819,9.292-9.463,18.384-19.752,16.724c-12.382-1.997-15.515-17.327-15.634-27.617c-0.019-1.611-2.519-1.613-2.5,0
				c0.137,11.812,4.294,28.549,18.486,30.183c12.332,1.42,20.379-9.678,22.176-20.661c2.116-12.934-3.117-28.1-17.404-30.537
				c-12.119-2.067-21.875,7.213-23.003,18.851C636.829,55.867,639.33,55.853,639.484,54.263L639.484,54.263z"/>
		</g>
	</g>
	<g>
		<g>
			<path d="M725.661,57.065c-0.606,8.583-1.014,20.446,4.681,27.711c0.994,1.268,2.75-0.514,1.768-1.768
				c-5.209-6.646-4.499-18.152-3.948-25.944C728.274,55.456,725.774,55.467,725.661,57.065L725.661,57.065z"/>
		</g>
	</g>
	<g>
		<g>
			<path d="M684.908,43.702c-0.437,14.263,4.335,38.808,22.005,41.308c6.51,0.921,11.763-3.235,15.067-8.458
				c6.628-10.477,6.752-24.85,6.315-36.753c-0.059-1.607-2.559-1.613-2.5,0c0.408,11.13,0.13,23.185-4.823,33.413
				c-2.612,5.394-7.505,10.221-13.931,9.312c-6.261-0.886-10.906-6.398-13.876-11.537c-4.723-8.17-6.042-17.997-5.758-27.285
				C687.458,42.089,684.957,42.094,684.908,43.702L684.908,43.702z"/>
		</g>
	</g>
	<g>
		<g>
			<path d="M750.111,5.326c0.525,15.907-0.007,31.83,0.659,47.735c0.496,11.871,1.056,25.664,7.358,36.128
				c0.83,1.379,2.992,0.123,2.158-1.262c-6.573-10.915-6.678-25.497-7.134-37.836c-0.552-14.915-0.049-29.848-0.542-44.765
				C752.559,3.718,750.058,3.713,750.111,5.326L750.111,5.326z"/>
		</g>
	</g>
	<g>
		<g>
			<path d="M782.327,38.383c-8.765,3.703-19.303,3.407-28.643,3.33c-4.127-0.034-8.252-0.202-12.375-0.374
				c-1.94-0.081-4.265-0.499-6.183-0.02c-1.563,0.391-0.9,2.802,0.664,2.411c1.88-0.47,4.443,0.064,6.358,0.143
				c4.645,0.193,9.289,0.339,13.938,0.353c9.076,0.026,19.01-0.098,27.501-3.685C785.069,39.917,783.794,37.764,782.327,38.383
				L782.327,38.383z"/>
		</g>
	</g>
	<g>
		<g>
			<path d="M884.074,85.427c-4.587-11.448-9.559-22.822-15.333-33.723c-2.306-4.354-5.096-10.688-9.577-13.293
				c-3.789-2.202-5.895,3.54-6.754,6.104c-2.463,7.348-3.349,15.253-4.921,22.819c-0.656,3.163-1.385,6.336-2.537,9.36
				c-1.16,3.046-2.33,3.205-4.369,0.772c-5.045-6.016-8.091-14.031-12.015-20.783c-2.977-5.123-7.119-12.793-13.183-14.827
				c-16.95-5.687-5.734,37.653-3.885,44.235c0.436,1.549,2.848,0.89,2.41-0.665c-3.171-11.289-6.868-24.648-5.016-36.395
				c1.559-9.879,9.812-2.399,13.131,2.091c5.049,6.831,8.612,14.688,12.805,22.043c1.59,2.789,4.785,9.682,9.015,8.69
				c4.134-0.97,5.174-9.825,5.86-12.944c1.684-7.655,2.674-15.485,4.891-23.017c0.272-0.928,1.65-6.077,3.305-5.326
				c2.285,1.038,3.9,4.236,5.163,6.236c7.675,12.162,13.263,25.966,18.6,39.286C882.256,87.569,884.675,86.925,884.074,85.427
				L884.074,85.427z"/>
		</g>
	</g>
	<g>
		<g>
			<path d="M879.952,78.469c13.061-5.306,26.987-12.167,37.297-21.914c3.833-3.625,6.865-8.206,4.643-13.475
				c-1.392-3.296-3.792-6.606-7.636-6.992c-8.288-0.833-14.682,9.186-17.654,15.534c-3.864,8.255-5.547,19.133,0.793,26.618
				c7.276,8.59,21.719,7.169,31.541,5.021c19.405-4.245,36.049-16.964,46.975-33.296c0.899-1.344-1.267-2.594-2.158-1.262
				c-10.903,16.298-27.6,28.599-46.995,32.464c-9.998,1.993-25.651,2.68-30.064-8.899c-3.608-9.471,1.696-21.536,8.026-28.603
				c2.368-2.644,6.09-5.841,9.936-4.982c5.048,1.128,6.537,8.21,4.263,12.037c-4.367,7.348-13.834,12.191-21.025,16.231
				c-5.998,3.37-12.225,6.514-18.604,9.105C877.814,76.656,878.458,79.076,879.952,78.469L879.952,78.469z"/>
		</g>
	</g>
	<g>
		<g>
			<path d="M997.564,80.535c-0.333,6.201-9.274,6.197-9.608,0C987.623,74.348,997.233,74.374,997.564,80.535
				c0.086,1.604,2.587,1.612,2.5,0c-0.222-4.128-3.167-7.077-7.296-7.3c-4.123-0.222-7.107,3.5-7.312,7.3
				c-0.223,4.127,3.512,7.105,7.312,7.31c4.125,0.222,7.092-3.514,7.296-7.31C1000.151,78.923,997.65,78.932,997.564,80.535z"/>
		</g>
	</g>
	<g>
		<g>
			<path d="M1028.627,80.536c-0.333,6.2-9.274,6.196-9.608,0C1018.686,74.348,1028.296,74.374,1028.627,80.536
				c0.086,1.604,2.587,1.612,2.5,0c-0.222-4.129-3.166-7.078-7.296-7.301c-4.123-0.222-7.107,3.5-7.312,7.301
				c-0.223,4.127,3.513,7.104,7.312,7.309c4.125,0.222,7.092-3.513,7.296-7.309C1031.214,78.924,1028.713,78.933,1028.627,80.536z"
				/>
		</g>
	</g>
	<g>
		<g>
			<path d="M1059.689,80.537c-0.333,6.2-9.274,6.196-9.608,0C1049.748,74.348,1059.358,74.374,1059.689,80.537
				c0.086,1.604,2.587,1.612,2.5,0c-0.222-4.129-3.166-7.078-7.296-7.301c-4.123-0.222-7.107,3.5-7.312,7.301
				c-0.223,4.128,3.513,7.104,7.312,7.309c4.125,0.222,7.092-3.513,7.296-7.309C1062.276,78.925,1059.775,78.933,1059.689,80.537z"
				/>
		</g>
	</g>
	<g>
		<g>
			<path d="M572.688,191.531c1.612,0,1.612-2.5,0-2.5S571.075,191.531,572.688,191.531L572.688,191.531z"/>
		</g>
	</g>
	<g>
		<g>
			<path d="M577.491,226.435c1.612,0,1.612-2.5,0-2.5S575.879,226.435,577.491,226.435L577.491,226.435z"/>
		</g>
	</g>
	<g>
		<g>
			<path d="M575.777,224.319c-6.161,4.025-12.621,7.916-19.71,10.061c-3.512,1.063-7.78,1.743-11.016-0.419
				c-6.019-4.022-2.708-15.331-0.973-20.644c2.554-7.812,20.039-40.16,28.003-20.221c0.59,1.479,3.009,0.834,2.41-0.664
				c-2.594-6.496-7.732-10.42-14.468-6.695c-7.325,4.051-12.267,12.776-15.652,20.093c-3.357,7.256-6.518,16.416-4.466,24.469
				c2.101,8.243,10.708,8.344,17.477,6.296c7.043-2.132,13.545-6.124,19.656-10.117
				C578.383,225.599,577.132,223.434,575.777,224.319L575.777,224.319z"/>
		</g>
	</g>
	<g>
		<g>
			<path d="M584.62,203.518c2.033-8.592,9.104-17.843,18.989-14.37c11.358,3.988,9.531,21.209,6.978,29.982
				c-2.141,7.354-8.613,17.621-17.708,15.118c-10.925-3.007-9.823-20.693-8.764-28.954c0.205-1.596-2.298-1.576-2.5,0
				c-1.312,10.226-1.546,27.198,10.6,31.364c10.479,3.595,18.164-8.73,20.783-16.864c3.494-10.854,3.712-27.861-8.724-33.058
				c-10.982-4.589-19.854,6.776-22.064,16.117C581.839,204.421,584.249,205.086,584.62,203.518L584.62,203.518z"/>
		</g>
	</g>
	<g>
		<g>
			<path d="M656.55,176.847c-6.292-0.393-4.579,26.457-4.637,29.873c-0.123,7.248-0.104,14.564-0.964,21.771
				c-0.08,0.669-1.018,4.826-1.076,4.799c-1.862-0.866-2.831-5.188-3.437-6.878c-2.71-7.566-4.715-15.369-7.409-22.945
				c-1.877-5.28-4.041-11.899-8.757-15.356c-10.087-7.393-9.961,19.513-9.928,23.039c0.085,9.052,0.799,18.155,1.92,27.139
				c0.197,1.578,2.699,1.597,2.5,0c-1.463-11.724-2.384-23.722-1.762-35.53c0.138-2.613,0.682-15.763,6.008-12.488
				c5.525,3.396,7.706,13.919,9.545,19.572c0.752,2.312,7.789,30.574,12.989,25.153c2.729-2.844,2.261-9.711,2.453-13.249
				c0.43-7.927,0.396-15.877,0.587-23.812c0.038-1.592,0.296-18.692,1.967-18.588C658.16,179.448,658.151,176.947,656.55,176.847
				L656.55,176.847z"/>
		</g>
	</g>
	<g>
		<g>
			<path d="M670.301,153.808c0.404,16.101-0.006,32.21,0.506,48.309c0.382,11.988,0.613,25.443,5.694,36.554
				c0.67,1.465,2.824,0.193,2.158-1.262c-5.29-11.568-5.093-25.842-5.442-38.298c-0.424-15.098-0.037-30.205-0.416-45.303
				C672.761,152.199,670.261,152.195,670.301,153.808L670.301,153.808z"/>
		</g>
	</g>
	<g>
		<g>
			<path d="M695.199,187.277c-6.715,3.673-15.259,3.476-22.7,3.357c-4.002-0.063-9.601-1.529-13.5-0.385
				c-1.544,0.452-0.887,2.865,0.664,2.41c1.576-0.462,3.946,0.099,5.559,0.187c3.606,0.195,7.214,0.32,10.826,0.312
				c6.797-0.014,14.325-0.393,20.413-3.724C697.876,188.662,696.614,186.502,695.199,187.277L695.199,187.277z"/>
		</g>
	</g>
	<g>
		<g>
			<path d="M718.926,239.851c0.098-4.542,0.211-9.085,0.217-13.628c0.002-1.612-2.498-1.612-2.5,0
				c-0.006,4.543-0.119,9.086-0.217,13.628C716.391,241.464,718.891,241.46,718.926,239.851L718.926,239.851z"/>
		</g>
	</g>
	<g>
		<g>
			<path d="M716.988,225.172c-6.364,4.248-19.771,14.253-28.128,9.688c-5.564-3.039-3.418-12.51-2.138-17.237
				c1.584-5.85,14.825-36.519,24.547-26.16c2.673,2.848,3.498,7.433,4.146,11.121c1.366,7.762,1.23,15.824,0.953,23.668
				c-0.057,1.613,2.443,1.607,2.5,0c0.276-7.811,1.001-50.365-17.948-36.592c-5.941,4.318-10.044,11.292-13.088,17.826
				c-3.02,6.482-5.657,14.136-4.849,21.394c2.13,19.134,27.484,3.645,35.266-1.549C719.584,226.441,718.334,224.274,716.988,225.172
				L716.988,225.172z"/>
		</g>
	</g>
	<g>
		<g>
			<path d="M755.042,225.042c-5.281,3.932-19.415,15.528-26.638,9.589c-5.303-4.36-2.501-14.983-0.995-20.396
				c2.246-8.076,6.004-16.451,11.67-22.725c1.72-1.905,4.075-4.104,6.799-4.179c3.229-0.089,4.896,4.025,5.763,6.482
				c0.532,1.51,2.948,0.86,2.41-0.664c-2.2-6.242-6.997-10.813-13.366-6.422c-6.855,4.728-10.948,13.704-13.822,21.211
				c-2.791,7.289-5.653,17.061-2.721,24.736c3.117,8.156,12.347,5.945,18.549,3.088c4.869-2.242,9.33-5.373,13.613-8.562
				C757.581,226.249,756.337,224.078,755.042,225.042L755.042,225.042z"/>
		</g>
	</g>
	<g>
		<g>
			<path d="M769.254,153.808c0.404,16.101-0.006,32.21,0.506,48.309c0.382,11.988,0.613,25.443,5.694,36.554
				c0.67,1.465,2.824,0.193,2.158-1.262c-5.29-11.568-5.093-25.842-5.442-38.298c-0.424-15.097-0.037-30.204-0.416-45.303
				C771.714,152.199,769.214,152.195,769.254,153.808L769.254,153.808z"/>
		</g>
	</g>
	<g>
		<g>
			<path d="M794.152,187.277c-6.715,3.673-15.259,3.476-22.7,3.357c-4.002-0.063-9.601-1.528-13.5-0.386
				c-1.544,0.453-0.887,2.866,0.664,2.411c1.576-0.462,3.946,0.099,5.559,0.187c3.606,0.195,7.214,0.32,10.826,0.312
				c6.797-0.014,14.325-0.393,20.413-3.724C796.829,188.662,795.567,186.502,794.152,187.277L794.152,187.277z"/>
		</g>
	</g>
	<g>
		<g>
			<path d="M885.559,235.022c-3.806-11.661-7.946-23.273-12.846-34.521c-1.722-3.952-3.878-10.677-7.935-12.96
				c-3.669-2.065-5.28,4.903-5.814,6.998c-1.936,7.585-2.674,15.479-4.013,23.182c-0.532,3.059-1.119,6.137-2.117,9.082
				c-1.144,3.373-2.16,1.607-3.536-0.707c-4.019-6.759-6.569-14.422-10.009-21.481c-2.334-4.791-5.56-12.111-11.187-13.805
				c-12.965-3.899-3.786,39.335-2.518,44.877c0.359,1.571,2.77,0.905,2.41-0.664c-2.682-11.719-5.854-25.168-4.033-37.188
				c1.487-9.813,8.504-0.471,10.881,3.673c4.12,7.181,6.961,15.028,10.533,22.479c1.103,2.299,3.861,9.175,7.562,7.172
				c3.783-2.048,4.146-11.104,4.742-14.628c1.281-7.572,2.039-15.312,4.066-22.735c0.318-1.165,1.034-4.983,2.574-3.455
				c1.975,1.96,3.197,4.945,4.394,7.403c5.895,12.12,10.257,25.145,14.435,37.943C883.646,237.211,886.061,236.559,885.559,235.022
				L885.559,235.022z"/>
		</g>
	</g>
	<g>
		<g>
			<path d="M882.211,227.258c6.139-3.083,12.044-6.91,17.448-11.139c5.768-4.512,12.999-10.472,14.077-18.222
				c1.013-7.278-5.581-16.055-12.884-11.003c-7.444,5.149-11.32,16.256-12.463,24.803c-1.293,9.669,1.164,19.931,11.185,23.569
				c7.613,2.766,16.989,0.812,24.345-2.052c15.649-6.092,27.465-18.924,35.346-33.432c0.77-1.417-1.389-2.679-2.158-1.262
				c-8.63,15.885-22.582,30.331-40.781,34.452c-9.879,2.237-22.502,1.088-25.295-11.059c-2.284-9.937,1.906-22.485,8.293-30.171
				c1.854-2.232,5.446-5.615,8.426-3.25c5.992,4.759,3.031,12.866-0.964,17.662c-6.684,8.024-16.558,14.282-25.836,18.943
				C879.509,225.824,880.774,227.98,882.211,227.258L882.211,227.258z"/>
		</g>
	</g>
	<g>
		<g>
			<path d="M972.126,216.728c-0.264,4.919-7.357,4.915-7.622,0C964.239,211.818,971.863,211.838,972.126,216.728
				c0.086,1.604,2.587,1.611,2.5,0c-0.191-3.566-2.736-6.116-6.304-6.309c-3.562-0.191-6.142,3.025-6.318,6.309
				c-0.192,3.565,3.036,6.138,6.318,6.314c3.562,0.191,6.128-3.035,6.304-6.314C974.713,215.117,972.212,215.125,972.126,216.728z"
				/>
		</g>
	</g>
	<g>
		<path d="M1027.006,212.646c0,0,0.683-4.703,1.809-11.736c0.554-3.519,1.193-7.625,1.93-12.015
			c0.708-4.395,1.537-9.067,2.342-13.745c0.375-2.344,0.775-4.684,1.118-6.997c0.344-2.312,0.716-4.582,1.151-6.763
			c0.458-2.176,0.954-4.268,1.489-6.237c0.516-1.975,1.074-3.826,1.598-5.534c0.515-1.709,1.051-3.263,1.524-4.64
			c0.486-1.375,0.929-2.569,1.321-3.547c0.772-1.959,1.302-3.06,1.302-3.06l0.49,0.104c0,0,0.042,1.22-0.037,3.324
			c-0.034,1.053-0.108,2.324-0.216,3.778c-0.12,1.451-0.254,3.09-0.47,4.861c-0.207,1.774-0.439,3.694-0.762,5.709
			c-0.302,2.02-0.688,4.135-1.143,6.311c-0.478,2.172-1.049,4.399-1.665,6.655c-0.615,2.257-1.189,4.56-1.788,6.857
			c-1.144,4.606-2.262,9.218-3.38,13.526c-1.091,4.315-2.155,8.332-3.062,11.776c-1.796,6.894-3.062,11.475-3.062,11.475
			L1027.006,212.646z"/>
	</g>
	<g>
		<g>
			<path d="M581.649,387.378c-3.201-12.179-6.645-24.369-10.958-36.204c-0.984-2.701-2.925-10.655-6.377-11.495
				c-3.742-0.91-4.45,6.609-4.841,8.751c-1.415,7.754-2.042,15.639-3.206,23.43c-0.418,2.797-0.868,5.636-1.768,8.324
				c-0.381,1.138-0.177,1.472-0.778,0.649c-0.871-1.189-1.447-2.656-2.013-4.004c-3.065-7.298-5.249-14.938-8.321-22.237
				c-1.458-3.465-4.191-11.245-8.909-11.559c-10.817-0.719-2.736,38.843-1.6,45.009c0.292,1.584,2.701,0.911,2.41-0.664
				c-2.193-11.901-4.475-24.713-3.288-36.826c0.146-1.494,0.611-6.006,3.028-4.75c2.634,1.368,4.17,5.551,5.33,8.062
				c3.427,7.416,5.649,15.335,8.65,22.921c0.729,1.846,3.018,8.906,6.255,6.729c3.49-2.345,3.446-11.064,3.932-14.629
				c1.032-7.573,1.631-15.259,3.275-22.734c0.253-1.15,0.549-2.325,1.03-3.404c0.374-0.84,0.05-0.855,0.717,0.081
				c1.72,2.416,2.718,5.447,3.758,8.191c4.56,12.038,7.992,24.582,11.263,37.023C579.648,389.601,582.06,388.939,581.649,387.378
				L581.649,387.378z"/>
		</g>
	</g>
	<g>
		<path fill-rule="evenodd" clip-rule="evenodd" d="M533.601,481.724c-3.072,3.394-6.107,6.812-9.227,10.151
			c-0.936,1.001-2.057,1.85-3.178,2.651c-2.413,1.726-5.055,2.837-7.875,1.143c-2.654-1.592-2.508-4.319-2.412-7.017
			c0.176-5.032,0.11-10.073,0.328-15.103c0.161-3.763,0.797-3.988,5.04-2.052c-1.333,7.118-0.87,14.36-1.081,22.571
			c10.909-5.983,15.361-15.45,19.931-25.081c3.511,1.042,3.584,3.697,3.761,6.568c0.546,8.939,1.292,17.866,2.633,26.992
			c9.697-8.533,17.807-18.112,26.246-27.389c3.329,3.699,3.203,3.568,0.312,6.376c-4.738,4.611-9.312,9.391-13.919,14.135
			c-2.243,2.31-4.383,4.719-6.604,7.049c-4.096,4.296-6.109,9.04-5.34,15.297c0.956,7.773,1.178,15.668,1.225,23.513
			c0.046,7.355-2.889,13.705-8.143,18.905c-2.933,2.898-4.215,2.855-6.934-0.029c-2.604-2.764-3.808-6-4.063-9.813
			c-0.577-8.667,1.514-16.808,4.813-24.633c2.168-5.145,5.066-9.98,7.575-14.986c0.523-1.043,1.21-2.271,1.082-3.326
			c-1.005-8.351-2.18-16.679-3.345-25.009C534.383,482.312,533.903,482.045,533.601,481.724z M538.504,515.1
			c-7.16,10.321-10.523,20.513-11.074,31.414c-0.192,3.794-0.608,8.775,4.284,11.11c4.086-2.618,5.905-4.817,7.074-10.491
			C540.876,536.982,540.562,526.775,538.504,515.1z"/>
		<g>
			<path d="M533.424,481.547c-3.921,4.341-7.624,9.277-12.354,12.764c-2.876,2.379-6.124,1.778-9.745-1.802
				c-0.197-1.282-0.253-2.567-0.166-3.856c0.091-3.146,0.131-6.293,0.175-9.44c0.035-2.515-0.032-5.104,0.356-7.595
				c1.89-1.512,3.246-1.025,4.069,1.46c-0.188,1.109-0.284,2.261-0.398,3.379c-0.596,5.832-0.297,11.761-0.415,17.613
				c-0.004,0.191,0.215,0.31,0.376,0.216c8.147-4.71,13.293-11.689,17.5-19.954c0.432-0.861,0.855-1.728,1.272-2.597
				c1.623-3.348,4.206,0.294,4.463,2.609c0.326,2.938,0.385,5.928,0.606,8.877c0.486,6.488,1.197,12.954,2.115,19.395
				c0.028,0.2,0.294,0.221,0.418,0.11c6.779-6.046,12.97-12.655,19.049-19.395c1.601-1.775,3.194-3.559,4.793-5.337
				c3.237-3.6,5.03,0.768,2.363,3.365c-3.445,3.355-6.804,6.799-10.153,10.249c-5.257,5.417-11.982,10.835-14.929,17.958
				c-1.371,3.315-1.028,6.938-0.631,10.396c0.6,5.2,0.793,10.446,0.925,15.676c0.112,4.52,0.209,8.911-0.977,13.313
				c-0.979,3.643-7.602,17.138-13.597,11.276c-8.073-7.895-3.318-23.527,0.126-32.521c1.989-5.194,4.81-10.034,7.389-14.945
				c1.829-3.482,1.993-4.938,1.49-8.968c-0.563-4.516-1.183-9.025-1.805-13.533c-0.354-2.56,0.103-6.87-1.964-8.714
				c-0.239-0.214-0.595,0.139-0.354,0.354c1.648,1.471,1.549,6.432,1.835,8.493c0.441,3.182,0.871,6.365,1.292,9.551
				c0.339,2.565,0.657,5.134,0.971,7.702c0.274,2.249-2.593,6.193-3.646,8.167c-4.362,8.185-8.038,16.379-9.48,25.617
				c-1.059,6.788-0.792,13.76,3.792,19.151c3.985,4.688,7.501,0.142,10.339-3.471c4.524-5.76,5.213-12.453,5.123-19.508
				c-0.066-5.24-0.313-10.471-0.764-15.691c-0.454-5.252-0.974-9.703,1.51-14.581c2.203-4.326,6.62-8.01,9.941-11.483
				c3.323-3.476,6.69-6.912,10.075-10.328c1.457-1.471,5.483-4.034,5.957-6.192c0.394-1.79-1.349-3.135-2.426-4.344
				c-0.088-0.099-0.266-0.097-0.354,0c-4.423,4.877-8.783,9.81-13.266,14.633c-2.055,2.21-4.163,4.368-6.298,6.501
				c-1.292,1.29-2.622,2.541-3.953,3.789c-2.65,2.484-2.804-0.954-3.087-3.199c-0.884-7.022-1.405-14.088-1.849-21.15
				c-0.211-3.359-0.731-5.477-3.944-6.81c-0.096-0.04-0.239,0.023-0.282,0.115c-3.33,7.013-6.751,13.843-12.273,19.425
				c-1.819,1.839-3.949,3.34-6.119,4.729c-1.305,0.835-0.999-5.824-0.997-6.276c0.019-5.096,0.149-10.139,0.997-15.176
				c0.017-0.102-0.007-0.234-0.115-0.282c-0.973-0.427-4.298-2.349-4.972-0.434c-0.908,2.583-0.548,5.679-0.598,8.363
				c-0.074,4.025-0.279,8.081-0.182,12.104c0.104,4.276,3.932,5.864,7.608,5.087c2.291-0.485,4.641-2.763,6.29-4.352
				c3.272-3.152,6.182-6.779,9.227-10.151C533.993,481.663,533.641,481.307,533.424,481.547z"/>
			<path d="M538.288,514.974c-5.506,8.147-9.228,16.854-10.658,26.613c-0.848,5.778-1.836,12.895,3.958,16.253
				c0.073,0.043,0.179,0.049,0.252,0c5.846-3.898,7.082-8.939,8.036-15.728c1.267-9.005,0.376-18.167-1.131-27.079
				c-0.054-0.317-0.535-0.183-0.482,0.133c1.318,7.8,1.995,15.562,1.474,23.464c-0.249,3.772-0.858,7.574-1.901,11.21
				c-0.794,2.77-4.468,9.162-8.12,6.095c-4.669-3.922-1.492-15.901-0.39-20.576c1.717-7.28,5.234-13.976,9.395-20.133
				C538.901,514.958,538.468,514.708,538.288,514.974z"/>
		</g>
	</g>
	<g>
		<g>
			<path d="M579.292,356.001c0.016,6.863,0.651,13.812,2.054,20.529c0.877,4.201,2.842,12.438,8.179,13.069
				c3.344,0.396,6.123-1.957,7.747-4.637c5.224-8.624,3.021-21.807,1.776-31.065c-0.818,0.11-1.637,0.222-2.455,0.332
				c1.781,9.708,3.191,19.495,4.383,29.29c1.776,14.606,4.277,31.039,1.013,45.598c-0.353,1.57,2.058,2.237,2.41,0.664
				c3.248-14.482,0.908-30.565-0.785-45.106c-1.212-10.406-2.719-20.804-4.61-31.109c-0.253-1.378-2.643-1.063-2.455,0.332
				c0.749,5.575,5.319,33.935-6.864,33.216c-4.353-0.256-5.93-10.993-6.506-14.258c-0.977-5.524-1.373-11.243-1.386-16.854
				C581.788,354.389,579.288,354.389,579.292,356.001L579.292,356.001z"/>
		</g>
	</g>
	<g>
		<g>
			<path d="M625.485,343.09c3.93,11.666,8.091,23.296,12.892,34.634c1.227,2.896,3.443,10.726,7.01,11.827
				c3.539,1.092,4.555-6.662,4.98-8.584c1.702-7.684,2.685-15.517,4.158-23.245c0.528-2.769,1.085-5.574,2.055-8.228
				c0.467-1.277,0.08-1.326,0.573-0.503c0.747,1.249,1.161,2.728,1.61,4.101c2.437,7.451,4.03,15.152,6.473,22.605
				c1.135,3.464,3.167,11.344,7.716,11.913c9.941,1.243,4.547-38.787,3.872-44.599c-0.184-1.582-2.686-1.6-2.5,0
				c1.396,12.02,2.884,24.899,1.167,36.935c-0.148,1.038-0.768,5.931-2.619,5.062c-2.523-1.184-3.788-5.935-4.632-8.252
				c-2.713-7.452-4.353-15.26-6.607-22.854c-0.435-1.46-2.426-9.901-5.622-7.808c-3.465,2.27-3.748,10.088-4.395,13.643
				c-1.382,7.595-2.352,15.289-4.178,22.796c-0.288,1.187-0.635,2.356-1.062,3.5c-0.44,1.174-0.145,1.223-0.598,0.726
				c-1.755-1.924-2.797-4.821-3.861-7.148c-5.498-12.016-9.806-24.672-14.021-37.186
				C627.384,340.907,624.969,341.558,625.485,343.09L625.485,343.09z"/>
		</g>
	</g>
	<g>
		<g>
			<path d="M686.054,358.356c0.506-5.963,4.256-20.226,13.203-15.646c4.03,2.063,5.713,7.347,6.7,11.392
				c1.537,6.294,1.399,13.26,0.404,19.632c-0.781,5.007-4.03,16.751-11.36,14.467c-3.564-1.111-5.479-5.806-6.593-8.941
				c-2.118-5.957-2.508-12.475-2.596-18.738c-0.022-1.61-2.522-1.613-2.5,0c0.125,8.894,0.631,26.851,11.501,30.238
				c9.203,2.869,13.359-11.63,14.172-17.772c1.325-10.022,1.585-28.248-9.863-33.073c-10.404-4.385-14.981,11.532-15.568,18.442
				C683.417,359.963,685.918,359.95,686.054,358.356L686.054,358.356z"/>
		</g>
	</g>
	<g>
		<g>
			<path d="M721.968,388.232c2.272-14.843,3.698-33.152-2.782-47.341c-0.669-1.465-2.823-0.193-2.158,1.262
				c6.1,13.355,4.687,31.328,2.53,45.415C719.316,389.144,721.725,389.822,721.968,388.232L721.968,388.232z"/>
		</g>
	</g>
	<g>
		<g>
			<path d="M720.885,350.534c5.993,5.272,13.62,2.772,18.365-2.768c1.043-1.217-0.717-2.994-1.768-1.768
				c-3.779,4.412-9.882,7.12-14.83,2.768C721.447,347.706,719.672,349.467,720.885,350.534L720.885,350.534z"/>
		</g>
	</g>
	<g>
		<g>
			<path d="M742.311,389.747c7.477-14.225,9.552-32.748,2.018-47.507c-0.733-1.437-2.89-0.171-2.158,1.262
				c7.108,13.926,5.015,31.603-2.018,44.983C739.403,389.911,741.561,391.174,742.311,389.747L742.311,389.747z"/>
		</g>
	</g>
	<g>
		<g>
			<path d="M774.193,375.118c-5.627,5.625-22.245,20.479-23.933,4.036c-0.982-9.564,2.693-21.659,9.249-28.741
				c1.094-1.181-0.67-2.953-1.768-1.768c-7.583,8.191-11.772,22.434-9.552,33.411c3.383,16.718,22.133,0.466,27.771-5.171
				C777.103,375.745,775.334,373.977,774.193,375.118L774.193,375.118z"/>
		</g>
	</g>
	<g>
		<g>
			<path d="M972.126,170.497c-0.264,4.919-7.357,4.915-7.622,0C964.239,165.586,971.863,165.607,972.126,170.497
				c0.086,1.604,2.587,1.611,2.5,0c-0.191-3.566-2.736-6.116-6.304-6.309c-3.562-0.191-6.142,3.025-6.318,6.309
				c-0.192,3.565,3.036,6.138,6.318,6.314c3.562,0.191,6.128-3.035,6.304-6.314C974.713,168.885,972.212,168.893,972.126,170.497z"
				/>
		</g>
	</g>
</g>
<g id="Layer_2">
</g>
</svg>
